G75*
%MOIN*%
%OFA0B0*%
%FSLAX25Y25*%
%IPPOS*%
%LPD*%
%AMOC8*
5,1,8,0,0,1.08239X$1,22.5*
%
%ADD10C,0.00000*%
D10*
X0006767Y0002139D02*
X0006829Y0193509D01*
X0189917Y0193413D01*
X0190175Y0002107D01*
X0006767Y0002139D01*
X0009099Y0010474D02*
X0009101Y0010630D01*
X0009107Y0010786D01*
X0009117Y0010941D01*
X0009131Y0011096D01*
X0009149Y0011251D01*
X0009171Y0011405D01*
X0009196Y0011559D01*
X0009226Y0011712D01*
X0009260Y0011864D01*
X0009297Y0012016D01*
X0009338Y0012166D01*
X0009383Y0012315D01*
X0009432Y0012463D01*
X0009485Y0012610D01*
X0009541Y0012755D01*
X0009601Y0012899D01*
X0009665Y0013041D01*
X0009733Y0013182D01*
X0009804Y0013320D01*
X0009878Y0013457D01*
X0009956Y0013592D01*
X0010037Y0013725D01*
X0010122Y0013856D01*
X0010210Y0013985D01*
X0010301Y0014111D01*
X0010396Y0014235D01*
X0010493Y0014356D01*
X0010594Y0014475D01*
X0010698Y0014592D01*
X0010804Y0014705D01*
X0010914Y0014816D01*
X0011026Y0014924D01*
X0011141Y0015029D01*
X0011259Y0015132D01*
X0011379Y0015231D01*
X0011502Y0015327D01*
X0011627Y0015420D01*
X0011754Y0015509D01*
X0011884Y0015596D01*
X0012016Y0015679D01*
X0012150Y0015758D01*
X0012286Y0015835D01*
X0012424Y0015907D01*
X0012563Y0015977D01*
X0012705Y0016042D01*
X0012848Y0016104D01*
X0012992Y0016162D01*
X0013138Y0016217D01*
X0013286Y0016268D01*
X0013434Y0016315D01*
X0013584Y0016358D01*
X0013735Y0016397D01*
X0013887Y0016433D01*
X0014039Y0016464D01*
X0014193Y0016492D01*
X0014347Y0016516D01*
X0014501Y0016536D01*
X0014656Y0016552D01*
X0014812Y0016564D01*
X0014967Y0016572D01*
X0015123Y0016576D01*
X0015279Y0016576D01*
X0015435Y0016572D01*
X0015590Y0016564D01*
X0015746Y0016552D01*
X0015901Y0016536D01*
X0016055Y0016516D01*
X0016209Y0016492D01*
X0016363Y0016464D01*
X0016515Y0016433D01*
X0016667Y0016397D01*
X0016818Y0016358D01*
X0016968Y0016315D01*
X0017116Y0016268D01*
X0017264Y0016217D01*
X0017410Y0016162D01*
X0017554Y0016104D01*
X0017697Y0016042D01*
X0017839Y0015977D01*
X0017978Y0015907D01*
X0018116Y0015835D01*
X0018252Y0015758D01*
X0018386Y0015679D01*
X0018518Y0015596D01*
X0018648Y0015509D01*
X0018775Y0015420D01*
X0018900Y0015327D01*
X0019023Y0015231D01*
X0019143Y0015132D01*
X0019261Y0015029D01*
X0019376Y0014924D01*
X0019488Y0014816D01*
X0019598Y0014705D01*
X0019704Y0014592D01*
X0019808Y0014475D01*
X0019909Y0014356D01*
X0020006Y0014235D01*
X0020101Y0014111D01*
X0020192Y0013985D01*
X0020280Y0013856D01*
X0020365Y0013725D01*
X0020446Y0013592D01*
X0020524Y0013457D01*
X0020598Y0013320D01*
X0020669Y0013182D01*
X0020737Y0013041D01*
X0020801Y0012899D01*
X0020861Y0012755D01*
X0020917Y0012610D01*
X0020970Y0012463D01*
X0021019Y0012315D01*
X0021064Y0012166D01*
X0021105Y0012016D01*
X0021142Y0011864D01*
X0021176Y0011712D01*
X0021206Y0011559D01*
X0021231Y0011405D01*
X0021253Y0011251D01*
X0021271Y0011096D01*
X0021285Y0010941D01*
X0021295Y0010786D01*
X0021301Y0010630D01*
X0021303Y0010474D01*
X0021301Y0010318D01*
X0021295Y0010162D01*
X0021285Y0010007D01*
X0021271Y0009852D01*
X0021253Y0009697D01*
X0021231Y0009543D01*
X0021206Y0009389D01*
X0021176Y0009236D01*
X0021142Y0009084D01*
X0021105Y0008932D01*
X0021064Y0008782D01*
X0021019Y0008633D01*
X0020970Y0008485D01*
X0020917Y0008338D01*
X0020861Y0008193D01*
X0020801Y0008049D01*
X0020737Y0007907D01*
X0020669Y0007766D01*
X0020598Y0007628D01*
X0020524Y0007491D01*
X0020446Y0007356D01*
X0020365Y0007223D01*
X0020280Y0007092D01*
X0020192Y0006963D01*
X0020101Y0006837D01*
X0020006Y0006713D01*
X0019909Y0006592D01*
X0019808Y0006473D01*
X0019704Y0006356D01*
X0019598Y0006243D01*
X0019488Y0006132D01*
X0019376Y0006024D01*
X0019261Y0005919D01*
X0019143Y0005816D01*
X0019023Y0005717D01*
X0018900Y0005621D01*
X0018775Y0005528D01*
X0018648Y0005439D01*
X0018518Y0005352D01*
X0018386Y0005269D01*
X0018252Y0005190D01*
X0018116Y0005113D01*
X0017978Y0005041D01*
X0017839Y0004971D01*
X0017697Y0004906D01*
X0017554Y0004844D01*
X0017410Y0004786D01*
X0017264Y0004731D01*
X0017116Y0004680D01*
X0016968Y0004633D01*
X0016818Y0004590D01*
X0016667Y0004551D01*
X0016515Y0004515D01*
X0016363Y0004484D01*
X0016209Y0004456D01*
X0016055Y0004432D01*
X0015901Y0004412D01*
X0015746Y0004396D01*
X0015590Y0004384D01*
X0015435Y0004376D01*
X0015279Y0004372D01*
X0015123Y0004372D01*
X0014967Y0004376D01*
X0014812Y0004384D01*
X0014656Y0004396D01*
X0014501Y0004412D01*
X0014347Y0004432D01*
X0014193Y0004456D01*
X0014039Y0004484D01*
X0013887Y0004515D01*
X0013735Y0004551D01*
X0013584Y0004590D01*
X0013434Y0004633D01*
X0013286Y0004680D01*
X0013138Y0004731D01*
X0012992Y0004786D01*
X0012848Y0004844D01*
X0012705Y0004906D01*
X0012563Y0004971D01*
X0012424Y0005041D01*
X0012286Y0005113D01*
X0012150Y0005190D01*
X0012016Y0005269D01*
X0011884Y0005352D01*
X0011754Y0005439D01*
X0011627Y0005528D01*
X0011502Y0005621D01*
X0011379Y0005717D01*
X0011259Y0005816D01*
X0011141Y0005919D01*
X0011026Y0006024D01*
X0010914Y0006132D01*
X0010804Y0006243D01*
X0010698Y0006356D01*
X0010594Y0006473D01*
X0010493Y0006592D01*
X0010396Y0006713D01*
X0010301Y0006837D01*
X0010210Y0006963D01*
X0010122Y0007092D01*
X0010037Y0007223D01*
X0009956Y0007356D01*
X0009878Y0007491D01*
X0009804Y0007628D01*
X0009733Y0007766D01*
X0009665Y0007907D01*
X0009601Y0008049D01*
X0009541Y0008193D01*
X0009485Y0008338D01*
X0009432Y0008485D01*
X0009383Y0008633D01*
X0009338Y0008782D01*
X0009297Y0008932D01*
X0009260Y0009084D01*
X0009226Y0009236D01*
X0009196Y0009389D01*
X0009171Y0009543D01*
X0009149Y0009697D01*
X0009131Y0009852D01*
X0009117Y0010007D01*
X0009107Y0010162D01*
X0009101Y0010318D01*
X0009099Y0010474D01*
X0041414Y0166952D02*
X0041416Y0167108D01*
X0041422Y0167264D01*
X0041432Y0167419D01*
X0041446Y0167574D01*
X0041464Y0167729D01*
X0041486Y0167883D01*
X0041511Y0168037D01*
X0041541Y0168190D01*
X0041575Y0168342D01*
X0041612Y0168494D01*
X0041653Y0168644D01*
X0041698Y0168793D01*
X0041747Y0168941D01*
X0041800Y0169088D01*
X0041856Y0169233D01*
X0041916Y0169377D01*
X0041980Y0169519D01*
X0042048Y0169660D01*
X0042119Y0169798D01*
X0042193Y0169935D01*
X0042271Y0170070D01*
X0042352Y0170203D01*
X0042437Y0170334D01*
X0042525Y0170463D01*
X0042616Y0170589D01*
X0042711Y0170713D01*
X0042808Y0170834D01*
X0042909Y0170953D01*
X0043013Y0171070D01*
X0043119Y0171183D01*
X0043229Y0171294D01*
X0043341Y0171402D01*
X0043456Y0171507D01*
X0043574Y0171610D01*
X0043694Y0171709D01*
X0043817Y0171805D01*
X0043942Y0171898D01*
X0044069Y0171987D01*
X0044199Y0172074D01*
X0044331Y0172157D01*
X0044465Y0172236D01*
X0044601Y0172313D01*
X0044739Y0172385D01*
X0044878Y0172455D01*
X0045020Y0172520D01*
X0045163Y0172582D01*
X0045307Y0172640D01*
X0045453Y0172695D01*
X0045601Y0172746D01*
X0045749Y0172793D01*
X0045899Y0172836D01*
X0046050Y0172875D01*
X0046202Y0172911D01*
X0046354Y0172942D01*
X0046508Y0172970D01*
X0046662Y0172994D01*
X0046816Y0173014D01*
X0046971Y0173030D01*
X0047127Y0173042D01*
X0047282Y0173050D01*
X0047438Y0173054D01*
X0047594Y0173054D01*
X0047750Y0173050D01*
X0047905Y0173042D01*
X0048061Y0173030D01*
X0048216Y0173014D01*
X0048370Y0172994D01*
X0048524Y0172970D01*
X0048678Y0172942D01*
X0048830Y0172911D01*
X0048982Y0172875D01*
X0049133Y0172836D01*
X0049283Y0172793D01*
X0049431Y0172746D01*
X0049579Y0172695D01*
X0049725Y0172640D01*
X0049869Y0172582D01*
X0050012Y0172520D01*
X0050154Y0172455D01*
X0050293Y0172385D01*
X0050431Y0172313D01*
X0050567Y0172236D01*
X0050701Y0172157D01*
X0050833Y0172074D01*
X0050963Y0171987D01*
X0051090Y0171898D01*
X0051215Y0171805D01*
X0051338Y0171709D01*
X0051458Y0171610D01*
X0051576Y0171507D01*
X0051691Y0171402D01*
X0051803Y0171294D01*
X0051913Y0171183D01*
X0052019Y0171070D01*
X0052123Y0170953D01*
X0052224Y0170834D01*
X0052321Y0170713D01*
X0052416Y0170589D01*
X0052507Y0170463D01*
X0052595Y0170334D01*
X0052680Y0170203D01*
X0052761Y0170070D01*
X0052839Y0169935D01*
X0052913Y0169798D01*
X0052984Y0169660D01*
X0053052Y0169519D01*
X0053116Y0169377D01*
X0053176Y0169233D01*
X0053232Y0169088D01*
X0053285Y0168941D01*
X0053334Y0168793D01*
X0053379Y0168644D01*
X0053420Y0168494D01*
X0053457Y0168342D01*
X0053491Y0168190D01*
X0053521Y0168037D01*
X0053546Y0167883D01*
X0053568Y0167729D01*
X0053586Y0167574D01*
X0053600Y0167419D01*
X0053610Y0167264D01*
X0053616Y0167108D01*
X0053618Y0166952D01*
X0053616Y0166796D01*
X0053610Y0166640D01*
X0053600Y0166485D01*
X0053586Y0166330D01*
X0053568Y0166175D01*
X0053546Y0166021D01*
X0053521Y0165867D01*
X0053491Y0165714D01*
X0053457Y0165562D01*
X0053420Y0165410D01*
X0053379Y0165260D01*
X0053334Y0165111D01*
X0053285Y0164963D01*
X0053232Y0164816D01*
X0053176Y0164671D01*
X0053116Y0164527D01*
X0053052Y0164385D01*
X0052984Y0164244D01*
X0052913Y0164106D01*
X0052839Y0163969D01*
X0052761Y0163834D01*
X0052680Y0163701D01*
X0052595Y0163570D01*
X0052507Y0163441D01*
X0052416Y0163315D01*
X0052321Y0163191D01*
X0052224Y0163070D01*
X0052123Y0162951D01*
X0052019Y0162834D01*
X0051913Y0162721D01*
X0051803Y0162610D01*
X0051691Y0162502D01*
X0051576Y0162397D01*
X0051458Y0162294D01*
X0051338Y0162195D01*
X0051215Y0162099D01*
X0051090Y0162006D01*
X0050963Y0161917D01*
X0050833Y0161830D01*
X0050701Y0161747D01*
X0050567Y0161668D01*
X0050431Y0161591D01*
X0050293Y0161519D01*
X0050154Y0161449D01*
X0050012Y0161384D01*
X0049869Y0161322D01*
X0049725Y0161264D01*
X0049579Y0161209D01*
X0049431Y0161158D01*
X0049283Y0161111D01*
X0049133Y0161068D01*
X0048982Y0161029D01*
X0048830Y0160993D01*
X0048678Y0160962D01*
X0048524Y0160934D01*
X0048370Y0160910D01*
X0048216Y0160890D01*
X0048061Y0160874D01*
X0047905Y0160862D01*
X0047750Y0160854D01*
X0047594Y0160850D01*
X0047438Y0160850D01*
X0047282Y0160854D01*
X0047127Y0160862D01*
X0046971Y0160874D01*
X0046816Y0160890D01*
X0046662Y0160910D01*
X0046508Y0160934D01*
X0046354Y0160962D01*
X0046202Y0160993D01*
X0046050Y0161029D01*
X0045899Y0161068D01*
X0045749Y0161111D01*
X0045601Y0161158D01*
X0045453Y0161209D01*
X0045307Y0161264D01*
X0045163Y0161322D01*
X0045020Y0161384D01*
X0044878Y0161449D01*
X0044739Y0161519D01*
X0044601Y0161591D01*
X0044465Y0161668D01*
X0044331Y0161747D01*
X0044199Y0161830D01*
X0044069Y0161917D01*
X0043942Y0162006D01*
X0043817Y0162099D01*
X0043694Y0162195D01*
X0043574Y0162294D01*
X0043456Y0162397D01*
X0043341Y0162502D01*
X0043229Y0162610D01*
X0043119Y0162721D01*
X0043013Y0162834D01*
X0042909Y0162951D01*
X0042808Y0163070D01*
X0042711Y0163191D01*
X0042616Y0163315D01*
X0042525Y0163441D01*
X0042437Y0163570D01*
X0042352Y0163701D01*
X0042271Y0163834D01*
X0042193Y0163969D01*
X0042119Y0164106D01*
X0042048Y0164244D01*
X0041980Y0164385D01*
X0041916Y0164527D01*
X0041856Y0164671D01*
X0041800Y0164816D01*
X0041747Y0164963D01*
X0041698Y0165111D01*
X0041653Y0165260D01*
X0041612Y0165410D01*
X0041575Y0165562D01*
X0041541Y0165714D01*
X0041511Y0165867D01*
X0041486Y0166021D01*
X0041464Y0166175D01*
X0041446Y0166330D01*
X0041432Y0166485D01*
X0041422Y0166640D01*
X0041416Y0166796D01*
X0041414Y0166952D01*
X0175386Y0185093D02*
X0175388Y0185249D01*
X0175394Y0185405D01*
X0175404Y0185560D01*
X0175418Y0185715D01*
X0175436Y0185870D01*
X0175458Y0186024D01*
X0175483Y0186178D01*
X0175513Y0186331D01*
X0175547Y0186483D01*
X0175584Y0186635D01*
X0175625Y0186785D01*
X0175670Y0186934D01*
X0175719Y0187082D01*
X0175772Y0187229D01*
X0175828Y0187374D01*
X0175888Y0187518D01*
X0175952Y0187660D01*
X0176020Y0187801D01*
X0176091Y0187939D01*
X0176165Y0188076D01*
X0176243Y0188211D01*
X0176324Y0188344D01*
X0176409Y0188475D01*
X0176497Y0188604D01*
X0176588Y0188730D01*
X0176683Y0188854D01*
X0176780Y0188975D01*
X0176881Y0189094D01*
X0176985Y0189211D01*
X0177091Y0189324D01*
X0177201Y0189435D01*
X0177313Y0189543D01*
X0177428Y0189648D01*
X0177546Y0189751D01*
X0177666Y0189850D01*
X0177789Y0189946D01*
X0177914Y0190039D01*
X0178041Y0190128D01*
X0178171Y0190215D01*
X0178303Y0190298D01*
X0178437Y0190377D01*
X0178573Y0190454D01*
X0178711Y0190526D01*
X0178850Y0190596D01*
X0178992Y0190661D01*
X0179135Y0190723D01*
X0179279Y0190781D01*
X0179425Y0190836D01*
X0179573Y0190887D01*
X0179721Y0190934D01*
X0179871Y0190977D01*
X0180022Y0191016D01*
X0180174Y0191052D01*
X0180326Y0191083D01*
X0180480Y0191111D01*
X0180634Y0191135D01*
X0180788Y0191155D01*
X0180943Y0191171D01*
X0181099Y0191183D01*
X0181254Y0191191D01*
X0181410Y0191195D01*
X0181566Y0191195D01*
X0181722Y0191191D01*
X0181877Y0191183D01*
X0182033Y0191171D01*
X0182188Y0191155D01*
X0182342Y0191135D01*
X0182496Y0191111D01*
X0182650Y0191083D01*
X0182802Y0191052D01*
X0182954Y0191016D01*
X0183105Y0190977D01*
X0183255Y0190934D01*
X0183403Y0190887D01*
X0183551Y0190836D01*
X0183697Y0190781D01*
X0183841Y0190723D01*
X0183984Y0190661D01*
X0184126Y0190596D01*
X0184265Y0190526D01*
X0184403Y0190454D01*
X0184539Y0190377D01*
X0184673Y0190298D01*
X0184805Y0190215D01*
X0184935Y0190128D01*
X0185062Y0190039D01*
X0185187Y0189946D01*
X0185310Y0189850D01*
X0185430Y0189751D01*
X0185548Y0189648D01*
X0185663Y0189543D01*
X0185775Y0189435D01*
X0185885Y0189324D01*
X0185991Y0189211D01*
X0186095Y0189094D01*
X0186196Y0188975D01*
X0186293Y0188854D01*
X0186388Y0188730D01*
X0186479Y0188604D01*
X0186567Y0188475D01*
X0186652Y0188344D01*
X0186733Y0188211D01*
X0186811Y0188076D01*
X0186885Y0187939D01*
X0186956Y0187801D01*
X0187024Y0187660D01*
X0187088Y0187518D01*
X0187148Y0187374D01*
X0187204Y0187229D01*
X0187257Y0187082D01*
X0187306Y0186934D01*
X0187351Y0186785D01*
X0187392Y0186635D01*
X0187429Y0186483D01*
X0187463Y0186331D01*
X0187493Y0186178D01*
X0187518Y0186024D01*
X0187540Y0185870D01*
X0187558Y0185715D01*
X0187572Y0185560D01*
X0187582Y0185405D01*
X0187588Y0185249D01*
X0187590Y0185093D01*
X0187588Y0184937D01*
X0187582Y0184781D01*
X0187572Y0184626D01*
X0187558Y0184471D01*
X0187540Y0184316D01*
X0187518Y0184162D01*
X0187493Y0184008D01*
X0187463Y0183855D01*
X0187429Y0183703D01*
X0187392Y0183551D01*
X0187351Y0183401D01*
X0187306Y0183252D01*
X0187257Y0183104D01*
X0187204Y0182957D01*
X0187148Y0182812D01*
X0187088Y0182668D01*
X0187024Y0182526D01*
X0186956Y0182385D01*
X0186885Y0182247D01*
X0186811Y0182110D01*
X0186733Y0181975D01*
X0186652Y0181842D01*
X0186567Y0181711D01*
X0186479Y0181582D01*
X0186388Y0181456D01*
X0186293Y0181332D01*
X0186196Y0181211D01*
X0186095Y0181092D01*
X0185991Y0180975D01*
X0185885Y0180862D01*
X0185775Y0180751D01*
X0185663Y0180643D01*
X0185548Y0180538D01*
X0185430Y0180435D01*
X0185310Y0180336D01*
X0185187Y0180240D01*
X0185062Y0180147D01*
X0184935Y0180058D01*
X0184805Y0179971D01*
X0184673Y0179888D01*
X0184539Y0179809D01*
X0184403Y0179732D01*
X0184265Y0179660D01*
X0184126Y0179590D01*
X0183984Y0179525D01*
X0183841Y0179463D01*
X0183697Y0179405D01*
X0183551Y0179350D01*
X0183403Y0179299D01*
X0183255Y0179252D01*
X0183105Y0179209D01*
X0182954Y0179170D01*
X0182802Y0179134D01*
X0182650Y0179103D01*
X0182496Y0179075D01*
X0182342Y0179051D01*
X0182188Y0179031D01*
X0182033Y0179015D01*
X0181877Y0179003D01*
X0181722Y0178995D01*
X0181566Y0178991D01*
X0181410Y0178991D01*
X0181254Y0178995D01*
X0181099Y0179003D01*
X0180943Y0179015D01*
X0180788Y0179031D01*
X0180634Y0179051D01*
X0180480Y0179075D01*
X0180326Y0179103D01*
X0180174Y0179134D01*
X0180022Y0179170D01*
X0179871Y0179209D01*
X0179721Y0179252D01*
X0179573Y0179299D01*
X0179425Y0179350D01*
X0179279Y0179405D01*
X0179135Y0179463D01*
X0178992Y0179525D01*
X0178850Y0179590D01*
X0178711Y0179660D01*
X0178573Y0179732D01*
X0178437Y0179809D01*
X0178303Y0179888D01*
X0178171Y0179971D01*
X0178041Y0180058D01*
X0177914Y0180147D01*
X0177789Y0180240D01*
X0177666Y0180336D01*
X0177546Y0180435D01*
X0177428Y0180538D01*
X0177313Y0180643D01*
X0177201Y0180751D01*
X0177091Y0180862D01*
X0176985Y0180975D01*
X0176881Y0181092D01*
X0176780Y0181211D01*
X0176683Y0181332D01*
X0176588Y0181456D01*
X0176497Y0181582D01*
X0176409Y0181711D01*
X0176324Y0181842D01*
X0176243Y0181975D01*
X0176165Y0182110D01*
X0176091Y0182247D01*
X0176020Y0182385D01*
X0175952Y0182526D01*
X0175888Y0182668D01*
X0175828Y0182812D01*
X0175772Y0182957D01*
X0175719Y0183104D01*
X0175670Y0183252D01*
X0175625Y0183401D01*
X0175584Y0183551D01*
X0175547Y0183703D01*
X0175513Y0183855D01*
X0175483Y0184008D01*
X0175458Y0184162D01*
X0175436Y0184316D01*
X0175418Y0184471D01*
X0175404Y0184626D01*
X0175394Y0184781D01*
X0175388Y0184937D01*
X0175386Y0185093D01*
X0174808Y0011246D02*
X0174810Y0011402D01*
X0174816Y0011558D01*
X0174826Y0011713D01*
X0174840Y0011868D01*
X0174858Y0012023D01*
X0174880Y0012177D01*
X0174905Y0012331D01*
X0174935Y0012484D01*
X0174969Y0012636D01*
X0175006Y0012788D01*
X0175047Y0012938D01*
X0175092Y0013087D01*
X0175141Y0013235D01*
X0175194Y0013382D01*
X0175250Y0013527D01*
X0175310Y0013671D01*
X0175374Y0013813D01*
X0175442Y0013954D01*
X0175513Y0014092D01*
X0175587Y0014229D01*
X0175665Y0014364D01*
X0175746Y0014497D01*
X0175831Y0014628D01*
X0175919Y0014757D01*
X0176010Y0014883D01*
X0176105Y0015007D01*
X0176202Y0015128D01*
X0176303Y0015247D01*
X0176407Y0015364D01*
X0176513Y0015477D01*
X0176623Y0015588D01*
X0176735Y0015696D01*
X0176850Y0015801D01*
X0176968Y0015904D01*
X0177088Y0016003D01*
X0177211Y0016099D01*
X0177336Y0016192D01*
X0177463Y0016281D01*
X0177593Y0016368D01*
X0177725Y0016451D01*
X0177859Y0016530D01*
X0177995Y0016607D01*
X0178133Y0016679D01*
X0178272Y0016749D01*
X0178414Y0016814D01*
X0178557Y0016876D01*
X0178701Y0016934D01*
X0178847Y0016989D01*
X0178995Y0017040D01*
X0179143Y0017087D01*
X0179293Y0017130D01*
X0179444Y0017169D01*
X0179596Y0017205D01*
X0179748Y0017236D01*
X0179902Y0017264D01*
X0180056Y0017288D01*
X0180210Y0017308D01*
X0180365Y0017324D01*
X0180521Y0017336D01*
X0180676Y0017344D01*
X0180832Y0017348D01*
X0180988Y0017348D01*
X0181144Y0017344D01*
X0181299Y0017336D01*
X0181455Y0017324D01*
X0181610Y0017308D01*
X0181764Y0017288D01*
X0181918Y0017264D01*
X0182072Y0017236D01*
X0182224Y0017205D01*
X0182376Y0017169D01*
X0182527Y0017130D01*
X0182677Y0017087D01*
X0182825Y0017040D01*
X0182973Y0016989D01*
X0183119Y0016934D01*
X0183263Y0016876D01*
X0183406Y0016814D01*
X0183548Y0016749D01*
X0183687Y0016679D01*
X0183825Y0016607D01*
X0183961Y0016530D01*
X0184095Y0016451D01*
X0184227Y0016368D01*
X0184357Y0016281D01*
X0184484Y0016192D01*
X0184609Y0016099D01*
X0184732Y0016003D01*
X0184852Y0015904D01*
X0184970Y0015801D01*
X0185085Y0015696D01*
X0185197Y0015588D01*
X0185307Y0015477D01*
X0185413Y0015364D01*
X0185517Y0015247D01*
X0185618Y0015128D01*
X0185715Y0015007D01*
X0185810Y0014883D01*
X0185901Y0014757D01*
X0185989Y0014628D01*
X0186074Y0014497D01*
X0186155Y0014364D01*
X0186233Y0014229D01*
X0186307Y0014092D01*
X0186378Y0013954D01*
X0186446Y0013813D01*
X0186510Y0013671D01*
X0186570Y0013527D01*
X0186626Y0013382D01*
X0186679Y0013235D01*
X0186728Y0013087D01*
X0186773Y0012938D01*
X0186814Y0012788D01*
X0186851Y0012636D01*
X0186885Y0012484D01*
X0186915Y0012331D01*
X0186940Y0012177D01*
X0186962Y0012023D01*
X0186980Y0011868D01*
X0186994Y0011713D01*
X0187004Y0011558D01*
X0187010Y0011402D01*
X0187012Y0011246D01*
X0187010Y0011090D01*
X0187004Y0010934D01*
X0186994Y0010779D01*
X0186980Y0010624D01*
X0186962Y0010469D01*
X0186940Y0010315D01*
X0186915Y0010161D01*
X0186885Y0010008D01*
X0186851Y0009856D01*
X0186814Y0009704D01*
X0186773Y0009554D01*
X0186728Y0009405D01*
X0186679Y0009257D01*
X0186626Y0009110D01*
X0186570Y0008965D01*
X0186510Y0008821D01*
X0186446Y0008679D01*
X0186378Y0008538D01*
X0186307Y0008400D01*
X0186233Y0008263D01*
X0186155Y0008128D01*
X0186074Y0007995D01*
X0185989Y0007864D01*
X0185901Y0007735D01*
X0185810Y0007609D01*
X0185715Y0007485D01*
X0185618Y0007364D01*
X0185517Y0007245D01*
X0185413Y0007128D01*
X0185307Y0007015D01*
X0185197Y0006904D01*
X0185085Y0006796D01*
X0184970Y0006691D01*
X0184852Y0006588D01*
X0184732Y0006489D01*
X0184609Y0006393D01*
X0184484Y0006300D01*
X0184357Y0006211D01*
X0184227Y0006124D01*
X0184095Y0006041D01*
X0183961Y0005962D01*
X0183825Y0005885D01*
X0183687Y0005813D01*
X0183548Y0005743D01*
X0183406Y0005678D01*
X0183263Y0005616D01*
X0183119Y0005558D01*
X0182973Y0005503D01*
X0182825Y0005452D01*
X0182677Y0005405D01*
X0182527Y0005362D01*
X0182376Y0005323D01*
X0182224Y0005287D01*
X0182072Y0005256D01*
X0181918Y0005228D01*
X0181764Y0005204D01*
X0181610Y0005184D01*
X0181455Y0005168D01*
X0181299Y0005156D01*
X0181144Y0005148D01*
X0180988Y0005144D01*
X0180832Y0005144D01*
X0180676Y0005148D01*
X0180521Y0005156D01*
X0180365Y0005168D01*
X0180210Y0005184D01*
X0180056Y0005204D01*
X0179902Y0005228D01*
X0179748Y0005256D01*
X0179596Y0005287D01*
X0179444Y0005323D01*
X0179293Y0005362D01*
X0179143Y0005405D01*
X0178995Y0005452D01*
X0178847Y0005503D01*
X0178701Y0005558D01*
X0178557Y0005616D01*
X0178414Y0005678D01*
X0178272Y0005743D01*
X0178133Y0005813D01*
X0177995Y0005885D01*
X0177859Y0005962D01*
X0177725Y0006041D01*
X0177593Y0006124D01*
X0177463Y0006211D01*
X0177336Y0006300D01*
X0177211Y0006393D01*
X0177088Y0006489D01*
X0176968Y0006588D01*
X0176850Y0006691D01*
X0176735Y0006796D01*
X0176623Y0006904D01*
X0176513Y0007015D01*
X0176407Y0007128D01*
X0176303Y0007245D01*
X0176202Y0007364D01*
X0176105Y0007485D01*
X0176010Y0007609D01*
X0175919Y0007735D01*
X0175831Y0007864D01*
X0175746Y0007995D01*
X0175665Y0008128D01*
X0175587Y0008263D01*
X0175513Y0008400D01*
X0175442Y0008538D01*
X0175374Y0008679D01*
X0175310Y0008821D01*
X0175250Y0008965D01*
X0175194Y0009110D01*
X0175141Y0009257D01*
X0175092Y0009405D01*
X0175047Y0009554D01*
X0175006Y0009704D01*
X0174969Y0009856D01*
X0174935Y0010008D01*
X0174905Y0010161D01*
X0174880Y0010315D01*
X0174858Y0010469D01*
X0174840Y0010624D01*
X0174826Y0010779D01*
X0174816Y0010934D01*
X0174810Y0011090D01*
X0174808Y0011246D01*
M02*
