G75*
%MOIN*%
%OFA0B0*%
%FSLAX25Y25*%
%IPPOS*%
%LPD*%
%AMOC8*
5,1,8,0,0,1.08239X$1,22.5*
%
%ADD10C,0.00000*%
%ADD11C,0.06000*%
%ADD12C,0.05800*%
%ADD13C,0.09370*%
%ADD14C,0.01600*%
D10*
X0006767Y0002139D02*
X0006829Y0193509D01*
X0189917Y0193413D01*
X0190175Y0002107D01*
X0006767Y0002139D01*
X0009099Y0010474D02*
X0009101Y0010630D01*
X0009107Y0010786D01*
X0009117Y0010941D01*
X0009131Y0011096D01*
X0009149Y0011251D01*
X0009171Y0011405D01*
X0009196Y0011559D01*
X0009226Y0011712D01*
X0009260Y0011864D01*
X0009297Y0012016D01*
X0009338Y0012166D01*
X0009383Y0012315D01*
X0009432Y0012463D01*
X0009485Y0012610D01*
X0009541Y0012755D01*
X0009601Y0012899D01*
X0009665Y0013041D01*
X0009733Y0013182D01*
X0009804Y0013320D01*
X0009878Y0013457D01*
X0009956Y0013592D01*
X0010037Y0013725D01*
X0010122Y0013856D01*
X0010210Y0013985D01*
X0010301Y0014111D01*
X0010396Y0014235D01*
X0010493Y0014356D01*
X0010594Y0014475D01*
X0010698Y0014592D01*
X0010804Y0014705D01*
X0010914Y0014816D01*
X0011026Y0014924D01*
X0011141Y0015029D01*
X0011259Y0015132D01*
X0011379Y0015231D01*
X0011502Y0015327D01*
X0011627Y0015420D01*
X0011754Y0015509D01*
X0011884Y0015596D01*
X0012016Y0015679D01*
X0012150Y0015758D01*
X0012286Y0015835D01*
X0012424Y0015907D01*
X0012563Y0015977D01*
X0012705Y0016042D01*
X0012848Y0016104D01*
X0012992Y0016162D01*
X0013138Y0016217D01*
X0013286Y0016268D01*
X0013434Y0016315D01*
X0013584Y0016358D01*
X0013735Y0016397D01*
X0013887Y0016433D01*
X0014039Y0016464D01*
X0014193Y0016492D01*
X0014347Y0016516D01*
X0014501Y0016536D01*
X0014656Y0016552D01*
X0014812Y0016564D01*
X0014967Y0016572D01*
X0015123Y0016576D01*
X0015279Y0016576D01*
X0015435Y0016572D01*
X0015590Y0016564D01*
X0015746Y0016552D01*
X0015901Y0016536D01*
X0016055Y0016516D01*
X0016209Y0016492D01*
X0016363Y0016464D01*
X0016515Y0016433D01*
X0016667Y0016397D01*
X0016818Y0016358D01*
X0016968Y0016315D01*
X0017116Y0016268D01*
X0017264Y0016217D01*
X0017410Y0016162D01*
X0017554Y0016104D01*
X0017697Y0016042D01*
X0017839Y0015977D01*
X0017978Y0015907D01*
X0018116Y0015835D01*
X0018252Y0015758D01*
X0018386Y0015679D01*
X0018518Y0015596D01*
X0018648Y0015509D01*
X0018775Y0015420D01*
X0018900Y0015327D01*
X0019023Y0015231D01*
X0019143Y0015132D01*
X0019261Y0015029D01*
X0019376Y0014924D01*
X0019488Y0014816D01*
X0019598Y0014705D01*
X0019704Y0014592D01*
X0019808Y0014475D01*
X0019909Y0014356D01*
X0020006Y0014235D01*
X0020101Y0014111D01*
X0020192Y0013985D01*
X0020280Y0013856D01*
X0020365Y0013725D01*
X0020446Y0013592D01*
X0020524Y0013457D01*
X0020598Y0013320D01*
X0020669Y0013182D01*
X0020737Y0013041D01*
X0020801Y0012899D01*
X0020861Y0012755D01*
X0020917Y0012610D01*
X0020970Y0012463D01*
X0021019Y0012315D01*
X0021064Y0012166D01*
X0021105Y0012016D01*
X0021142Y0011864D01*
X0021176Y0011712D01*
X0021206Y0011559D01*
X0021231Y0011405D01*
X0021253Y0011251D01*
X0021271Y0011096D01*
X0021285Y0010941D01*
X0021295Y0010786D01*
X0021301Y0010630D01*
X0021303Y0010474D01*
X0021301Y0010318D01*
X0021295Y0010162D01*
X0021285Y0010007D01*
X0021271Y0009852D01*
X0021253Y0009697D01*
X0021231Y0009543D01*
X0021206Y0009389D01*
X0021176Y0009236D01*
X0021142Y0009084D01*
X0021105Y0008932D01*
X0021064Y0008782D01*
X0021019Y0008633D01*
X0020970Y0008485D01*
X0020917Y0008338D01*
X0020861Y0008193D01*
X0020801Y0008049D01*
X0020737Y0007907D01*
X0020669Y0007766D01*
X0020598Y0007628D01*
X0020524Y0007491D01*
X0020446Y0007356D01*
X0020365Y0007223D01*
X0020280Y0007092D01*
X0020192Y0006963D01*
X0020101Y0006837D01*
X0020006Y0006713D01*
X0019909Y0006592D01*
X0019808Y0006473D01*
X0019704Y0006356D01*
X0019598Y0006243D01*
X0019488Y0006132D01*
X0019376Y0006024D01*
X0019261Y0005919D01*
X0019143Y0005816D01*
X0019023Y0005717D01*
X0018900Y0005621D01*
X0018775Y0005528D01*
X0018648Y0005439D01*
X0018518Y0005352D01*
X0018386Y0005269D01*
X0018252Y0005190D01*
X0018116Y0005113D01*
X0017978Y0005041D01*
X0017839Y0004971D01*
X0017697Y0004906D01*
X0017554Y0004844D01*
X0017410Y0004786D01*
X0017264Y0004731D01*
X0017116Y0004680D01*
X0016968Y0004633D01*
X0016818Y0004590D01*
X0016667Y0004551D01*
X0016515Y0004515D01*
X0016363Y0004484D01*
X0016209Y0004456D01*
X0016055Y0004432D01*
X0015901Y0004412D01*
X0015746Y0004396D01*
X0015590Y0004384D01*
X0015435Y0004376D01*
X0015279Y0004372D01*
X0015123Y0004372D01*
X0014967Y0004376D01*
X0014812Y0004384D01*
X0014656Y0004396D01*
X0014501Y0004412D01*
X0014347Y0004432D01*
X0014193Y0004456D01*
X0014039Y0004484D01*
X0013887Y0004515D01*
X0013735Y0004551D01*
X0013584Y0004590D01*
X0013434Y0004633D01*
X0013286Y0004680D01*
X0013138Y0004731D01*
X0012992Y0004786D01*
X0012848Y0004844D01*
X0012705Y0004906D01*
X0012563Y0004971D01*
X0012424Y0005041D01*
X0012286Y0005113D01*
X0012150Y0005190D01*
X0012016Y0005269D01*
X0011884Y0005352D01*
X0011754Y0005439D01*
X0011627Y0005528D01*
X0011502Y0005621D01*
X0011379Y0005717D01*
X0011259Y0005816D01*
X0011141Y0005919D01*
X0011026Y0006024D01*
X0010914Y0006132D01*
X0010804Y0006243D01*
X0010698Y0006356D01*
X0010594Y0006473D01*
X0010493Y0006592D01*
X0010396Y0006713D01*
X0010301Y0006837D01*
X0010210Y0006963D01*
X0010122Y0007092D01*
X0010037Y0007223D01*
X0009956Y0007356D01*
X0009878Y0007491D01*
X0009804Y0007628D01*
X0009733Y0007766D01*
X0009665Y0007907D01*
X0009601Y0008049D01*
X0009541Y0008193D01*
X0009485Y0008338D01*
X0009432Y0008485D01*
X0009383Y0008633D01*
X0009338Y0008782D01*
X0009297Y0008932D01*
X0009260Y0009084D01*
X0009226Y0009236D01*
X0009196Y0009389D01*
X0009171Y0009543D01*
X0009149Y0009697D01*
X0009131Y0009852D01*
X0009117Y0010007D01*
X0009107Y0010162D01*
X0009101Y0010318D01*
X0009099Y0010474D01*
X0041414Y0166952D02*
X0041416Y0167108D01*
X0041422Y0167264D01*
X0041432Y0167419D01*
X0041446Y0167574D01*
X0041464Y0167729D01*
X0041486Y0167883D01*
X0041511Y0168037D01*
X0041541Y0168190D01*
X0041575Y0168342D01*
X0041612Y0168494D01*
X0041653Y0168644D01*
X0041698Y0168793D01*
X0041747Y0168941D01*
X0041800Y0169088D01*
X0041856Y0169233D01*
X0041916Y0169377D01*
X0041980Y0169519D01*
X0042048Y0169660D01*
X0042119Y0169798D01*
X0042193Y0169935D01*
X0042271Y0170070D01*
X0042352Y0170203D01*
X0042437Y0170334D01*
X0042525Y0170463D01*
X0042616Y0170589D01*
X0042711Y0170713D01*
X0042808Y0170834D01*
X0042909Y0170953D01*
X0043013Y0171070D01*
X0043119Y0171183D01*
X0043229Y0171294D01*
X0043341Y0171402D01*
X0043456Y0171507D01*
X0043574Y0171610D01*
X0043694Y0171709D01*
X0043817Y0171805D01*
X0043942Y0171898D01*
X0044069Y0171987D01*
X0044199Y0172074D01*
X0044331Y0172157D01*
X0044465Y0172236D01*
X0044601Y0172313D01*
X0044739Y0172385D01*
X0044878Y0172455D01*
X0045020Y0172520D01*
X0045163Y0172582D01*
X0045307Y0172640D01*
X0045453Y0172695D01*
X0045601Y0172746D01*
X0045749Y0172793D01*
X0045899Y0172836D01*
X0046050Y0172875D01*
X0046202Y0172911D01*
X0046354Y0172942D01*
X0046508Y0172970D01*
X0046662Y0172994D01*
X0046816Y0173014D01*
X0046971Y0173030D01*
X0047127Y0173042D01*
X0047282Y0173050D01*
X0047438Y0173054D01*
X0047594Y0173054D01*
X0047750Y0173050D01*
X0047905Y0173042D01*
X0048061Y0173030D01*
X0048216Y0173014D01*
X0048370Y0172994D01*
X0048524Y0172970D01*
X0048678Y0172942D01*
X0048830Y0172911D01*
X0048982Y0172875D01*
X0049133Y0172836D01*
X0049283Y0172793D01*
X0049431Y0172746D01*
X0049579Y0172695D01*
X0049725Y0172640D01*
X0049869Y0172582D01*
X0050012Y0172520D01*
X0050154Y0172455D01*
X0050293Y0172385D01*
X0050431Y0172313D01*
X0050567Y0172236D01*
X0050701Y0172157D01*
X0050833Y0172074D01*
X0050963Y0171987D01*
X0051090Y0171898D01*
X0051215Y0171805D01*
X0051338Y0171709D01*
X0051458Y0171610D01*
X0051576Y0171507D01*
X0051691Y0171402D01*
X0051803Y0171294D01*
X0051913Y0171183D01*
X0052019Y0171070D01*
X0052123Y0170953D01*
X0052224Y0170834D01*
X0052321Y0170713D01*
X0052416Y0170589D01*
X0052507Y0170463D01*
X0052595Y0170334D01*
X0052680Y0170203D01*
X0052761Y0170070D01*
X0052839Y0169935D01*
X0052913Y0169798D01*
X0052984Y0169660D01*
X0053052Y0169519D01*
X0053116Y0169377D01*
X0053176Y0169233D01*
X0053232Y0169088D01*
X0053285Y0168941D01*
X0053334Y0168793D01*
X0053379Y0168644D01*
X0053420Y0168494D01*
X0053457Y0168342D01*
X0053491Y0168190D01*
X0053521Y0168037D01*
X0053546Y0167883D01*
X0053568Y0167729D01*
X0053586Y0167574D01*
X0053600Y0167419D01*
X0053610Y0167264D01*
X0053616Y0167108D01*
X0053618Y0166952D01*
X0053616Y0166796D01*
X0053610Y0166640D01*
X0053600Y0166485D01*
X0053586Y0166330D01*
X0053568Y0166175D01*
X0053546Y0166021D01*
X0053521Y0165867D01*
X0053491Y0165714D01*
X0053457Y0165562D01*
X0053420Y0165410D01*
X0053379Y0165260D01*
X0053334Y0165111D01*
X0053285Y0164963D01*
X0053232Y0164816D01*
X0053176Y0164671D01*
X0053116Y0164527D01*
X0053052Y0164385D01*
X0052984Y0164244D01*
X0052913Y0164106D01*
X0052839Y0163969D01*
X0052761Y0163834D01*
X0052680Y0163701D01*
X0052595Y0163570D01*
X0052507Y0163441D01*
X0052416Y0163315D01*
X0052321Y0163191D01*
X0052224Y0163070D01*
X0052123Y0162951D01*
X0052019Y0162834D01*
X0051913Y0162721D01*
X0051803Y0162610D01*
X0051691Y0162502D01*
X0051576Y0162397D01*
X0051458Y0162294D01*
X0051338Y0162195D01*
X0051215Y0162099D01*
X0051090Y0162006D01*
X0050963Y0161917D01*
X0050833Y0161830D01*
X0050701Y0161747D01*
X0050567Y0161668D01*
X0050431Y0161591D01*
X0050293Y0161519D01*
X0050154Y0161449D01*
X0050012Y0161384D01*
X0049869Y0161322D01*
X0049725Y0161264D01*
X0049579Y0161209D01*
X0049431Y0161158D01*
X0049283Y0161111D01*
X0049133Y0161068D01*
X0048982Y0161029D01*
X0048830Y0160993D01*
X0048678Y0160962D01*
X0048524Y0160934D01*
X0048370Y0160910D01*
X0048216Y0160890D01*
X0048061Y0160874D01*
X0047905Y0160862D01*
X0047750Y0160854D01*
X0047594Y0160850D01*
X0047438Y0160850D01*
X0047282Y0160854D01*
X0047127Y0160862D01*
X0046971Y0160874D01*
X0046816Y0160890D01*
X0046662Y0160910D01*
X0046508Y0160934D01*
X0046354Y0160962D01*
X0046202Y0160993D01*
X0046050Y0161029D01*
X0045899Y0161068D01*
X0045749Y0161111D01*
X0045601Y0161158D01*
X0045453Y0161209D01*
X0045307Y0161264D01*
X0045163Y0161322D01*
X0045020Y0161384D01*
X0044878Y0161449D01*
X0044739Y0161519D01*
X0044601Y0161591D01*
X0044465Y0161668D01*
X0044331Y0161747D01*
X0044199Y0161830D01*
X0044069Y0161917D01*
X0043942Y0162006D01*
X0043817Y0162099D01*
X0043694Y0162195D01*
X0043574Y0162294D01*
X0043456Y0162397D01*
X0043341Y0162502D01*
X0043229Y0162610D01*
X0043119Y0162721D01*
X0043013Y0162834D01*
X0042909Y0162951D01*
X0042808Y0163070D01*
X0042711Y0163191D01*
X0042616Y0163315D01*
X0042525Y0163441D01*
X0042437Y0163570D01*
X0042352Y0163701D01*
X0042271Y0163834D01*
X0042193Y0163969D01*
X0042119Y0164106D01*
X0042048Y0164244D01*
X0041980Y0164385D01*
X0041916Y0164527D01*
X0041856Y0164671D01*
X0041800Y0164816D01*
X0041747Y0164963D01*
X0041698Y0165111D01*
X0041653Y0165260D01*
X0041612Y0165410D01*
X0041575Y0165562D01*
X0041541Y0165714D01*
X0041511Y0165867D01*
X0041486Y0166021D01*
X0041464Y0166175D01*
X0041446Y0166330D01*
X0041432Y0166485D01*
X0041422Y0166640D01*
X0041416Y0166796D01*
X0041414Y0166952D01*
X0175386Y0185093D02*
X0175388Y0185249D01*
X0175394Y0185405D01*
X0175404Y0185560D01*
X0175418Y0185715D01*
X0175436Y0185870D01*
X0175458Y0186024D01*
X0175483Y0186178D01*
X0175513Y0186331D01*
X0175547Y0186483D01*
X0175584Y0186635D01*
X0175625Y0186785D01*
X0175670Y0186934D01*
X0175719Y0187082D01*
X0175772Y0187229D01*
X0175828Y0187374D01*
X0175888Y0187518D01*
X0175952Y0187660D01*
X0176020Y0187801D01*
X0176091Y0187939D01*
X0176165Y0188076D01*
X0176243Y0188211D01*
X0176324Y0188344D01*
X0176409Y0188475D01*
X0176497Y0188604D01*
X0176588Y0188730D01*
X0176683Y0188854D01*
X0176780Y0188975D01*
X0176881Y0189094D01*
X0176985Y0189211D01*
X0177091Y0189324D01*
X0177201Y0189435D01*
X0177313Y0189543D01*
X0177428Y0189648D01*
X0177546Y0189751D01*
X0177666Y0189850D01*
X0177789Y0189946D01*
X0177914Y0190039D01*
X0178041Y0190128D01*
X0178171Y0190215D01*
X0178303Y0190298D01*
X0178437Y0190377D01*
X0178573Y0190454D01*
X0178711Y0190526D01*
X0178850Y0190596D01*
X0178992Y0190661D01*
X0179135Y0190723D01*
X0179279Y0190781D01*
X0179425Y0190836D01*
X0179573Y0190887D01*
X0179721Y0190934D01*
X0179871Y0190977D01*
X0180022Y0191016D01*
X0180174Y0191052D01*
X0180326Y0191083D01*
X0180480Y0191111D01*
X0180634Y0191135D01*
X0180788Y0191155D01*
X0180943Y0191171D01*
X0181099Y0191183D01*
X0181254Y0191191D01*
X0181410Y0191195D01*
X0181566Y0191195D01*
X0181722Y0191191D01*
X0181877Y0191183D01*
X0182033Y0191171D01*
X0182188Y0191155D01*
X0182342Y0191135D01*
X0182496Y0191111D01*
X0182650Y0191083D01*
X0182802Y0191052D01*
X0182954Y0191016D01*
X0183105Y0190977D01*
X0183255Y0190934D01*
X0183403Y0190887D01*
X0183551Y0190836D01*
X0183697Y0190781D01*
X0183841Y0190723D01*
X0183984Y0190661D01*
X0184126Y0190596D01*
X0184265Y0190526D01*
X0184403Y0190454D01*
X0184539Y0190377D01*
X0184673Y0190298D01*
X0184805Y0190215D01*
X0184935Y0190128D01*
X0185062Y0190039D01*
X0185187Y0189946D01*
X0185310Y0189850D01*
X0185430Y0189751D01*
X0185548Y0189648D01*
X0185663Y0189543D01*
X0185775Y0189435D01*
X0185885Y0189324D01*
X0185991Y0189211D01*
X0186095Y0189094D01*
X0186196Y0188975D01*
X0186293Y0188854D01*
X0186388Y0188730D01*
X0186479Y0188604D01*
X0186567Y0188475D01*
X0186652Y0188344D01*
X0186733Y0188211D01*
X0186811Y0188076D01*
X0186885Y0187939D01*
X0186956Y0187801D01*
X0187024Y0187660D01*
X0187088Y0187518D01*
X0187148Y0187374D01*
X0187204Y0187229D01*
X0187257Y0187082D01*
X0187306Y0186934D01*
X0187351Y0186785D01*
X0187392Y0186635D01*
X0187429Y0186483D01*
X0187463Y0186331D01*
X0187493Y0186178D01*
X0187518Y0186024D01*
X0187540Y0185870D01*
X0187558Y0185715D01*
X0187572Y0185560D01*
X0187582Y0185405D01*
X0187588Y0185249D01*
X0187590Y0185093D01*
X0187588Y0184937D01*
X0187582Y0184781D01*
X0187572Y0184626D01*
X0187558Y0184471D01*
X0187540Y0184316D01*
X0187518Y0184162D01*
X0187493Y0184008D01*
X0187463Y0183855D01*
X0187429Y0183703D01*
X0187392Y0183551D01*
X0187351Y0183401D01*
X0187306Y0183252D01*
X0187257Y0183104D01*
X0187204Y0182957D01*
X0187148Y0182812D01*
X0187088Y0182668D01*
X0187024Y0182526D01*
X0186956Y0182385D01*
X0186885Y0182247D01*
X0186811Y0182110D01*
X0186733Y0181975D01*
X0186652Y0181842D01*
X0186567Y0181711D01*
X0186479Y0181582D01*
X0186388Y0181456D01*
X0186293Y0181332D01*
X0186196Y0181211D01*
X0186095Y0181092D01*
X0185991Y0180975D01*
X0185885Y0180862D01*
X0185775Y0180751D01*
X0185663Y0180643D01*
X0185548Y0180538D01*
X0185430Y0180435D01*
X0185310Y0180336D01*
X0185187Y0180240D01*
X0185062Y0180147D01*
X0184935Y0180058D01*
X0184805Y0179971D01*
X0184673Y0179888D01*
X0184539Y0179809D01*
X0184403Y0179732D01*
X0184265Y0179660D01*
X0184126Y0179590D01*
X0183984Y0179525D01*
X0183841Y0179463D01*
X0183697Y0179405D01*
X0183551Y0179350D01*
X0183403Y0179299D01*
X0183255Y0179252D01*
X0183105Y0179209D01*
X0182954Y0179170D01*
X0182802Y0179134D01*
X0182650Y0179103D01*
X0182496Y0179075D01*
X0182342Y0179051D01*
X0182188Y0179031D01*
X0182033Y0179015D01*
X0181877Y0179003D01*
X0181722Y0178995D01*
X0181566Y0178991D01*
X0181410Y0178991D01*
X0181254Y0178995D01*
X0181099Y0179003D01*
X0180943Y0179015D01*
X0180788Y0179031D01*
X0180634Y0179051D01*
X0180480Y0179075D01*
X0180326Y0179103D01*
X0180174Y0179134D01*
X0180022Y0179170D01*
X0179871Y0179209D01*
X0179721Y0179252D01*
X0179573Y0179299D01*
X0179425Y0179350D01*
X0179279Y0179405D01*
X0179135Y0179463D01*
X0178992Y0179525D01*
X0178850Y0179590D01*
X0178711Y0179660D01*
X0178573Y0179732D01*
X0178437Y0179809D01*
X0178303Y0179888D01*
X0178171Y0179971D01*
X0178041Y0180058D01*
X0177914Y0180147D01*
X0177789Y0180240D01*
X0177666Y0180336D01*
X0177546Y0180435D01*
X0177428Y0180538D01*
X0177313Y0180643D01*
X0177201Y0180751D01*
X0177091Y0180862D01*
X0176985Y0180975D01*
X0176881Y0181092D01*
X0176780Y0181211D01*
X0176683Y0181332D01*
X0176588Y0181456D01*
X0176497Y0181582D01*
X0176409Y0181711D01*
X0176324Y0181842D01*
X0176243Y0181975D01*
X0176165Y0182110D01*
X0176091Y0182247D01*
X0176020Y0182385D01*
X0175952Y0182526D01*
X0175888Y0182668D01*
X0175828Y0182812D01*
X0175772Y0182957D01*
X0175719Y0183104D01*
X0175670Y0183252D01*
X0175625Y0183401D01*
X0175584Y0183551D01*
X0175547Y0183703D01*
X0175513Y0183855D01*
X0175483Y0184008D01*
X0175458Y0184162D01*
X0175436Y0184316D01*
X0175418Y0184471D01*
X0175404Y0184626D01*
X0175394Y0184781D01*
X0175388Y0184937D01*
X0175386Y0185093D01*
X0174808Y0011246D02*
X0174810Y0011402D01*
X0174816Y0011558D01*
X0174826Y0011713D01*
X0174840Y0011868D01*
X0174858Y0012023D01*
X0174880Y0012177D01*
X0174905Y0012331D01*
X0174935Y0012484D01*
X0174969Y0012636D01*
X0175006Y0012788D01*
X0175047Y0012938D01*
X0175092Y0013087D01*
X0175141Y0013235D01*
X0175194Y0013382D01*
X0175250Y0013527D01*
X0175310Y0013671D01*
X0175374Y0013813D01*
X0175442Y0013954D01*
X0175513Y0014092D01*
X0175587Y0014229D01*
X0175665Y0014364D01*
X0175746Y0014497D01*
X0175831Y0014628D01*
X0175919Y0014757D01*
X0176010Y0014883D01*
X0176105Y0015007D01*
X0176202Y0015128D01*
X0176303Y0015247D01*
X0176407Y0015364D01*
X0176513Y0015477D01*
X0176623Y0015588D01*
X0176735Y0015696D01*
X0176850Y0015801D01*
X0176968Y0015904D01*
X0177088Y0016003D01*
X0177211Y0016099D01*
X0177336Y0016192D01*
X0177463Y0016281D01*
X0177593Y0016368D01*
X0177725Y0016451D01*
X0177859Y0016530D01*
X0177995Y0016607D01*
X0178133Y0016679D01*
X0178272Y0016749D01*
X0178414Y0016814D01*
X0178557Y0016876D01*
X0178701Y0016934D01*
X0178847Y0016989D01*
X0178995Y0017040D01*
X0179143Y0017087D01*
X0179293Y0017130D01*
X0179444Y0017169D01*
X0179596Y0017205D01*
X0179748Y0017236D01*
X0179902Y0017264D01*
X0180056Y0017288D01*
X0180210Y0017308D01*
X0180365Y0017324D01*
X0180521Y0017336D01*
X0180676Y0017344D01*
X0180832Y0017348D01*
X0180988Y0017348D01*
X0181144Y0017344D01*
X0181299Y0017336D01*
X0181455Y0017324D01*
X0181610Y0017308D01*
X0181764Y0017288D01*
X0181918Y0017264D01*
X0182072Y0017236D01*
X0182224Y0017205D01*
X0182376Y0017169D01*
X0182527Y0017130D01*
X0182677Y0017087D01*
X0182825Y0017040D01*
X0182973Y0016989D01*
X0183119Y0016934D01*
X0183263Y0016876D01*
X0183406Y0016814D01*
X0183548Y0016749D01*
X0183687Y0016679D01*
X0183825Y0016607D01*
X0183961Y0016530D01*
X0184095Y0016451D01*
X0184227Y0016368D01*
X0184357Y0016281D01*
X0184484Y0016192D01*
X0184609Y0016099D01*
X0184732Y0016003D01*
X0184852Y0015904D01*
X0184970Y0015801D01*
X0185085Y0015696D01*
X0185197Y0015588D01*
X0185307Y0015477D01*
X0185413Y0015364D01*
X0185517Y0015247D01*
X0185618Y0015128D01*
X0185715Y0015007D01*
X0185810Y0014883D01*
X0185901Y0014757D01*
X0185989Y0014628D01*
X0186074Y0014497D01*
X0186155Y0014364D01*
X0186233Y0014229D01*
X0186307Y0014092D01*
X0186378Y0013954D01*
X0186446Y0013813D01*
X0186510Y0013671D01*
X0186570Y0013527D01*
X0186626Y0013382D01*
X0186679Y0013235D01*
X0186728Y0013087D01*
X0186773Y0012938D01*
X0186814Y0012788D01*
X0186851Y0012636D01*
X0186885Y0012484D01*
X0186915Y0012331D01*
X0186940Y0012177D01*
X0186962Y0012023D01*
X0186980Y0011868D01*
X0186994Y0011713D01*
X0187004Y0011558D01*
X0187010Y0011402D01*
X0187012Y0011246D01*
X0187010Y0011090D01*
X0187004Y0010934D01*
X0186994Y0010779D01*
X0186980Y0010624D01*
X0186962Y0010469D01*
X0186940Y0010315D01*
X0186915Y0010161D01*
X0186885Y0010008D01*
X0186851Y0009856D01*
X0186814Y0009704D01*
X0186773Y0009554D01*
X0186728Y0009405D01*
X0186679Y0009257D01*
X0186626Y0009110D01*
X0186570Y0008965D01*
X0186510Y0008821D01*
X0186446Y0008679D01*
X0186378Y0008538D01*
X0186307Y0008400D01*
X0186233Y0008263D01*
X0186155Y0008128D01*
X0186074Y0007995D01*
X0185989Y0007864D01*
X0185901Y0007735D01*
X0185810Y0007609D01*
X0185715Y0007485D01*
X0185618Y0007364D01*
X0185517Y0007245D01*
X0185413Y0007128D01*
X0185307Y0007015D01*
X0185197Y0006904D01*
X0185085Y0006796D01*
X0184970Y0006691D01*
X0184852Y0006588D01*
X0184732Y0006489D01*
X0184609Y0006393D01*
X0184484Y0006300D01*
X0184357Y0006211D01*
X0184227Y0006124D01*
X0184095Y0006041D01*
X0183961Y0005962D01*
X0183825Y0005885D01*
X0183687Y0005813D01*
X0183548Y0005743D01*
X0183406Y0005678D01*
X0183263Y0005616D01*
X0183119Y0005558D01*
X0182973Y0005503D01*
X0182825Y0005452D01*
X0182677Y0005405D01*
X0182527Y0005362D01*
X0182376Y0005323D01*
X0182224Y0005287D01*
X0182072Y0005256D01*
X0181918Y0005228D01*
X0181764Y0005204D01*
X0181610Y0005184D01*
X0181455Y0005168D01*
X0181299Y0005156D01*
X0181144Y0005148D01*
X0180988Y0005144D01*
X0180832Y0005144D01*
X0180676Y0005148D01*
X0180521Y0005156D01*
X0180365Y0005168D01*
X0180210Y0005184D01*
X0180056Y0005204D01*
X0179902Y0005228D01*
X0179748Y0005256D01*
X0179596Y0005287D01*
X0179444Y0005323D01*
X0179293Y0005362D01*
X0179143Y0005405D01*
X0178995Y0005452D01*
X0178847Y0005503D01*
X0178701Y0005558D01*
X0178557Y0005616D01*
X0178414Y0005678D01*
X0178272Y0005743D01*
X0178133Y0005813D01*
X0177995Y0005885D01*
X0177859Y0005962D01*
X0177725Y0006041D01*
X0177593Y0006124D01*
X0177463Y0006211D01*
X0177336Y0006300D01*
X0177211Y0006393D01*
X0177088Y0006489D01*
X0176968Y0006588D01*
X0176850Y0006691D01*
X0176735Y0006796D01*
X0176623Y0006904D01*
X0176513Y0007015D01*
X0176407Y0007128D01*
X0176303Y0007245D01*
X0176202Y0007364D01*
X0176105Y0007485D01*
X0176010Y0007609D01*
X0175919Y0007735D01*
X0175831Y0007864D01*
X0175746Y0007995D01*
X0175665Y0008128D01*
X0175587Y0008263D01*
X0175513Y0008400D01*
X0175442Y0008538D01*
X0175374Y0008679D01*
X0175310Y0008821D01*
X0175250Y0008965D01*
X0175194Y0009110D01*
X0175141Y0009257D01*
X0175092Y0009405D01*
X0175047Y0009554D01*
X0175006Y0009704D01*
X0174969Y0009856D01*
X0174935Y0010008D01*
X0174905Y0010161D01*
X0174880Y0010315D01*
X0174858Y0010469D01*
X0174840Y0010624D01*
X0174826Y0010779D01*
X0174816Y0010934D01*
X0174810Y0011090D01*
X0174808Y0011246D01*
D11*
X0174195Y0034046D02*
X0174195Y0040046D01*
X0164195Y0040046D02*
X0164195Y0034046D01*
X0154195Y0034046D02*
X0154195Y0040046D01*
X0144195Y0040046D02*
X0144195Y0034046D01*
X0144214Y0064130D02*
X0144214Y0070130D01*
X0154214Y0070130D02*
X0154214Y0064130D01*
X0164214Y0064130D02*
X0164214Y0070130D01*
X0174214Y0070130D02*
X0174214Y0064130D01*
X0184214Y0064130D02*
X0184214Y0070130D01*
X0184167Y0092596D02*
X0184167Y0098596D01*
X0174167Y0098596D02*
X0174167Y0092596D01*
X0164167Y0092596D02*
X0164167Y0098596D01*
X0154167Y0098596D02*
X0154167Y0092596D01*
X0154263Y0124608D02*
X0154263Y0130608D01*
X0164263Y0130608D02*
X0164263Y0124608D01*
X0174263Y0124608D02*
X0174263Y0130608D01*
X0184263Y0130608D02*
X0184263Y0124608D01*
X0133128Y0147777D02*
X0133128Y0153777D01*
X0123128Y0153777D02*
X0123128Y0147777D01*
X0113128Y0147777D02*
X0113128Y0153777D01*
X0103128Y0153777D02*
X0103128Y0147777D01*
X0093128Y0147777D02*
X0093128Y0153777D01*
X0083128Y0153777D02*
X0083128Y0147777D01*
X0073128Y0147777D02*
X0073128Y0153777D01*
X0063128Y0153777D02*
X0063128Y0147777D01*
X0042657Y0130740D02*
X0042657Y0124740D01*
X0032657Y0124740D02*
X0032657Y0130740D01*
X0022657Y0130740D02*
X0022657Y0124740D01*
X0012657Y0124740D02*
X0012657Y0130740D01*
X0012427Y0099894D02*
X0012427Y0093894D01*
X0022427Y0093894D02*
X0022427Y0099894D01*
X0032427Y0099894D02*
X0032427Y0093894D01*
X0042427Y0093894D02*
X0042427Y0099894D01*
X0042659Y0070145D02*
X0042659Y0064145D01*
X0052659Y0064145D02*
X0052659Y0070145D01*
X0032659Y0070145D02*
X0032659Y0064145D01*
X0022659Y0064145D02*
X0022659Y0070145D01*
X0012659Y0070145D02*
X0012659Y0064145D01*
X0012639Y0040629D02*
X0012639Y0034629D01*
X0022639Y0034629D02*
X0022639Y0040629D01*
X0032639Y0040629D02*
X0032639Y0034629D01*
X0042639Y0034629D02*
X0042639Y0040629D01*
X0052639Y0040629D02*
X0052639Y0034629D01*
X0184195Y0034046D02*
X0184195Y0040046D01*
D12*
X0129015Y0037753D03*
X0129015Y0027753D03*
X0129015Y0017753D03*
X0129015Y0007753D03*
X0129015Y0047753D03*
X0129015Y0057753D03*
X0129015Y0067753D03*
X0129015Y0077753D03*
X0129015Y0087753D03*
X0129015Y0097753D03*
X0129015Y0107753D03*
X0129015Y0117753D03*
X0129015Y0127753D03*
X0129015Y0137753D03*
X0069015Y0137753D03*
X0069015Y0127753D03*
X0069015Y0117753D03*
X0069015Y0107753D03*
X0069015Y0097753D03*
X0069015Y0087753D03*
X0069015Y0077753D03*
X0069015Y0067753D03*
X0069015Y0057753D03*
X0069015Y0047753D03*
X0069015Y0037753D03*
X0069015Y0027753D03*
X0069015Y0017753D03*
X0069015Y0007753D03*
D13*
X0026583Y0157798D02*
X0017213Y0157798D01*
X0017213Y0177483D02*
X0026583Y0177483D01*
D14*
X0030143Y0172155D02*
X0031911Y0173923D01*
X0032868Y0176233D01*
X0032868Y0178733D01*
X0031911Y0181043D01*
X0030143Y0182811D01*
X0027833Y0183768D01*
X0015962Y0183768D01*
X0013652Y0182811D01*
X0011884Y0181043D01*
X0011625Y0180416D01*
X0011627Y0188706D01*
X0171147Y0188623D01*
X0170586Y0186528D01*
X0170586Y0183658D01*
X0171329Y0180885D01*
X0172764Y0178399D01*
X0174794Y0176369D01*
X0177280Y0174934D01*
X0180053Y0174191D01*
X0182924Y0174191D01*
X0185142Y0174785D01*
X0185195Y0135201D01*
X0185178Y0135208D01*
X0183348Y0135208D01*
X0181657Y0134508D01*
X0180363Y0133214D01*
X0179663Y0131523D01*
X0179663Y0123693D01*
X0180363Y0122002D01*
X0181657Y0120708D01*
X0183348Y0120008D01*
X0185178Y0120008D01*
X0185216Y0120024D01*
X0185239Y0103131D01*
X0185082Y0103196D01*
X0183252Y0103196D01*
X0181561Y0102496D01*
X0180267Y0101202D01*
X0179567Y0099511D01*
X0179567Y0091681D01*
X0180267Y0089990D01*
X0181561Y0088696D01*
X0183252Y0087996D01*
X0185082Y0087996D01*
X0185259Y0088069D01*
X0185277Y0074669D01*
X0185129Y0074730D01*
X0183299Y0074730D01*
X0181608Y0074030D01*
X0180314Y0072736D01*
X0179614Y0071045D01*
X0179614Y0063215D01*
X0180314Y0061524D01*
X0181608Y0060230D01*
X0183299Y0059530D01*
X0185129Y0059530D01*
X0185297Y0059600D01*
X0185318Y0044560D01*
X0185110Y0044646D01*
X0183280Y0044646D01*
X0181590Y0043946D01*
X0180296Y0042652D01*
X0179595Y0040961D01*
X0179595Y0033131D01*
X0180296Y0031441D01*
X0181590Y0030147D01*
X0183280Y0029446D01*
X0185110Y0029446D01*
X0185338Y0029541D01*
X0185349Y0021272D01*
X0185118Y0021406D01*
X0182345Y0022149D01*
X0179474Y0022149D01*
X0176701Y0021406D01*
X0174215Y0019970D01*
X0172186Y0017941D01*
X0170750Y0015454D01*
X0170007Y0012682D01*
X0170007Y0009811D01*
X0170750Y0007038D01*
X0170824Y0006911D01*
X0133641Y0006917D01*
X0133715Y0007383D01*
X0133715Y0007603D01*
X0129165Y0007603D01*
X0129165Y0007903D01*
X0133715Y0007903D01*
X0133715Y0008123D01*
X0133599Y0008854D01*
X0133370Y0009557D01*
X0133034Y0010217D01*
X0132600Y0010815D01*
X0132076Y0011338D01*
X0131478Y0011773D01*
X0130819Y0012109D01*
X0130115Y0012337D01*
X0129385Y0012453D01*
X0129165Y0012453D01*
X0129165Y0007903D01*
X0128865Y0007903D01*
X0128865Y0012453D01*
X0128645Y0012453D01*
X0127914Y0012337D01*
X0127210Y0012109D01*
X0126551Y0011773D01*
X0125953Y0011338D01*
X0125430Y0010815D01*
X0124995Y0010217D01*
X0124659Y0009557D01*
X0124430Y0008854D01*
X0124315Y0008123D01*
X0124315Y0007903D01*
X0128865Y0007903D01*
X0128865Y0007603D01*
X0124315Y0007603D01*
X0124315Y0007383D01*
X0124388Y0006919D01*
X0073515Y0006927D01*
X0073515Y0008648D01*
X0072830Y0010302D01*
X0071564Y0011568D01*
X0069910Y0012253D01*
X0068120Y0012253D01*
X0066466Y0011568D01*
X0065200Y0010302D01*
X0064515Y0008648D01*
X0064515Y0006929D01*
X0025540Y0006935D01*
X0026103Y0009038D01*
X0026103Y0011909D01*
X0025360Y0014682D01*
X0023925Y0017168D01*
X0021895Y0019198D01*
X0019409Y0020633D01*
X0016636Y0021376D01*
X0013766Y0021376D01*
X0011573Y0020788D01*
X0011576Y0030090D01*
X0011724Y0030029D01*
X0013554Y0030029D01*
X0015245Y0030729D01*
X0016539Y0032023D01*
X0017239Y0033714D01*
X0017239Y0041544D01*
X0016539Y0043235D01*
X0015245Y0044529D01*
X0013554Y0045229D01*
X0011724Y0045229D01*
X0011581Y0045169D01*
X0011585Y0059611D01*
X0011744Y0059545D01*
X0013574Y0059545D01*
X0015264Y0060246D01*
X0016558Y0061540D01*
X0017259Y0063230D01*
X0017259Y0071060D01*
X0016558Y0072751D01*
X0015264Y0074045D01*
X0013574Y0074745D01*
X0011744Y0074745D01*
X0011590Y0074682D01*
X0011595Y0089294D01*
X0013342Y0089294D01*
X0015033Y0089995D01*
X0016327Y0091289D01*
X0017027Y0092979D01*
X0017027Y0100809D01*
X0016327Y0102500D01*
X0015033Y0103794D01*
X0013342Y0104494D01*
X0011600Y0104494D01*
X0011605Y0120197D01*
X0011742Y0120140D01*
X0013572Y0120140D01*
X0015263Y0120840D01*
X0016557Y0122134D01*
X0017257Y0123825D01*
X0017257Y0131655D01*
X0016557Y0133345D01*
X0015263Y0134639D01*
X0013572Y0135340D01*
X0011742Y0135340D01*
X0011610Y0135285D01*
X0011616Y0154521D01*
X0011809Y0154187D01*
X0012326Y0153513D01*
X0012928Y0152912D01*
X0013602Y0152394D01*
X0014338Y0151969D01*
X0015124Y0151644D01*
X0015945Y0151424D01*
X0016788Y0151313D01*
X0021320Y0151313D01*
X0021320Y0157220D01*
X0022476Y0157220D01*
X0022476Y0158376D01*
X0033048Y0158376D01*
X0032957Y0159066D01*
X0032737Y0159887D01*
X0032411Y0160672D01*
X0031986Y0161408D01*
X0031469Y0162083D01*
X0030868Y0162684D01*
X0030193Y0163201D01*
X0029457Y0163627D01*
X0028672Y0163952D01*
X0027851Y0164172D01*
X0027008Y0164283D01*
X0022476Y0164283D01*
X0022476Y0158376D01*
X0021320Y0158376D01*
X0021320Y0164283D01*
X0016788Y0164283D01*
X0015945Y0164172D01*
X0015124Y0163952D01*
X0014338Y0163627D01*
X0013602Y0163201D01*
X0012928Y0162684D01*
X0012326Y0162083D01*
X0011809Y0161408D01*
X0011618Y0161078D01*
X0011623Y0174554D01*
X0011884Y0173923D01*
X0013652Y0172155D01*
X0015962Y0171198D01*
X0027833Y0171198D01*
X0030143Y0172155D01*
X0031168Y0173179D02*
X0038522Y0173179D01*
X0038792Y0173647D02*
X0037356Y0171161D01*
X0036613Y0168388D01*
X0036613Y0165517D01*
X0037356Y0162744D01*
X0038792Y0160258D01*
X0040822Y0158228D01*
X0043308Y0156793D01*
X0046080Y0156050D01*
X0048951Y0156050D01*
X0051724Y0156793D01*
X0054210Y0158228D01*
X0056240Y0160258D01*
X0057675Y0162744D01*
X0058418Y0165517D01*
X0058418Y0168388D01*
X0057675Y0171161D01*
X0056240Y0173647D01*
X0054210Y0175676D01*
X0051724Y0177112D01*
X0048951Y0177855D01*
X0046080Y0177855D01*
X0043308Y0177112D01*
X0040822Y0175676D01*
X0038792Y0173647D01*
X0039923Y0174778D02*
X0032265Y0174778D01*
X0032868Y0176376D02*
X0042034Y0176376D01*
X0037599Y0171581D02*
X0028758Y0171581D01*
X0032868Y0177975D02*
X0173188Y0177975D01*
X0172086Y0179573D02*
X0032520Y0179573D01*
X0031782Y0181172D02*
X0171252Y0181172D01*
X0170824Y0182770D02*
X0030183Y0182770D01*
X0037041Y0169982D02*
X0011621Y0169982D01*
X0011621Y0168384D02*
X0036613Y0168384D01*
X0036613Y0166785D02*
X0011620Y0166785D01*
X0011620Y0165187D02*
X0036702Y0165187D01*
X0037130Y0163588D02*
X0029523Y0163588D01*
X0031540Y0161990D02*
X0037792Y0161990D01*
X0038715Y0160391D02*
X0032528Y0160391D01*
X0032993Y0158793D02*
X0040257Y0158793D01*
X0042613Y0157194D02*
X0033044Y0157194D01*
X0033048Y0157220D02*
X0022476Y0157220D01*
X0022476Y0151313D01*
X0027008Y0151313D01*
X0027851Y0151424D01*
X0028672Y0151644D01*
X0029457Y0151969D01*
X0030193Y0152394D01*
X0030868Y0152912D01*
X0031469Y0153513D01*
X0031986Y0154187D01*
X0032411Y0154923D01*
X0032737Y0155709D01*
X0032957Y0156530D01*
X0033048Y0157220D01*
X0032690Y0155596D02*
X0058902Y0155596D01*
X0059228Y0156383D02*
X0058528Y0154692D01*
X0058528Y0146862D01*
X0059228Y0145172D01*
X0060522Y0143878D01*
X0062213Y0143177D01*
X0064043Y0143177D01*
X0065734Y0143878D01*
X0067028Y0145172D01*
X0067728Y0146862D01*
X0067728Y0154692D01*
X0067028Y0156383D01*
X0065734Y0157677D01*
X0064043Y0158377D01*
X0062213Y0158377D01*
X0060522Y0157677D01*
X0059228Y0156383D01*
X0060040Y0157194D02*
X0052419Y0157194D01*
X0054774Y0158793D02*
X0185163Y0158793D01*
X0185161Y0160391D02*
X0056317Y0160391D01*
X0057240Y0161990D02*
X0185159Y0161990D01*
X0185157Y0163588D02*
X0057901Y0163588D01*
X0058330Y0165187D02*
X0185155Y0165187D01*
X0185153Y0166785D02*
X0058418Y0166785D01*
X0058418Y0168384D02*
X0185150Y0168384D01*
X0185148Y0169982D02*
X0057991Y0169982D01*
X0057432Y0171581D02*
X0185146Y0171581D01*
X0185144Y0173179D02*
X0056510Y0173179D01*
X0055109Y0174778D02*
X0177861Y0174778D01*
X0174787Y0176376D02*
X0052998Y0176376D01*
X0066216Y0157194D02*
X0070040Y0157194D01*
X0070522Y0157677D02*
X0069228Y0156383D01*
X0068528Y0154692D01*
X0068528Y0146862D01*
X0069228Y0145172D01*
X0070522Y0143878D01*
X0072213Y0143177D01*
X0074043Y0143177D01*
X0075734Y0143878D01*
X0077028Y0145172D01*
X0077728Y0146862D01*
X0077728Y0154692D01*
X0077028Y0156383D01*
X0075734Y0157677D01*
X0074043Y0158377D01*
X0072213Y0158377D01*
X0070522Y0157677D01*
X0068902Y0155596D02*
X0067354Y0155596D01*
X0067728Y0153997D02*
X0068528Y0153997D01*
X0068528Y0152399D02*
X0067728Y0152399D01*
X0067728Y0150800D02*
X0068528Y0150800D01*
X0068528Y0149202D02*
X0067728Y0149202D01*
X0067728Y0147603D02*
X0068528Y0147603D01*
X0068883Y0146005D02*
X0067373Y0146005D01*
X0066262Y0144406D02*
X0069994Y0144406D01*
X0069910Y0142253D02*
X0068120Y0142253D01*
X0066466Y0141568D01*
X0065200Y0140302D01*
X0064515Y0138648D01*
X0064515Y0136858D01*
X0065200Y0135204D01*
X0066466Y0133938D01*
X0068120Y0133253D01*
X0069910Y0133253D01*
X0071564Y0133938D01*
X0072830Y0135204D01*
X0073515Y0136858D01*
X0073515Y0138648D01*
X0072830Y0140302D01*
X0071564Y0141568D01*
X0069910Y0142253D01*
X0071923Y0141209D02*
X0126107Y0141209D01*
X0126466Y0141568D02*
X0125200Y0140302D01*
X0124515Y0138648D01*
X0124515Y0136858D01*
X0125200Y0135204D01*
X0126466Y0133938D01*
X0128120Y0133253D01*
X0129910Y0133253D01*
X0131564Y0133938D01*
X0132830Y0135204D01*
X0133515Y0136858D01*
X0133515Y0138648D01*
X0132830Y0140302D01*
X0131564Y0141568D01*
X0129910Y0142253D01*
X0128120Y0142253D01*
X0126466Y0141568D01*
X0125734Y0143878D02*
X0124043Y0143177D01*
X0122213Y0143177D01*
X0120522Y0143878D01*
X0119228Y0145172D01*
X0118528Y0146862D01*
X0118528Y0154692D01*
X0119228Y0156383D01*
X0120522Y0157677D01*
X0122213Y0158377D01*
X0124043Y0158377D01*
X0125734Y0157677D01*
X0127028Y0156383D01*
X0127728Y0154692D01*
X0127728Y0146862D01*
X0127028Y0145172D01*
X0125734Y0143878D01*
X0126262Y0144406D02*
X0129994Y0144406D01*
X0130522Y0143878D02*
X0132213Y0143177D01*
X0134043Y0143177D01*
X0135734Y0143878D01*
X0137028Y0145172D01*
X0137728Y0146862D01*
X0137728Y0154692D01*
X0137028Y0156383D01*
X0135734Y0157677D01*
X0134043Y0158377D01*
X0132213Y0158377D01*
X0130522Y0157677D01*
X0129228Y0156383D01*
X0128528Y0154692D01*
X0128528Y0146862D01*
X0129228Y0145172D01*
X0130522Y0143878D01*
X0128883Y0146005D02*
X0127373Y0146005D01*
X0127728Y0147603D02*
X0128528Y0147603D01*
X0128528Y0149202D02*
X0127728Y0149202D01*
X0127728Y0150800D02*
X0128528Y0150800D01*
X0128528Y0152399D02*
X0127728Y0152399D01*
X0127728Y0153997D02*
X0128528Y0153997D01*
X0128902Y0155596D02*
X0127354Y0155596D01*
X0126216Y0157194D02*
X0130040Y0157194D01*
X0136216Y0157194D02*
X0185166Y0157194D01*
X0185168Y0155596D02*
X0137354Y0155596D01*
X0137728Y0153997D02*
X0185170Y0153997D01*
X0185172Y0152399D02*
X0137728Y0152399D01*
X0137728Y0150800D02*
X0185174Y0150800D01*
X0185176Y0149202D02*
X0137728Y0149202D01*
X0137728Y0147603D02*
X0185179Y0147603D01*
X0185181Y0146005D02*
X0137373Y0146005D01*
X0136262Y0144406D02*
X0185183Y0144406D01*
X0185185Y0142808D02*
X0011612Y0142808D01*
X0011613Y0144406D02*
X0059994Y0144406D01*
X0058883Y0146005D02*
X0011613Y0146005D01*
X0011614Y0147603D02*
X0058528Y0147603D01*
X0058528Y0149202D02*
X0011614Y0149202D01*
X0011615Y0150800D02*
X0058528Y0150800D01*
X0058528Y0152399D02*
X0030199Y0152399D01*
X0031841Y0153997D02*
X0058528Y0153997D01*
X0066107Y0141209D02*
X0011612Y0141209D01*
X0011611Y0139611D02*
X0064913Y0139611D01*
X0064515Y0138012D02*
X0011611Y0138012D01*
X0011610Y0136414D02*
X0064699Y0136414D01*
X0065589Y0134815D02*
X0044839Y0134815D01*
X0045263Y0134639D02*
X0043572Y0135340D01*
X0041742Y0135340D01*
X0040052Y0134639D01*
X0038758Y0133345D01*
X0038057Y0131655D01*
X0038057Y0123825D01*
X0038758Y0122134D01*
X0040052Y0120840D01*
X0041742Y0120140D01*
X0043572Y0120140D01*
X0045263Y0120840D01*
X0046557Y0122134D01*
X0047257Y0123825D01*
X0047257Y0131655D01*
X0046557Y0133345D01*
X0045263Y0134639D01*
X0046610Y0133217D02*
X0150366Y0133217D01*
X0150363Y0133214D02*
X0149663Y0131523D01*
X0149663Y0123693D01*
X0150363Y0122002D01*
X0151657Y0120708D01*
X0153348Y0120008D01*
X0155178Y0120008D01*
X0156869Y0120708D01*
X0158163Y0122002D01*
X0158863Y0123693D01*
X0158863Y0131523D01*
X0158163Y0133214D01*
X0156869Y0134508D01*
X0155178Y0135208D01*
X0153348Y0135208D01*
X0151657Y0134508D01*
X0150363Y0133214D01*
X0149702Y0131618D02*
X0131443Y0131618D01*
X0131564Y0131568D02*
X0129910Y0132253D01*
X0128120Y0132253D01*
X0126466Y0131568D01*
X0125200Y0130302D01*
X0124515Y0128648D01*
X0124515Y0126858D01*
X0125200Y0125204D01*
X0126466Y0123938D01*
X0128120Y0123253D01*
X0129910Y0123253D01*
X0131564Y0123938D01*
X0132830Y0125204D01*
X0133515Y0126858D01*
X0133515Y0128648D01*
X0132830Y0130302D01*
X0131564Y0131568D01*
X0132947Y0130020D02*
X0149663Y0130020D01*
X0149663Y0128421D02*
X0133515Y0128421D01*
X0133500Y0126823D02*
X0149663Y0126823D01*
X0149663Y0125224D02*
X0132838Y0125224D01*
X0130809Y0123626D02*
X0149691Y0123626D01*
X0150353Y0122027D02*
X0130456Y0122027D01*
X0129910Y0122253D02*
X0128120Y0122253D01*
X0126466Y0121568D01*
X0125200Y0120302D01*
X0124515Y0118648D01*
X0124515Y0116858D01*
X0125200Y0115204D01*
X0126466Y0113938D01*
X0128120Y0113253D01*
X0129910Y0113253D01*
X0131564Y0113938D01*
X0132830Y0115204D01*
X0133515Y0116858D01*
X0133515Y0118648D01*
X0132830Y0120302D01*
X0131564Y0121568D01*
X0129910Y0122253D01*
X0127574Y0122027D02*
X0070456Y0122027D01*
X0069910Y0122253D02*
X0068120Y0122253D01*
X0066466Y0121568D01*
X0065200Y0120302D01*
X0064515Y0118648D01*
X0064515Y0116858D01*
X0065200Y0115204D01*
X0066466Y0113938D01*
X0068120Y0113253D01*
X0069910Y0113253D01*
X0071564Y0113938D01*
X0072830Y0115204D01*
X0073515Y0116858D01*
X0073515Y0118648D01*
X0072830Y0120302D01*
X0071564Y0121568D01*
X0069910Y0122253D01*
X0069910Y0123253D02*
X0068120Y0123253D01*
X0066466Y0123938D01*
X0065200Y0125204D01*
X0064515Y0126858D01*
X0064515Y0128648D01*
X0065200Y0130302D01*
X0066466Y0131568D01*
X0068120Y0132253D01*
X0069910Y0132253D01*
X0071564Y0131568D01*
X0072830Y0130302D01*
X0073515Y0128648D01*
X0073515Y0126858D01*
X0072830Y0125204D01*
X0071564Y0123938D01*
X0069910Y0123253D01*
X0070809Y0123626D02*
X0127221Y0123626D01*
X0125191Y0125224D02*
X0072838Y0125224D01*
X0073500Y0126823D02*
X0124529Y0126823D01*
X0124515Y0128421D02*
X0073515Y0128421D01*
X0072947Y0130020D02*
X0125083Y0130020D01*
X0126586Y0131618D02*
X0071443Y0131618D01*
X0072441Y0134815D02*
X0125589Y0134815D01*
X0124699Y0136414D02*
X0073331Y0136414D01*
X0073515Y0138012D02*
X0124515Y0138012D01*
X0124913Y0139611D02*
X0073116Y0139611D01*
X0076262Y0144406D02*
X0079711Y0144406D01*
X0079467Y0144650D02*
X0080001Y0144116D01*
X0080612Y0143672D01*
X0081286Y0143329D01*
X0082004Y0143096D01*
X0082750Y0142977D01*
X0082928Y0142977D01*
X0082928Y0150577D01*
X0083328Y0150577D01*
X0083328Y0142977D01*
X0083506Y0142977D01*
X0084252Y0143096D01*
X0084971Y0143329D01*
X0085644Y0143672D01*
X0086255Y0144116D01*
X0086789Y0144650D01*
X0087233Y0145262D01*
X0087576Y0145935D01*
X0087810Y0146653D01*
X0087928Y0147400D01*
X0087928Y0150577D01*
X0083328Y0150577D01*
X0083328Y0150977D01*
X0087928Y0150977D01*
X0087928Y0154155D01*
X0087810Y0154901D01*
X0087576Y0155620D01*
X0087233Y0156293D01*
X0086789Y0156904D01*
X0086255Y0157439D01*
X0085644Y0157883D01*
X0084971Y0158226D01*
X0084252Y0158459D01*
X0083506Y0158577D01*
X0083328Y0158577D01*
X0083328Y0150977D01*
X0082928Y0150977D01*
X0082928Y0150577D01*
X0078328Y0150577D01*
X0078328Y0147400D01*
X0078446Y0146653D01*
X0078680Y0145935D01*
X0079023Y0145262D01*
X0079467Y0144650D01*
X0078657Y0146005D02*
X0077373Y0146005D01*
X0077728Y0147603D02*
X0078328Y0147603D01*
X0078328Y0149202D02*
X0077728Y0149202D01*
X0077728Y0150800D02*
X0082928Y0150800D01*
X0082928Y0150977D02*
X0078328Y0150977D01*
X0078328Y0154155D01*
X0078446Y0154901D01*
X0078680Y0155620D01*
X0079023Y0156293D01*
X0079467Y0156904D01*
X0080001Y0157439D01*
X0080612Y0157883D01*
X0081286Y0158226D01*
X0082004Y0158459D01*
X0082750Y0158577D01*
X0082928Y0158577D01*
X0082928Y0150977D01*
X0083328Y0150800D02*
X0088528Y0150800D01*
X0088528Y0149202D02*
X0087928Y0149202D01*
X0087928Y0147603D02*
X0088528Y0147603D01*
X0088528Y0146862D02*
X0089228Y0145172D01*
X0090522Y0143878D01*
X0092213Y0143177D01*
X0094043Y0143177D01*
X0095734Y0143878D01*
X0097028Y0145172D01*
X0097728Y0146862D01*
X0097728Y0154692D01*
X0097028Y0156383D01*
X0095734Y0157677D01*
X0094043Y0158377D01*
X0092213Y0158377D01*
X0090522Y0157677D01*
X0089228Y0156383D01*
X0088528Y0154692D01*
X0088528Y0146862D01*
X0088883Y0146005D02*
X0087599Y0146005D01*
X0086545Y0144406D02*
X0089994Y0144406D01*
X0096262Y0144406D02*
X0099994Y0144406D01*
X0100522Y0143878D02*
X0099228Y0145172D01*
X0098528Y0146862D01*
X0098528Y0154692D01*
X0099228Y0156383D01*
X0100522Y0157677D01*
X0102213Y0158377D01*
X0104043Y0158377D01*
X0105734Y0157677D01*
X0107028Y0156383D01*
X0107728Y0154692D01*
X0107728Y0146862D01*
X0107028Y0145172D01*
X0105734Y0143878D01*
X0104043Y0143177D01*
X0102213Y0143177D01*
X0100522Y0143878D01*
X0098883Y0146005D02*
X0097373Y0146005D01*
X0097728Y0147603D02*
X0098528Y0147603D01*
X0098528Y0149202D02*
X0097728Y0149202D01*
X0097728Y0150800D02*
X0098528Y0150800D01*
X0098528Y0152399D02*
X0097728Y0152399D01*
X0097728Y0153997D02*
X0098528Y0153997D01*
X0098902Y0155596D02*
X0097354Y0155596D01*
X0096216Y0157194D02*
X0100040Y0157194D01*
X0106216Y0157194D02*
X0110040Y0157194D01*
X0110522Y0157677D02*
X0109228Y0156383D01*
X0108528Y0154692D01*
X0108528Y0146862D01*
X0109228Y0145172D01*
X0110522Y0143878D01*
X0112213Y0143177D01*
X0114043Y0143177D01*
X0115734Y0143878D01*
X0117028Y0145172D01*
X0117728Y0146862D01*
X0117728Y0154692D01*
X0117028Y0156383D01*
X0115734Y0157677D01*
X0114043Y0158377D01*
X0112213Y0158377D01*
X0110522Y0157677D01*
X0108902Y0155596D02*
X0107354Y0155596D01*
X0107728Y0153997D02*
X0108528Y0153997D01*
X0108528Y0152399D02*
X0107728Y0152399D01*
X0107728Y0150800D02*
X0108528Y0150800D01*
X0108528Y0149202D02*
X0107728Y0149202D01*
X0107728Y0147603D02*
X0108528Y0147603D01*
X0108883Y0146005D02*
X0107373Y0146005D01*
X0106262Y0144406D02*
X0109994Y0144406D01*
X0116262Y0144406D02*
X0119994Y0144406D01*
X0118883Y0146005D02*
X0117373Y0146005D01*
X0117728Y0147603D02*
X0118528Y0147603D01*
X0118528Y0149202D02*
X0117728Y0149202D01*
X0117728Y0150800D02*
X0118528Y0150800D01*
X0118528Y0152399D02*
X0117728Y0152399D01*
X0117728Y0153997D02*
X0118528Y0153997D01*
X0118902Y0155596D02*
X0117354Y0155596D01*
X0116216Y0157194D02*
X0120040Y0157194D01*
X0131923Y0141209D02*
X0185187Y0141209D01*
X0185189Y0139611D02*
X0133116Y0139611D01*
X0133515Y0138012D02*
X0185191Y0138012D01*
X0185194Y0136414D02*
X0133331Y0136414D01*
X0132441Y0134815D02*
X0152399Y0134815D01*
X0156127Y0134815D02*
X0162399Y0134815D01*
X0161657Y0134508D02*
X0163348Y0135208D01*
X0165178Y0135208D01*
X0166869Y0134508D01*
X0168163Y0133214D01*
X0168863Y0131523D01*
X0168863Y0123693D01*
X0168163Y0122002D01*
X0166869Y0120708D01*
X0165178Y0120008D01*
X0163348Y0120008D01*
X0161657Y0120708D01*
X0160363Y0122002D01*
X0159663Y0123693D01*
X0159663Y0131523D01*
X0160363Y0133214D01*
X0161657Y0134508D01*
X0160366Y0133217D02*
X0158160Y0133217D01*
X0158824Y0131618D02*
X0159702Y0131618D01*
X0159663Y0130020D02*
X0158863Y0130020D01*
X0158863Y0128421D02*
X0159663Y0128421D01*
X0159663Y0126823D02*
X0158863Y0126823D01*
X0158863Y0125224D02*
X0159663Y0125224D01*
X0159691Y0123626D02*
X0158835Y0123626D01*
X0158173Y0122027D02*
X0160353Y0122027D01*
X0162333Y0120429D02*
X0156193Y0120429D01*
X0152333Y0120429D02*
X0132703Y0120429D01*
X0133439Y0118830D02*
X0185217Y0118830D01*
X0185220Y0117231D02*
X0133515Y0117231D01*
X0133007Y0115633D02*
X0185222Y0115633D01*
X0185224Y0114034D02*
X0131660Y0114034D01*
X0131564Y0111568D02*
X0129910Y0112253D01*
X0128120Y0112253D01*
X0126466Y0111568D01*
X0125200Y0110302D01*
X0124515Y0108648D01*
X0124515Y0106858D01*
X0125200Y0105204D01*
X0126466Y0103938D01*
X0128120Y0103253D01*
X0129910Y0103253D01*
X0131564Y0103938D01*
X0132830Y0105204D01*
X0133515Y0106858D01*
X0133515Y0108648D01*
X0132830Y0110302D01*
X0131564Y0111568D01*
X0132294Y0110837D02*
X0185228Y0110837D01*
X0185230Y0109239D02*
X0133270Y0109239D01*
X0133515Y0107640D02*
X0185233Y0107640D01*
X0185235Y0106042D02*
X0133177Y0106042D01*
X0132069Y0104443D02*
X0185237Y0104443D01*
X0182405Y0102845D02*
X0176401Y0102845D01*
X0176683Y0102701D02*
X0176010Y0103044D01*
X0175291Y0103278D01*
X0174545Y0103396D01*
X0174367Y0103396D01*
X0174367Y0095796D01*
X0173967Y0095796D01*
X0173967Y0103396D01*
X0173789Y0103396D01*
X0173043Y0103278D01*
X0172324Y0103044D01*
X0171651Y0102701D01*
X0171040Y0102257D01*
X0170506Y0101723D01*
X0170062Y0101112D01*
X0169719Y0100438D01*
X0169485Y0099720D01*
X0169367Y0098974D01*
X0169367Y0095796D01*
X0173967Y0095796D01*
X0173967Y0095396D01*
X0169367Y0095396D01*
X0169367Y0092218D01*
X0169485Y0091472D01*
X0169719Y0090753D01*
X0170062Y0090080D01*
X0170506Y0089469D01*
X0171040Y0088935D01*
X0171651Y0088491D01*
X0172324Y0088147D01*
X0173043Y0087914D01*
X0173789Y0087796D01*
X0173967Y0087796D01*
X0173967Y0095396D01*
X0174367Y0095396D01*
X0174367Y0095796D01*
X0178967Y0095796D01*
X0178967Y0098974D01*
X0178849Y0099720D01*
X0178615Y0100438D01*
X0178272Y0101112D01*
X0177828Y0101723D01*
X0177294Y0102257D01*
X0176683Y0102701D01*
X0178174Y0101246D02*
X0180312Y0101246D01*
X0179624Y0099648D02*
X0178860Y0099648D01*
X0178967Y0098049D02*
X0179567Y0098049D01*
X0179567Y0096451D02*
X0178967Y0096451D01*
X0178967Y0095396D02*
X0174367Y0095396D01*
X0174367Y0087796D01*
X0174545Y0087796D01*
X0175291Y0087914D01*
X0176010Y0088147D01*
X0176683Y0088491D01*
X0177294Y0088935D01*
X0177828Y0089469D01*
X0178272Y0090080D01*
X0178615Y0090753D01*
X0178849Y0091472D01*
X0178967Y0092218D01*
X0178967Y0095396D01*
X0178967Y0094852D02*
X0179567Y0094852D01*
X0179567Y0093254D02*
X0178967Y0093254D01*
X0178878Y0091655D02*
X0179578Y0091655D01*
X0180240Y0090057D02*
X0178255Y0090057D01*
X0176620Y0088458D02*
X0182136Y0088458D01*
X0185261Y0086860D02*
X0133515Y0086860D01*
X0133515Y0086858D02*
X0132830Y0085204D01*
X0131564Y0083938D01*
X0129910Y0083253D01*
X0128120Y0083253D01*
X0126466Y0083938D01*
X0125200Y0085204D01*
X0124515Y0086858D01*
X0124515Y0088648D01*
X0125200Y0090302D01*
X0126466Y0091568D01*
X0128120Y0092253D01*
X0129910Y0092253D01*
X0131564Y0091568D01*
X0132830Y0090302D01*
X0133515Y0088648D01*
X0133515Y0086858D01*
X0133515Y0088458D02*
X0152136Y0088458D01*
X0151561Y0088696D02*
X0153252Y0087996D01*
X0155082Y0087996D01*
X0156773Y0088696D01*
X0158067Y0089990D01*
X0158767Y0091681D01*
X0158767Y0099511D01*
X0158067Y0101202D01*
X0156773Y0102496D01*
X0155082Y0103196D01*
X0153252Y0103196D01*
X0151561Y0102496D01*
X0150267Y0101202D01*
X0149567Y0099511D01*
X0149567Y0091681D01*
X0150267Y0089990D01*
X0151561Y0088696D01*
X0150240Y0090057D02*
X0132931Y0090057D01*
X0131353Y0091655D02*
X0149578Y0091655D01*
X0149567Y0093254D02*
X0129911Y0093254D01*
X0129910Y0093253D02*
X0131564Y0093938D01*
X0132830Y0095204D01*
X0133515Y0096858D01*
X0133515Y0098648D01*
X0132830Y0100302D01*
X0131564Y0101568D01*
X0129910Y0102253D01*
X0128120Y0102253D01*
X0126466Y0101568D01*
X0125200Y0100302D01*
X0124515Y0098648D01*
X0124515Y0096858D01*
X0125200Y0095204D01*
X0126466Y0093938D01*
X0128120Y0093253D01*
X0129910Y0093253D01*
X0128118Y0093254D02*
X0069911Y0093254D01*
X0069910Y0093253D02*
X0071564Y0093938D01*
X0072830Y0095204D01*
X0073515Y0096858D01*
X0073515Y0098648D01*
X0072830Y0100302D01*
X0071564Y0101568D01*
X0069910Y0102253D01*
X0068120Y0102253D01*
X0066466Y0101568D01*
X0065200Y0100302D01*
X0064515Y0098648D01*
X0064515Y0096858D01*
X0065200Y0095204D01*
X0066466Y0093938D01*
X0068120Y0093253D01*
X0069910Y0093253D01*
X0069910Y0092253D02*
X0068120Y0092253D01*
X0066466Y0091568D01*
X0065200Y0090302D01*
X0064515Y0088648D01*
X0064515Y0086858D01*
X0065200Y0085204D01*
X0066466Y0083938D01*
X0068120Y0083253D01*
X0069910Y0083253D01*
X0071564Y0083938D01*
X0072830Y0085204D01*
X0073515Y0086858D01*
X0073515Y0088648D01*
X0072830Y0090302D01*
X0071564Y0091568D01*
X0069910Y0092253D01*
X0071353Y0091655D02*
X0126676Y0091655D01*
X0125098Y0090057D02*
X0072931Y0090057D01*
X0073515Y0088458D02*
X0124515Y0088458D01*
X0124515Y0086860D02*
X0073515Y0086860D01*
X0072853Y0085261D02*
X0125176Y0085261D01*
X0127131Y0083663D02*
X0070898Y0083663D01*
X0070366Y0082064D02*
X0127663Y0082064D01*
X0128120Y0082253D02*
X0126466Y0081568D01*
X0125200Y0080302D01*
X0124515Y0078648D01*
X0124515Y0076858D01*
X0125200Y0075204D01*
X0126466Y0073938D01*
X0128120Y0073253D01*
X0129910Y0073253D01*
X0131564Y0073938D01*
X0132830Y0075204D01*
X0133515Y0076858D01*
X0133515Y0078648D01*
X0132830Y0080302D01*
X0131564Y0081568D01*
X0129910Y0082253D01*
X0128120Y0082253D01*
X0130366Y0082064D02*
X0185267Y0082064D01*
X0185269Y0080466D02*
X0132666Y0080466D01*
X0133424Y0078867D02*
X0185271Y0078867D01*
X0185274Y0077269D02*
X0133515Y0077269D01*
X0133023Y0075670D02*
X0185276Y0075670D01*
X0181709Y0074072D02*
X0176955Y0074072D01*
X0176729Y0074235D02*
X0176056Y0074578D01*
X0175338Y0074812D01*
X0174592Y0074930D01*
X0174414Y0074930D01*
X0174414Y0067330D01*
X0179014Y0067330D01*
X0179014Y0070508D01*
X0178896Y0071254D01*
X0178662Y0071973D01*
X0178319Y0072646D01*
X0177875Y0073257D01*
X0177341Y0073791D01*
X0176729Y0074235D01*
X0174414Y0074072D02*
X0174014Y0074072D01*
X0174014Y0074930D02*
X0173836Y0074930D01*
X0173090Y0074812D01*
X0172371Y0074578D01*
X0171698Y0074235D01*
X0171087Y0073791D01*
X0170553Y0073257D01*
X0170108Y0072646D01*
X0169765Y0071973D01*
X0169532Y0071254D01*
X0169414Y0070508D01*
X0169414Y0067330D01*
X0174014Y0067330D01*
X0174014Y0074930D01*
X0174014Y0072473D02*
X0174414Y0072473D01*
X0174414Y0070875D02*
X0174014Y0070875D01*
X0174014Y0069276D02*
X0174414Y0069276D01*
X0174414Y0067678D02*
X0174014Y0067678D01*
X0174014Y0067330D02*
X0174414Y0067330D01*
X0174414Y0066930D01*
X0179014Y0066930D01*
X0179014Y0063752D01*
X0178896Y0063006D01*
X0178662Y0062287D01*
X0178319Y0061614D01*
X0177875Y0061003D01*
X0177341Y0060469D01*
X0176729Y0060025D01*
X0176056Y0059682D01*
X0175338Y0059448D01*
X0174592Y0059330D01*
X0174414Y0059330D01*
X0174414Y0066930D01*
X0174014Y0066930D01*
X0174014Y0059330D01*
X0173836Y0059330D01*
X0173090Y0059448D01*
X0172371Y0059682D01*
X0171698Y0060025D01*
X0171087Y0060469D01*
X0170553Y0061003D01*
X0170108Y0061614D01*
X0169765Y0062287D01*
X0169532Y0063006D01*
X0169414Y0063752D01*
X0169414Y0066930D01*
X0174014Y0066930D01*
X0174014Y0067330D01*
X0174014Y0066079D02*
X0174414Y0066079D01*
X0174414Y0064481D02*
X0174014Y0064481D01*
X0174014Y0062882D02*
X0174414Y0062882D01*
X0174414Y0061284D02*
X0174014Y0061284D01*
X0174014Y0059685D02*
X0174414Y0059685D01*
X0176063Y0059685D02*
X0182924Y0059685D01*
X0185300Y0058087D02*
X0133515Y0058087D01*
X0133515Y0058648D02*
X0133515Y0056858D01*
X0132830Y0055204D01*
X0131564Y0053938D01*
X0129910Y0053253D01*
X0128120Y0053253D01*
X0126466Y0053938D01*
X0125200Y0055204D01*
X0124515Y0056858D01*
X0124515Y0058648D01*
X0125200Y0060302D01*
X0126466Y0061568D01*
X0128120Y0062253D01*
X0129910Y0062253D01*
X0131564Y0061568D01*
X0132830Y0060302D01*
X0133515Y0058648D01*
X0133085Y0059685D02*
X0142924Y0059685D01*
X0143299Y0059530D02*
X0145129Y0059530D01*
X0146819Y0060230D01*
X0148113Y0061524D01*
X0148814Y0063215D01*
X0148814Y0071045D01*
X0148113Y0072736D01*
X0146819Y0074030D01*
X0145129Y0074730D01*
X0143299Y0074730D01*
X0141608Y0074030D01*
X0140314Y0072736D01*
X0139614Y0071045D01*
X0139614Y0063215D01*
X0140314Y0061524D01*
X0141608Y0060230D01*
X0143299Y0059530D01*
X0145503Y0059685D02*
X0152924Y0059685D01*
X0153299Y0059530D02*
X0155129Y0059530D01*
X0156819Y0060230D01*
X0158113Y0061524D01*
X0158814Y0063215D01*
X0158814Y0071045D01*
X0158113Y0072736D01*
X0156819Y0074030D01*
X0155129Y0074730D01*
X0153299Y0074730D01*
X0151608Y0074030D01*
X0150314Y0072736D01*
X0149614Y0071045D01*
X0149614Y0063215D01*
X0150314Y0061524D01*
X0151608Y0060230D01*
X0153299Y0059530D01*
X0155503Y0059685D02*
X0162924Y0059685D01*
X0163299Y0059530D02*
X0165129Y0059530D01*
X0166819Y0060230D01*
X0168113Y0061524D01*
X0168814Y0063215D01*
X0168814Y0071045D01*
X0168113Y0072736D01*
X0166819Y0074030D01*
X0165129Y0074730D01*
X0163299Y0074730D01*
X0161608Y0074030D01*
X0160314Y0072736D01*
X0159614Y0071045D01*
X0159614Y0063215D01*
X0160314Y0061524D01*
X0161608Y0060230D01*
X0163299Y0059530D01*
X0165503Y0059685D02*
X0172365Y0059685D01*
X0170349Y0061284D02*
X0167873Y0061284D01*
X0168676Y0062882D02*
X0169572Y0062882D01*
X0169414Y0064481D02*
X0168814Y0064481D01*
X0168814Y0066079D02*
X0169414Y0066079D01*
X0169414Y0067678D02*
X0168814Y0067678D01*
X0168814Y0069276D02*
X0169414Y0069276D01*
X0169472Y0070875D02*
X0168814Y0070875D01*
X0168222Y0072473D02*
X0170020Y0072473D01*
X0171473Y0074072D02*
X0166718Y0074072D01*
X0161709Y0074072D02*
X0156718Y0074072D01*
X0158222Y0072473D02*
X0160205Y0072473D01*
X0159614Y0070875D02*
X0158814Y0070875D01*
X0158814Y0069276D02*
X0159614Y0069276D01*
X0159614Y0067678D02*
X0158814Y0067678D01*
X0158814Y0066079D02*
X0159614Y0066079D01*
X0159614Y0064481D02*
X0158814Y0064481D01*
X0158676Y0062882D02*
X0159752Y0062882D01*
X0160555Y0061284D02*
X0157873Y0061284D01*
X0150555Y0061284D02*
X0147873Y0061284D01*
X0148676Y0062882D02*
X0149752Y0062882D01*
X0149614Y0064481D02*
X0148814Y0064481D01*
X0148814Y0066079D02*
X0149614Y0066079D01*
X0149614Y0067678D02*
X0148814Y0067678D01*
X0148814Y0069276D02*
X0149614Y0069276D01*
X0149614Y0070875D02*
X0148814Y0070875D01*
X0148222Y0072473D02*
X0150205Y0072473D01*
X0151709Y0074072D02*
X0146718Y0074072D01*
X0141709Y0074072D02*
X0131697Y0074072D01*
X0131564Y0071568D02*
X0129910Y0072253D01*
X0128120Y0072253D01*
X0126466Y0071568D01*
X0125200Y0070302D01*
X0124515Y0068648D01*
X0124515Y0066858D01*
X0125200Y0065204D01*
X0126466Y0063938D01*
X0128120Y0063253D01*
X0129910Y0063253D01*
X0131564Y0063938D01*
X0132830Y0065204D01*
X0133515Y0066858D01*
X0133515Y0068648D01*
X0132830Y0070302D01*
X0131564Y0071568D01*
X0132257Y0070875D02*
X0139614Y0070875D01*
X0139614Y0069276D02*
X0133255Y0069276D01*
X0133515Y0067678D02*
X0139614Y0067678D01*
X0139614Y0066079D02*
X0133192Y0066079D01*
X0132106Y0064481D02*
X0139614Y0064481D01*
X0139752Y0062882D02*
X0057114Y0062882D01*
X0057259Y0063230D02*
X0057259Y0071060D01*
X0056558Y0072751D01*
X0055264Y0074045D01*
X0053574Y0074745D01*
X0051744Y0074745D01*
X0050053Y0074045D01*
X0048759Y0072751D01*
X0048059Y0071060D01*
X0048059Y0063230D01*
X0048759Y0061540D01*
X0050053Y0060246D01*
X0051744Y0059545D01*
X0053574Y0059545D01*
X0055264Y0060246D01*
X0056558Y0061540D01*
X0057259Y0063230D01*
X0057259Y0064481D02*
X0065923Y0064481D01*
X0066466Y0063938D02*
X0068120Y0063253D01*
X0069910Y0063253D01*
X0071564Y0063938D01*
X0072830Y0065204D01*
X0073515Y0066858D01*
X0073515Y0068648D01*
X0072830Y0070302D01*
X0071564Y0071568D01*
X0069910Y0072253D01*
X0068120Y0072253D01*
X0066466Y0071568D01*
X0065200Y0070302D01*
X0064515Y0068648D01*
X0064515Y0066858D01*
X0065200Y0065204D01*
X0066466Y0063938D01*
X0068120Y0062253D02*
X0066466Y0061568D01*
X0065200Y0060302D01*
X0064515Y0058648D01*
X0064515Y0056858D01*
X0065200Y0055204D01*
X0066466Y0053938D01*
X0068120Y0053253D01*
X0069910Y0053253D01*
X0071564Y0053938D01*
X0072830Y0055204D01*
X0073515Y0056858D01*
X0073515Y0058648D01*
X0072830Y0060302D01*
X0071564Y0061568D01*
X0069910Y0062253D01*
X0068120Y0062253D01*
X0066181Y0061284D02*
X0056302Y0061284D01*
X0053911Y0059685D02*
X0064944Y0059685D01*
X0064515Y0058087D02*
X0011585Y0058087D01*
X0011584Y0056488D02*
X0064668Y0056488D01*
X0065514Y0054890D02*
X0011584Y0054890D01*
X0011583Y0053291D02*
X0068028Y0053291D01*
X0068120Y0052253D02*
X0066466Y0051568D01*
X0065200Y0050302D01*
X0064515Y0048648D01*
X0064515Y0046858D01*
X0065200Y0045204D01*
X0066466Y0043938D01*
X0068120Y0043253D01*
X0069910Y0043253D01*
X0071564Y0043938D01*
X0072830Y0045204D01*
X0073515Y0046858D01*
X0073515Y0048648D01*
X0072830Y0050302D01*
X0071564Y0051568D01*
X0069910Y0052253D01*
X0068120Y0052253D01*
X0066766Y0051693D02*
X0011583Y0051693D01*
X0011582Y0050094D02*
X0065113Y0050094D01*
X0064515Y0048495D02*
X0011582Y0048495D01*
X0011581Y0046897D02*
X0064515Y0046897D01*
X0065161Y0045298D02*
X0023801Y0045298D01*
X0023763Y0045311D02*
X0023017Y0045429D01*
X0022839Y0045429D01*
X0022839Y0037829D01*
X0022439Y0037829D01*
X0022439Y0037429D01*
X0017839Y0037429D01*
X0017839Y0034251D01*
X0017958Y0033505D01*
X0018191Y0032786D01*
X0018534Y0032113D01*
X0018978Y0031502D01*
X0019513Y0030968D01*
X0020124Y0030524D01*
X0020797Y0030181D01*
X0021515Y0029947D01*
X0022262Y0029829D01*
X0022439Y0029829D01*
X0022439Y0037429D01*
X0022839Y0037429D01*
X0022839Y0029829D01*
X0023017Y0029829D01*
X0023763Y0029947D01*
X0024482Y0030181D01*
X0025155Y0030524D01*
X0025766Y0030968D01*
X0026301Y0031502D01*
X0026745Y0032113D01*
X0027088Y0032786D01*
X0027321Y0033505D01*
X0027439Y0034251D01*
X0027439Y0037429D01*
X0022840Y0037429D01*
X0022840Y0037829D01*
X0027439Y0037829D01*
X0027439Y0041007D01*
X0027321Y0041753D01*
X0027088Y0042471D01*
X0026745Y0043145D01*
X0026301Y0043756D01*
X0025766Y0044290D01*
X0025155Y0044734D01*
X0024482Y0045077D01*
X0023763Y0045311D01*
X0022839Y0045298D02*
X0022439Y0045298D01*
X0022439Y0045429D02*
X0022262Y0045429D01*
X0021515Y0045311D01*
X0020797Y0045077D01*
X0020124Y0044734D01*
X0019513Y0044290D01*
X0018978Y0043756D01*
X0018534Y0043145D01*
X0018191Y0042471D01*
X0017958Y0041753D01*
X0017839Y0041007D01*
X0017839Y0037829D01*
X0022439Y0037829D01*
X0022439Y0045429D01*
X0021478Y0045298D02*
X0011581Y0045298D01*
X0016074Y0043700D02*
X0018938Y0043700D01*
X0018071Y0042101D02*
X0017009Y0042101D01*
X0017239Y0040503D02*
X0017839Y0040503D01*
X0017839Y0038904D02*
X0017239Y0038904D01*
X0017239Y0037306D02*
X0017839Y0037306D01*
X0017839Y0035707D02*
X0017239Y0035707D01*
X0017239Y0034109D02*
X0017862Y0034109D01*
X0018332Y0032510D02*
X0016741Y0032510D01*
X0015428Y0030912D02*
X0019589Y0030912D01*
X0022439Y0030912D02*
X0022839Y0030912D01*
X0022839Y0032510D02*
X0022439Y0032510D01*
X0022439Y0034109D02*
X0022839Y0034109D01*
X0022839Y0035707D02*
X0022439Y0035707D01*
X0022439Y0037306D02*
X0022839Y0037306D01*
X0022839Y0038904D02*
X0022439Y0038904D01*
X0022439Y0040503D02*
X0022839Y0040503D01*
X0022839Y0042101D02*
X0022439Y0042101D01*
X0022439Y0043700D02*
X0022839Y0043700D01*
X0026341Y0043700D02*
X0029205Y0043700D01*
X0028740Y0043235D02*
X0030034Y0044529D01*
X0031724Y0045229D01*
X0033554Y0045229D01*
X0035245Y0044529D01*
X0036539Y0043235D01*
X0037239Y0041544D01*
X0037239Y0033714D01*
X0036539Y0032023D01*
X0035245Y0030729D01*
X0033554Y0030029D01*
X0031724Y0030029D01*
X0030034Y0030729D01*
X0028740Y0032023D01*
X0028039Y0033714D01*
X0028039Y0041544D01*
X0028740Y0043235D01*
X0028270Y0042101D02*
X0027208Y0042101D01*
X0027439Y0040503D02*
X0028039Y0040503D01*
X0028039Y0038904D02*
X0027439Y0038904D01*
X0027439Y0037306D02*
X0028039Y0037306D01*
X0028039Y0035707D02*
X0027439Y0035707D01*
X0027417Y0034109D02*
X0028039Y0034109D01*
X0028538Y0032510D02*
X0026947Y0032510D01*
X0025690Y0030912D02*
X0029851Y0030912D01*
X0035428Y0030912D02*
X0039851Y0030912D01*
X0040034Y0030729D02*
X0041724Y0030029D01*
X0043554Y0030029D01*
X0045245Y0030729D01*
X0046539Y0032023D01*
X0047239Y0033714D01*
X0047239Y0041544D01*
X0046539Y0043235D01*
X0045245Y0044529D01*
X0043554Y0045229D01*
X0041724Y0045229D01*
X0040034Y0044529D01*
X0038740Y0043235D01*
X0038039Y0041544D01*
X0038039Y0033714D01*
X0038740Y0032023D01*
X0040034Y0030729D01*
X0038538Y0032510D02*
X0036741Y0032510D01*
X0037239Y0034109D02*
X0038039Y0034109D01*
X0038039Y0035707D02*
X0037239Y0035707D01*
X0037239Y0037306D02*
X0038039Y0037306D01*
X0038039Y0038904D02*
X0037239Y0038904D01*
X0037239Y0040503D02*
X0038039Y0040503D01*
X0038270Y0042101D02*
X0037009Y0042101D01*
X0036074Y0043700D02*
X0039205Y0043700D01*
X0046074Y0043700D02*
X0049205Y0043700D01*
X0048740Y0043235D02*
X0048039Y0041544D01*
X0048039Y0033714D01*
X0048740Y0032023D01*
X0050034Y0030729D01*
X0051724Y0030029D01*
X0053554Y0030029D01*
X0055245Y0030729D01*
X0056539Y0032023D01*
X0057239Y0033714D01*
X0057239Y0041544D01*
X0056539Y0043235D01*
X0055245Y0044529D01*
X0053554Y0045229D01*
X0051724Y0045229D01*
X0050034Y0044529D01*
X0048740Y0043235D01*
X0048270Y0042101D02*
X0047009Y0042101D01*
X0047239Y0040503D02*
X0048039Y0040503D01*
X0048039Y0038904D02*
X0047239Y0038904D01*
X0047239Y0037306D02*
X0048039Y0037306D01*
X0048039Y0035707D02*
X0047239Y0035707D01*
X0047239Y0034109D02*
X0048039Y0034109D01*
X0048538Y0032510D02*
X0046741Y0032510D01*
X0045428Y0030912D02*
X0049851Y0030912D01*
X0055428Y0030912D02*
X0065809Y0030912D01*
X0065200Y0030302D02*
X0064515Y0028648D01*
X0064515Y0026858D01*
X0065200Y0025204D01*
X0066466Y0023938D01*
X0068120Y0023253D01*
X0069910Y0023253D01*
X0071564Y0023938D01*
X0072830Y0025204D01*
X0073515Y0026858D01*
X0073515Y0028648D01*
X0072830Y0030302D01*
X0071564Y0031568D01*
X0069910Y0032253D01*
X0068120Y0032253D01*
X0066466Y0031568D01*
X0065200Y0030302D01*
X0064790Y0029313D02*
X0011576Y0029313D01*
X0011575Y0027715D02*
X0064515Y0027715D01*
X0064822Y0026116D02*
X0011575Y0026116D01*
X0011574Y0024518D02*
X0065886Y0024518D01*
X0066466Y0021568D02*
X0065200Y0020302D01*
X0064515Y0018648D01*
X0064515Y0016858D01*
X0065200Y0015204D01*
X0066466Y0013938D01*
X0068120Y0013253D01*
X0069910Y0013253D01*
X0071564Y0013938D01*
X0072830Y0015204D01*
X0073515Y0016858D01*
X0073515Y0018648D01*
X0072830Y0020302D01*
X0071564Y0021568D01*
X0069910Y0022253D01*
X0068120Y0022253D01*
X0066466Y0021568D01*
X0066218Y0021321D02*
X0016843Y0021321D01*
X0013560Y0021321D02*
X0011573Y0021321D01*
X0011574Y0022919D02*
X0185347Y0022919D01*
X0185349Y0021321D02*
X0185265Y0021321D01*
X0185345Y0024518D02*
X0132143Y0024518D01*
X0131564Y0023938D02*
X0132830Y0025204D01*
X0133515Y0026858D01*
X0133515Y0028648D01*
X0132830Y0030302D01*
X0131564Y0031568D01*
X0129910Y0032253D01*
X0128120Y0032253D01*
X0126466Y0031568D01*
X0125200Y0030302D01*
X0124515Y0028648D01*
X0124515Y0026858D01*
X0125200Y0025204D01*
X0126466Y0023938D01*
X0128120Y0023253D01*
X0129910Y0023253D01*
X0131564Y0023938D01*
X0129910Y0022253D02*
X0128120Y0022253D01*
X0126466Y0021568D01*
X0125200Y0020302D01*
X0124515Y0018648D01*
X0124515Y0016858D01*
X0125200Y0015204D01*
X0126466Y0013938D01*
X0128120Y0013253D01*
X0129910Y0013253D01*
X0131564Y0013938D01*
X0132830Y0015204D01*
X0133515Y0016858D01*
X0133515Y0018648D01*
X0132830Y0020302D01*
X0131564Y0021568D01*
X0129910Y0022253D01*
X0131811Y0021321D02*
X0176554Y0021321D01*
X0173967Y0019722D02*
X0133070Y0019722D01*
X0133515Y0018124D02*
X0172369Y0018124D01*
X0171368Y0016525D02*
X0133377Y0016525D01*
X0132552Y0014927D02*
X0170609Y0014927D01*
X0170180Y0013328D02*
X0130091Y0013328D01*
X0129165Y0011730D02*
X0128865Y0011730D01*
X0128865Y0010131D02*
X0129165Y0010131D01*
X0129165Y0008533D02*
X0128865Y0008533D01*
X0126492Y0011730D02*
X0071173Y0011730D01*
X0070091Y0013328D02*
X0127938Y0013328D01*
X0125477Y0014927D02*
X0072552Y0014927D01*
X0073377Y0016525D02*
X0124652Y0016525D01*
X0124515Y0018124D02*
X0073515Y0018124D01*
X0073070Y0019722D02*
X0124959Y0019722D01*
X0126218Y0021321D02*
X0071811Y0021321D01*
X0072143Y0024518D02*
X0125886Y0024518D01*
X0124822Y0026116D02*
X0073207Y0026116D01*
X0073515Y0027715D02*
X0124515Y0027715D01*
X0124790Y0029313D02*
X0073239Y0029313D01*
X0072220Y0030912D02*
X0125809Y0030912D01*
X0126466Y0033938D02*
X0128120Y0033253D01*
X0129910Y0033253D01*
X0131564Y0033938D01*
X0132830Y0035204D01*
X0133515Y0036858D01*
X0133515Y0038648D01*
X0132830Y0040302D01*
X0131564Y0041568D01*
X0129910Y0042253D01*
X0128120Y0042253D01*
X0126466Y0041568D01*
X0125200Y0040302D01*
X0124515Y0038648D01*
X0124515Y0036858D01*
X0125200Y0035204D01*
X0126466Y0033938D01*
X0126295Y0034109D02*
X0071734Y0034109D01*
X0071564Y0033938D02*
X0072830Y0035204D01*
X0073515Y0036858D01*
X0073515Y0038648D01*
X0072830Y0040302D01*
X0071564Y0041568D01*
X0069910Y0042253D01*
X0068120Y0042253D01*
X0066466Y0041568D01*
X0065200Y0040302D01*
X0064515Y0038648D01*
X0064515Y0036858D01*
X0065200Y0035204D01*
X0066466Y0033938D01*
X0068120Y0033253D01*
X0069910Y0033253D01*
X0071564Y0033938D01*
X0073038Y0035707D02*
X0124991Y0035707D01*
X0124515Y0037306D02*
X0073515Y0037306D01*
X0073409Y0038904D02*
X0124621Y0038904D01*
X0125400Y0040503D02*
X0072629Y0040503D01*
X0070276Y0042101D02*
X0127753Y0042101D01*
X0128120Y0043253D02*
X0126466Y0043938D01*
X0125200Y0045204D01*
X0124515Y0046858D01*
X0124515Y0048648D01*
X0125200Y0050302D01*
X0126466Y0051568D01*
X0128120Y0052253D01*
X0129910Y0052253D01*
X0131564Y0051568D01*
X0132830Y0050302D01*
X0133515Y0048648D01*
X0133515Y0046858D01*
X0132830Y0045204D01*
X0131564Y0043938D01*
X0129910Y0043253D01*
X0128120Y0043253D01*
X0127041Y0043700D02*
X0070988Y0043700D01*
X0072869Y0045298D02*
X0125161Y0045298D01*
X0124515Y0046897D02*
X0073515Y0046897D01*
X0073515Y0048495D02*
X0124515Y0048495D01*
X0125113Y0050094D02*
X0072916Y0050094D01*
X0071263Y0051693D02*
X0126766Y0051693D01*
X0128028Y0053291D02*
X0070001Y0053291D01*
X0072515Y0054890D02*
X0125514Y0054890D01*
X0124668Y0056488D02*
X0073361Y0056488D01*
X0073515Y0058087D02*
X0124515Y0058087D01*
X0124944Y0059685D02*
X0073085Y0059685D01*
X0071848Y0061284D02*
X0126181Y0061284D01*
X0125923Y0064481D02*
X0072106Y0064481D01*
X0073192Y0066079D02*
X0124837Y0066079D01*
X0124515Y0067678D02*
X0073515Y0067678D01*
X0073255Y0069276D02*
X0124775Y0069276D01*
X0125772Y0070875D02*
X0072257Y0070875D01*
X0071564Y0073938D02*
X0069910Y0073253D01*
X0068120Y0073253D01*
X0066466Y0073938D01*
X0065200Y0075204D01*
X0064515Y0076858D01*
X0064515Y0078648D01*
X0065200Y0080302D01*
X0066466Y0081568D01*
X0068120Y0082253D01*
X0069910Y0082253D01*
X0071564Y0081568D01*
X0072830Y0080302D01*
X0073515Y0078648D01*
X0073515Y0076858D01*
X0072830Y0075204D01*
X0071564Y0073938D01*
X0071697Y0074072D02*
X0126332Y0074072D01*
X0125007Y0075670D02*
X0073023Y0075670D01*
X0073515Y0077269D02*
X0124515Y0077269D01*
X0124605Y0078867D02*
X0073424Y0078867D01*
X0072666Y0080466D02*
X0125363Y0080466D01*
X0130898Y0083663D02*
X0185265Y0083663D01*
X0185263Y0085261D02*
X0132853Y0085261D01*
X0132478Y0094852D02*
X0149567Y0094852D01*
X0149567Y0096451D02*
X0133346Y0096451D01*
X0133515Y0098049D02*
X0149567Y0098049D01*
X0149624Y0099648D02*
X0133101Y0099648D01*
X0131885Y0101246D02*
X0150312Y0101246D01*
X0152405Y0102845D02*
X0045982Y0102845D01*
X0046327Y0102500D02*
X0045033Y0103794D01*
X0043342Y0104494D01*
X0041512Y0104494D01*
X0039822Y0103794D01*
X0038528Y0102500D01*
X0037827Y0100809D01*
X0037827Y0092979D01*
X0038528Y0091289D01*
X0039822Y0089995D01*
X0041512Y0089294D01*
X0043342Y0089294D01*
X0045033Y0089995D01*
X0046327Y0091289D01*
X0047027Y0092979D01*
X0047027Y0100809D01*
X0046327Y0102500D01*
X0046846Y0101246D02*
X0066144Y0101246D01*
X0064929Y0099648D02*
X0047027Y0099648D01*
X0047027Y0098049D02*
X0064515Y0098049D01*
X0064683Y0096451D02*
X0047027Y0096451D01*
X0047027Y0094852D02*
X0065552Y0094852D01*
X0068118Y0093254D02*
X0047027Y0093254D01*
X0046479Y0091655D02*
X0066676Y0091655D01*
X0065098Y0090057D02*
X0045095Y0090057D01*
X0039760Y0090057D02*
X0035095Y0090057D01*
X0035033Y0089995D02*
X0036327Y0091289D01*
X0037027Y0092979D01*
X0037027Y0100809D01*
X0036327Y0102500D01*
X0035033Y0103794D01*
X0033342Y0104494D01*
X0031512Y0104494D01*
X0029822Y0103794D01*
X0028528Y0102500D01*
X0027827Y0100809D01*
X0027827Y0092979D01*
X0028528Y0091289D01*
X0029822Y0089995D01*
X0031512Y0089294D01*
X0033342Y0089294D01*
X0035033Y0089995D01*
X0036479Y0091655D02*
X0038376Y0091655D01*
X0037827Y0093254D02*
X0037027Y0093254D01*
X0037027Y0094852D02*
X0037827Y0094852D01*
X0037827Y0096451D02*
X0037027Y0096451D01*
X0037027Y0098049D02*
X0037827Y0098049D01*
X0037827Y0099648D02*
X0037027Y0099648D01*
X0036846Y0101246D02*
X0038008Y0101246D01*
X0038872Y0102845D02*
X0035982Y0102845D01*
X0033466Y0104443D02*
X0041389Y0104443D01*
X0043466Y0104443D02*
X0065960Y0104443D01*
X0066466Y0103938D02*
X0068120Y0103253D01*
X0069910Y0103253D01*
X0071564Y0103938D01*
X0072830Y0105204D01*
X0073515Y0106858D01*
X0073515Y0108648D01*
X0072830Y0110302D01*
X0071564Y0111568D01*
X0069910Y0112253D01*
X0068120Y0112253D01*
X0066466Y0111568D01*
X0065200Y0110302D01*
X0064515Y0108648D01*
X0064515Y0106858D01*
X0065200Y0105204D01*
X0066466Y0103938D01*
X0064853Y0106042D02*
X0011600Y0106042D01*
X0011601Y0107640D02*
X0064515Y0107640D01*
X0064759Y0109239D02*
X0011602Y0109239D01*
X0011602Y0110837D02*
X0065735Y0110837D01*
X0066369Y0114034D02*
X0011603Y0114034D01*
X0011603Y0112436D02*
X0185226Y0112436D01*
X0182333Y0120429D02*
X0176633Y0120429D01*
X0176779Y0120503D02*
X0177390Y0120947D01*
X0177924Y0121481D01*
X0178368Y0122092D01*
X0178711Y0122766D01*
X0178945Y0123484D01*
X0179063Y0124230D01*
X0179063Y0127408D01*
X0174463Y0127408D01*
X0174463Y0127808D01*
X0179063Y0127808D01*
X0179063Y0130986D01*
X0178945Y0131732D01*
X0178711Y0132451D01*
X0178368Y0133124D01*
X0177924Y0133735D01*
X0177390Y0134269D01*
X0176779Y0134713D01*
X0176105Y0135056D01*
X0175387Y0135290D01*
X0174641Y0135408D01*
X0174463Y0135408D01*
X0174463Y0127808D01*
X0174063Y0127808D01*
X0174063Y0127408D01*
X0174463Y0127408D01*
X0174463Y0119808D01*
X0174641Y0119808D01*
X0175387Y0119926D01*
X0176105Y0120160D01*
X0176779Y0120503D01*
X0178321Y0122027D02*
X0180353Y0122027D01*
X0179691Y0123626D02*
X0178967Y0123626D01*
X0179063Y0125224D02*
X0179663Y0125224D01*
X0179663Y0126823D02*
X0179063Y0126823D01*
X0179063Y0128421D02*
X0179663Y0128421D01*
X0179663Y0130020D02*
X0179063Y0130020D01*
X0178963Y0131618D02*
X0179702Y0131618D01*
X0180366Y0133217D02*
X0178301Y0133217D01*
X0176579Y0134815D02*
X0182399Y0134815D01*
X0174463Y0134815D02*
X0174063Y0134815D01*
X0174063Y0135408D02*
X0173885Y0135408D01*
X0173139Y0135290D01*
X0172420Y0135056D01*
X0171747Y0134713D01*
X0171136Y0134269D01*
X0170602Y0133735D01*
X0170158Y0133124D01*
X0169815Y0132451D01*
X0169581Y0131732D01*
X0169463Y0130986D01*
X0169463Y0127808D01*
X0174063Y0127808D01*
X0174063Y0135408D01*
X0174063Y0133217D02*
X0174463Y0133217D01*
X0174463Y0131618D02*
X0174063Y0131618D01*
X0174063Y0130020D02*
X0174463Y0130020D01*
X0174463Y0128421D02*
X0174063Y0128421D01*
X0174063Y0127408D02*
X0169463Y0127408D01*
X0169463Y0124230D01*
X0169581Y0123484D01*
X0169815Y0122766D01*
X0170158Y0122092D01*
X0170602Y0121481D01*
X0171136Y0120947D01*
X0171747Y0120503D01*
X0172420Y0120160D01*
X0173139Y0119926D01*
X0173885Y0119808D01*
X0174063Y0119808D01*
X0174063Y0127408D01*
X0174063Y0126823D02*
X0174463Y0126823D01*
X0174463Y0125224D02*
X0174063Y0125224D01*
X0174063Y0123626D02*
X0174463Y0123626D01*
X0174463Y0122027D02*
X0174063Y0122027D01*
X0174063Y0120429D02*
X0174463Y0120429D01*
X0171893Y0120429D02*
X0166193Y0120429D01*
X0168173Y0122027D02*
X0170205Y0122027D01*
X0169559Y0123626D02*
X0168835Y0123626D01*
X0168863Y0125224D02*
X0169463Y0125224D01*
X0169463Y0126823D02*
X0168863Y0126823D01*
X0168863Y0128421D02*
X0169463Y0128421D01*
X0169463Y0130020D02*
X0168863Y0130020D01*
X0168824Y0131618D02*
X0169563Y0131618D01*
X0170225Y0133217D02*
X0168160Y0133217D01*
X0166127Y0134815D02*
X0171947Y0134815D01*
X0171933Y0102845D02*
X0165929Y0102845D01*
X0166773Y0102496D02*
X0165082Y0103196D01*
X0163252Y0103196D01*
X0161561Y0102496D01*
X0160267Y0101202D01*
X0159567Y0099511D01*
X0159567Y0091681D01*
X0160267Y0089990D01*
X0161561Y0088696D01*
X0163252Y0087996D01*
X0165082Y0087996D01*
X0166773Y0088696D01*
X0168067Y0089990D01*
X0168767Y0091681D01*
X0168767Y0099511D01*
X0168067Y0101202D01*
X0166773Y0102496D01*
X0168022Y0101246D02*
X0170160Y0101246D01*
X0169474Y0099648D02*
X0168710Y0099648D01*
X0168767Y0098049D02*
X0169367Y0098049D01*
X0169367Y0096451D02*
X0168767Y0096451D01*
X0168767Y0094852D02*
X0169367Y0094852D01*
X0169367Y0093254D02*
X0168767Y0093254D01*
X0168756Y0091655D02*
X0169456Y0091655D01*
X0170079Y0090057D02*
X0168094Y0090057D01*
X0166198Y0088458D02*
X0171715Y0088458D01*
X0173967Y0088458D02*
X0174367Y0088458D01*
X0174367Y0090057D02*
X0173967Y0090057D01*
X0173967Y0091655D02*
X0174367Y0091655D01*
X0174367Y0093254D02*
X0173967Y0093254D01*
X0173967Y0094852D02*
X0174367Y0094852D01*
X0174367Y0096451D02*
X0173967Y0096451D01*
X0173967Y0098049D02*
X0174367Y0098049D01*
X0174367Y0099648D02*
X0173967Y0099648D01*
X0173967Y0101246D02*
X0174367Y0101246D01*
X0174367Y0102845D02*
X0173967Y0102845D01*
X0162405Y0102845D02*
X0155929Y0102845D01*
X0158022Y0101246D02*
X0160312Y0101246D01*
X0159624Y0099648D02*
X0158710Y0099648D01*
X0158767Y0098049D02*
X0159567Y0098049D01*
X0159567Y0096451D02*
X0158767Y0096451D01*
X0158767Y0094852D02*
X0159567Y0094852D01*
X0159567Y0093254D02*
X0158767Y0093254D01*
X0158756Y0091655D02*
X0159578Y0091655D01*
X0160240Y0090057D02*
X0158094Y0090057D01*
X0156198Y0088458D02*
X0162136Y0088458D01*
X0178407Y0072473D02*
X0180205Y0072473D01*
X0179614Y0070875D02*
X0178956Y0070875D01*
X0179014Y0069276D02*
X0179614Y0069276D01*
X0179614Y0067678D02*
X0179014Y0067678D01*
X0179014Y0066079D02*
X0179614Y0066079D01*
X0179614Y0064481D02*
X0179014Y0064481D01*
X0178855Y0062882D02*
X0179752Y0062882D01*
X0180555Y0061284D02*
X0178079Y0061284D01*
X0185302Y0056488D02*
X0133361Y0056488D01*
X0132515Y0054890D02*
X0185304Y0054890D01*
X0185306Y0053291D02*
X0130001Y0053291D01*
X0131263Y0051693D02*
X0185308Y0051693D01*
X0185310Y0050094D02*
X0132916Y0050094D01*
X0133515Y0048495D02*
X0185312Y0048495D01*
X0185315Y0046897D02*
X0133515Y0046897D01*
X0132869Y0045298D02*
X0185317Y0045298D01*
X0181344Y0043700D02*
X0177330Y0043700D01*
X0177322Y0043708D02*
X0176711Y0044152D01*
X0176038Y0044495D01*
X0175319Y0044728D01*
X0174573Y0044846D01*
X0174395Y0044846D01*
X0174395Y0037246D01*
X0173995Y0037246D01*
X0173995Y0036846D01*
X0169395Y0036846D01*
X0169395Y0033669D01*
X0169514Y0032922D01*
X0169747Y0032204D01*
X0170090Y0031531D01*
X0170534Y0030919D01*
X0171068Y0030385D01*
X0171680Y0029941D01*
X0172353Y0029598D01*
X0173071Y0029365D01*
X0173818Y0029246D01*
X0173995Y0029246D01*
X0173995Y0036846D01*
X0174395Y0036846D01*
X0174395Y0029246D01*
X0174573Y0029246D01*
X0175319Y0029365D01*
X0176038Y0029598D01*
X0176711Y0029941D01*
X0177322Y0030385D01*
X0177857Y0030919D01*
X0178301Y0031531D01*
X0178644Y0032204D01*
X0178877Y0032922D01*
X0178995Y0033669D01*
X0178995Y0036846D01*
X0174395Y0036846D01*
X0174395Y0037246D01*
X0178995Y0037246D01*
X0178995Y0040424D01*
X0178877Y0041170D01*
X0178644Y0041889D01*
X0178301Y0042562D01*
X0177857Y0043173D01*
X0177322Y0043708D01*
X0178535Y0042101D02*
X0180068Y0042101D01*
X0179595Y0040503D02*
X0178983Y0040503D01*
X0178995Y0038904D02*
X0179595Y0038904D01*
X0179595Y0037306D02*
X0178995Y0037306D01*
X0178995Y0035707D02*
X0179595Y0035707D01*
X0179595Y0034109D02*
X0178995Y0034109D01*
X0178743Y0032510D02*
X0179853Y0032510D01*
X0180825Y0030912D02*
X0177849Y0030912D01*
X0174996Y0029313D02*
X0185338Y0029313D01*
X0185341Y0027715D02*
X0133515Y0027715D01*
X0133239Y0029313D02*
X0173395Y0029313D01*
X0173995Y0029313D02*
X0174395Y0029313D01*
X0174395Y0030912D02*
X0173995Y0030912D01*
X0173995Y0032510D02*
X0174395Y0032510D01*
X0174395Y0034109D02*
X0173995Y0034109D01*
X0173995Y0035707D02*
X0174395Y0035707D01*
X0173995Y0037246D02*
X0169395Y0037246D01*
X0169395Y0040424D01*
X0169514Y0041170D01*
X0169747Y0041889D01*
X0170090Y0042562D01*
X0170534Y0043173D01*
X0171068Y0043708D01*
X0171680Y0044152D01*
X0172353Y0044495D01*
X0173071Y0044728D01*
X0173818Y0044846D01*
X0173995Y0044846D01*
X0173995Y0037246D01*
X0173995Y0037306D02*
X0174395Y0037306D01*
X0174395Y0038904D02*
X0173995Y0038904D01*
X0173995Y0040503D02*
X0174395Y0040503D01*
X0174395Y0042101D02*
X0173995Y0042101D01*
X0173995Y0043700D02*
X0174395Y0043700D01*
X0171061Y0043700D02*
X0167047Y0043700D01*
X0166801Y0043946D02*
X0165110Y0044646D01*
X0163280Y0044646D01*
X0161590Y0043946D01*
X0160296Y0042652D01*
X0159595Y0040961D01*
X0159595Y0033131D01*
X0160296Y0031441D01*
X0161590Y0030147D01*
X0163280Y0029446D01*
X0165110Y0029446D01*
X0166801Y0030147D01*
X0168095Y0031441D01*
X0168795Y0033131D01*
X0168795Y0040961D01*
X0168095Y0042652D01*
X0166801Y0043946D01*
X0168323Y0042101D02*
X0169855Y0042101D01*
X0169408Y0040503D02*
X0168795Y0040503D01*
X0168795Y0038904D02*
X0169395Y0038904D01*
X0169395Y0037306D02*
X0168795Y0037306D01*
X0168795Y0035707D02*
X0169395Y0035707D01*
X0169395Y0034109D02*
X0168795Y0034109D01*
X0168538Y0032510D02*
X0169647Y0032510D01*
X0170542Y0030912D02*
X0167566Y0030912D01*
X0160825Y0030912D02*
X0157566Y0030912D01*
X0158095Y0031441D02*
X0156801Y0030147D01*
X0155110Y0029446D01*
X0153280Y0029446D01*
X0151590Y0030147D01*
X0150296Y0031441D01*
X0149595Y0033131D01*
X0149595Y0040961D01*
X0150296Y0042652D01*
X0151590Y0043946D01*
X0153280Y0044646D01*
X0155110Y0044646D01*
X0156801Y0043946D01*
X0158095Y0042652D01*
X0158795Y0040961D01*
X0158795Y0033131D01*
X0158095Y0031441D01*
X0158538Y0032510D02*
X0159853Y0032510D01*
X0159595Y0034109D02*
X0158795Y0034109D01*
X0158795Y0035707D02*
X0159595Y0035707D01*
X0159595Y0037306D02*
X0158795Y0037306D01*
X0158795Y0038904D02*
X0159595Y0038904D01*
X0159595Y0040503D02*
X0158795Y0040503D01*
X0158323Y0042101D02*
X0160068Y0042101D01*
X0161344Y0043700D02*
X0157047Y0043700D01*
X0151344Y0043700D02*
X0147047Y0043700D01*
X0146801Y0043946D02*
X0145110Y0044646D01*
X0143280Y0044646D01*
X0141590Y0043946D01*
X0140296Y0042652D01*
X0139595Y0040961D01*
X0139595Y0033131D01*
X0140296Y0031441D01*
X0141590Y0030147D01*
X0143280Y0029446D01*
X0145110Y0029446D01*
X0146801Y0030147D01*
X0148095Y0031441D01*
X0148795Y0033131D01*
X0148795Y0040961D01*
X0148095Y0042652D01*
X0146801Y0043946D01*
X0148323Y0042101D02*
X0150068Y0042101D01*
X0149595Y0040503D02*
X0148795Y0040503D01*
X0148795Y0038904D02*
X0149595Y0038904D01*
X0149595Y0037306D02*
X0148795Y0037306D01*
X0148795Y0035707D02*
X0149595Y0035707D01*
X0149595Y0034109D02*
X0148795Y0034109D01*
X0148538Y0032510D02*
X0149853Y0032510D01*
X0150825Y0030912D02*
X0147566Y0030912D01*
X0140825Y0030912D02*
X0132220Y0030912D01*
X0131734Y0034109D02*
X0139595Y0034109D01*
X0139595Y0035707D02*
X0133038Y0035707D01*
X0133515Y0037306D02*
X0139595Y0037306D01*
X0139595Y0038904D02*
X0133409Y0038904D01*
X0132629Y0040503D02*
X0139595Y0040503D01*
X0140068Y0042101D02*
X0130276Y0042101D01*
X0130988Y0043700D02*
X0141344Y0043700D01*
X0139853Y0032510D02*
X0056741Y0032510D01*
X0057239Y0034109D02*
X0066295Y0034109D01*
X0064991Y0035707D02*
X0057239Y0035707D01*
X0057239Y0037306D02*
X0064515Y0037306D01*
X0064621Y0038904D02*
X0057239Y0038904D01*
X0057239Y0040503D02*
X0065400Y0040503D01*
X0067753Y0042101D02*
X0057009Y0042101D01*
X0056074Y0043700D02*
X0067041Y0043700D01*
X0051406Y0059685D02*
X0043911Y0059685D01*
X0043574Y0059545D02*
X0045264Y0060246D01*
X0046558Y0061540D01*
X0047259Y0063230D01*
X0047259Y0071060D01*
X0046558Y0072751D01*
X0045264Y0074045D01*
X0043574Y0074745D01*
X0041744Y0074745D01*
X0040053Y0074045D01*
X0038759Y0072751D01*
X0038059Y0071060D01*
X0038059Y0063230D01*
X0038759Y0061540D01*
X0040053Y0060246D01*
X0041744Y0059545D01*
X0043574Y0059545D01*
X0041406Y0059685D02*
X0033911Y0059685D01*
X0033574Y0059545D02*
X0035264Y0060246D01*
X0036558Y0061540D01*
X0037259Y0063230D01*
X0037259Y0071060D01*
X0036558Y0072751D01*
X0035264Y0074045D01*
X0033574Y0074745D01*
X0031744Y0074745D01*
X0030053Y0074045D01*
X0028759Y0072751D01*
X0028059Y0071060D01*
X0028059Y0063230D01*
X0028759Y0061540D01*
X0030053Y0060246D01*
X0031744Y0059545D01*
X0033574Y0059545D01*
X0031406Y0059685D02*
X0024465Y0059685D01*
X0024501Y0059697D02*
X0025174Y0060040D01*
X0025786Y0060484D01*
X0026320Y0061018D01*
X0026764Y0061629D01*
X0027107Y0062303D01*
X0027340Y0063021D01*
X0027459Y0063767D01*
X0027459Y0066945D01*
X0022859Y0066945D01*
X0022859Y0067345D01*
X0027459Y0067345D01*
X0027459Y0070523D01*
X0027340Y0071269D01*
X0027107Y0071988D01*
X0026764Y0072661D01*
X0026320Y0073272D01*
X0025786Y0073806D01*
X0025174Y0074251D01*
X0024501Y0074594D01*
X0023783Y0074827D01*
X0023036Y0074945D01*
X0022859Y0074945D01*
X0022859Y0067345D01*
X0022459Y0067345D01*
X0022459Y0074945D01*
X0022281Y0074945D01*
X0021535Y0074827D01*
X0020816Y0074594D01*
X0020143Y0074251D01*
X0019532Y0073806D01*
X0018997Y0073272D01*
X0018553Y0072661D01*
X0018210Y0071988D01*
X0017977Y0071269D01*
X0017859Y0070523D01*
X0017859Y0067345D01*
X0022458Y0067345D01*
X0022458Y0066945D01*
X0017859Y0066945D01*
X0017859Y0063767D01*
X0017977Y0063021D01*
X0018210Y0062303D01*
X0018553Y0061629D01*
X0018997Y0061018D01*
X0019532Y0060484D01*
X0020143Y0060040D01*
X0020816Y0059697D01*
X0021535Y0059463D01*
X0022281Y0059345D01*
X0022459Y0059345D01*
X0022459Y0066945D01*
X0022859Y0066945D01*
X0022859Y0059345D01*
X0023036Y0059345D01*
X0023783Y0059463D01*
X0024501Y0059697D01*
X0022859Y0059685D02*
X0022459Y0059685D01*
X0022459Y0061284D02*
X0022859Y0061284D01*
X0022859Y0062882D02*
X0022459Y0062882D01*
X0022459Y0064481D02*
X0022859Y0064481D01*
X0022859Y0066079D02*
X0022459Y0066079D01*
X0022459Y0067678D02*
X0022859Y0067678D01*
X0022859Y0069276D02*
X0022459Y0069276D01*
X0022459Y0070875D02*
X0022859Y0070875D01*
X0022859Y0072473D02*
X0022459Y0072473D01*
X0022459Y0074072D02*
X0022859Y0074072D01*
X0019897Y0074072D02*
X0015200Y0074072D01*
X0016673Y0072473D02*
X0018458Y0072473D01*
X0017914Y0070875D02*
X0017259Y0070875D01*
X0017259Y0069276D02*
X0017859Y0069276D01*
X0017859Y0067678D02*
X0017259Y0067678D01*
X0017259Y0066079D02*
X0017859Y0066079D01*
X0017859Y0064481D02*
X0017259Y0064481D01*
X0017114Y0062882D02*
X0018022Y0062882D01*
X0018804Y0061284D02*
X0016302Y0061284D01*
X0013911Y0059685D02*
X0020852Y0059685D01*
X0026513Y0061284D02*
X0029015Y0061284D01*
X0028203Y0062882D02*
X0027295Y0062882D01*
X0027459Y0064481D02*
X0028059Y0064481D01*
X0028059Y0066079D02*
X0027459Y0066079D01*
X0027459Y0067678D02*
X0028059Y0067678D01*
X0028059Y0069276D02*
X0027459Y0069276D01*
X0027403Y0070875D02*
X0028059Y0070875D01*
X0028644Y0072473D02*
X0026860Y0072473D01*
X0025420Y0074072D02*
X0030118Y0074072D01*
X0035200Y0074072D02*
X0040118Y0074072D01*
X0038644Y0072473D02*
X0036673Y0072473D01*
X0037259Y0070875D02*
X0038059Y0070875D01*
X0038059Y0069276D02*
X0037259Y0069276D01*
X0037259Y0067678D02*
X0038059Y0067678D01*
X0038059Y0066079D02*
X0037259Y0066079D01*
X0037259Y0064481D02*
X0038059Y0064481D01*
X0038203Y0062882D02*
X0037114Y0062882D01*
X0036302Y0061284D02*
X0039015Y0061284D01*
X0046302Y0061284D02*
X0049015Y0061284D01*
X0048203Y0062882D02*
X0047114Y0062882D01*
X0047259Y0064481D02*
X0048059Y0064481D01*
X0048059Y0066079D02*
X0047259Y0066079D01*
X0047259Y0067678D02*
X0048059Y0067678D01*
X0048059Y0069276D02*
X0047259Y0069276D01*
X0047259Y0070875D02*
X0048059Y0070875D01*
X0048644Y0072473D02*
X0046673Y0072473D01*
X0045200Y0074072D02*
X0050118Y0074072D01*
X0055200Y0074072D02*
X0066332Y0074072D01*
X0065007Y0075670D02*
X0011591Y0075670D01*
X0011591Y0077269D02*
X0064515Y0077269D01*
X0064605Y0078867D02*
X0011592Y0078867D01*
X0011592Y0080466D02*
X0065363Y0080466D01*
X0067131Y0083663D02*
X0011593Y0083663D01*
X0011594Y0085261D02*
X0065176Y0085261D01*
X0064515Y0086860D02*
X0011594Y0086860D01*
X0011595Y0088458D02*
X0064515Y0088458D01*
X0067663Y0082064D02*
X0011593Y0082064D01*
X0015095Y0090057D02*
X0019543Y0090057D01*
X0019300Y0090233D02*
X0019912Y0089789D01*
X0020585Y0089446D01*
X0021303Y0089213D01*
X0022050Y0089094D01*
X0022227Y0089094D01*
X0022227Y0096694D01*
X0022627Y0096694D01*
X0022627Y0089094D01*
X0022805Y0089094D01*
X0023551Y0089213D01*
X0024270Y0089446D01*
X0024943Y0089789D01*
X0025554Y0090233D01*
X0026089Y0090767D01*
X0026533Y0091379D01*
X0026876Y0092052D01*
X0027109Y0092770D01*
X0027227Y0093517D01*
X0027227Y0096694D01*
X0022627Y0096694D01*
X0022627Y0097094D01*
X0027227Y0097094D01*
X0027227Y0100272D01*
X0027109Y0101018D01*
X0026876Y0101737D01*
X0026533Y0102410D01*
X0026089Y0103021D01*
X0025554Y0103556D01*
X0024943Y0104000D01*
X0024270Y0104343D01*
X0023551Y0104576D01*
X0022805Y0104694D01*
X0022627Y0104694D01*
X0022627Y0097095D01*
X0022227Y0097095D01*
X0022227Y0104694D01*
X0022050Y0104694D01*
X0021303Y0104576D01*
X0020585Y0104343D01*
X0019912Y0104000D01*
X0019300Y0103556D01*
X0018766Y0103021D01*
X0018322Y0102410D01*
X0017979Y0101737D01*
X0017746Y0101018D01*
X0017627Y0100272D01*
X0017627Y0097094D01*
X0022227Y0097094D01*
X0022227Y0096694D01*
X0017627Y0096694D01*
X0017627Y0093517D01*
X0017746Y0092770D01*
X0017979Y0092052D01*
X0018322Y0091379D01*
X0018766Y0090767D01*
X0019300Y0090233D01*
X0018181Y0091655D02*
X0016479Y0091655D01*
X0017027Y0093254D02*
X0017669Y0093254D01*
X0017627Y0094852D02*
X0017027Y0094852D01*
X0017027Y0096451D02*
X0017627Y0096451D01*
X0017627Y0098049D02*
X0017027Y0098049D01*
X0017027Y0099648D02*
X0017627Y0099648D01*
X0017820Y0101246D02*
X0016846Y0101246D01*
X0015982Y0102845D02*
X0018638Y0102845D01*
X0020894Y0104443D02*
X0013466Y0104443D01*
X0022227Y0104443D02*
X0022627Y0104443D01*
X0023960Y0104443D02*
X0031389Y0104443D01*
X0028872Y0102845D02*
X0026217Y0102845D01*
X0027035Y0101246D02*
X0028008Y0101246D01*
X0027827Y0099648D02*
X0027227Y0099648D01*
X0027227Y0098049D02*
X0027827Y0098049D01*
X0027827Y0096451D02*
X0027227Y0096451D01*
X0027227Y0094852D02*
X0027827Y0094852D01*
X0027827Y0093254D02*
X0027186Y0093254D01*
X0026674Y0091655D02*
X0028376Y0091655D01*
X0029760Y0090057D02*
X0025311Y0090057D01*
X0022627Y0090057D02*
X0022227Y0090057D01*
X0022227Y0091655D02*
X0022627Y0091655D01*
X0022627Y0093254D02*
X0022227Y0093254D01*
X0022227Y0094852D02*
X0022627Y0094852D01*
X0022627Y0096451D02*
X0022227Y0096451D01*
X0022227Y0098049D02*
X0022627Y0098049D01*
X0022627Y0099648D02*
X0022227Y0099648D01*
X0022227Y0101246D02*
X0022627Y0101246D01*
X0022627Y0102845D02*
X0022227Y0102845D01*
X0011604Y0115633D02*
X0065022Y0115633D01*
X0064515Y0117231D02*
X0011604Y0117231D01*
X0011605Y0118830D02*
X0064590Y0118830D01*
X0065326Y0120429D02*
X0044269Y0120429D01*
X0041045Y0120429D02*
X0034269Y0120429D01*
X0033572Y0120140D02*
X0035263Y0120840D01*
X0036557Y0122134D01*
X0037257Y0123825D01*
X0037257Y0131655D01*
X0036557Y0133345D01*
X0035263Y0134639D01*
X0033572Y0135340D01*
X0031742Y0135340D01*
X0030052Y0134639D01*
X0028758Y0133345D01*
X0028057Y0131655D01*
X0028057Y0123825D01*
X0028758Y0122134D01*
X0030052Y0120840D01*
X0031742Y0120140D01*
X0033572Y0120140D01*
X0031045Y0120429D02*
X0024769Y0120429D01*
X0024500Y0120291D02*
X0025173Y0120634D01*
X0025784Y0121079D01*
X0026318Y0121613D01*
X0026763Y0122224D01*
X0027106Y0122897D01*
X0027339Y0123616D01*
X0027457Y0124362D01*
X0027457Y0127540D01*
X0022857Y0127540D01*
X0022857Y0119940D01*
X0023035Y0119940D01*
X0023781Y0120058D01*
X0024500Y0120291D01*
X0022857Y0120429D02*
X0022457Y0120429D01*
X0022457Y0119940D02*
X0022457Y0127540D01*
X0017857Y0127540D01*
X0017857Y0124362D01*
X0017975Y0123616D01*
X0018209Y0122897D01*
X0018552Y0122224D01*
X0018996Y0121613D01*
X0019530Y0121079D01*
X0020141Y0120634D01*
X0020815Y0120291D01*
X0021533Y0120058D01*
X0022279Y0119940D01*
X0022457Y0119940D01*
X0020546Y0120429D02*
X0014269Y0120429D01*
X0016450Y0122027D02*
X0018695Y0122027D01*
X0017974Y0123626D02*
X0017175Y0123626D01*
X0017257Y0125224D02*
X0017857Y0125224D01*
X0017857Y0126823D02*
X0017257Y0126823D01*
X0017857Y0127940D02*
X0022457Y0127940D01*
X0022457Y0135540D01*
X0022279Y0135540D01*
X0021533Y0135422D01*
X0020815Y0135188D01*
X0020141Y0134845D01*
X0019530Y0134401D01*
X0018996Y0133867D01*
X0018552Y0133256D01*
X0018209Y0132582D01*
X0017975Y0131864D01*
X0017857Y0131118D01*
X0017857Y0127940D01*
X0017857Y0128421D02*
X0017257Y0128421D01*
X0017257Y0130020D02*
X0017857Y0130020D01*
X0017936Y0131618D02*
X0017257Y0131618D01*
X0016610Y0133217D02*
X0018532Y0133217D01*
X0020100Y0134815D02*
X0014839Y0134815D01*
X0022457Y0134815D02*
X0022857Y0134815D01*
X0022857Y0135540D02*
X0022857Y0127940D01*
X0022457Y0127940D01*
X0022457Y0127540D01*
X0022857Y0127540D01*
X0022857Y0127940D01*
X0027457Y0127940D01*
X0027457Y0131118D01*
X0027339Y0131864D01*
X0027106Y0132582D01*
X0026763Y0133256D01*
X0026318Y0133867D01*
X0025784Y0134401D01*
X0025173Y0134845D01*
X0024500Y0135188D01*
X0023781Y0135422D01*
X0023035Y0135540D01*
X0022857Y0135540D01*
X0022857Y0133217D02*
X0022457Y0133217D01*
X0022457Y0131618D02*
X0022857Y0131618D01*
X0022857Y0130020D02*
X0022457Y0130020D01*
X0022457Y0128421D02*
X0022857Y0128421D01*
X0022857Y0126823D02*
X0022457Y0126823D01*
X0022457Y0125224D02*
X0022857Y0125224D01*
X0022857Y0123626D02*
X0022457Y0123626D01*
X0022457Y0122027D02*
X0022857Y0122027D01*
X0026619Y0122027D02*
X0028865Y0122027D01*
X0028140Y0123626D02*
X0027341Y0123626D01*
X0027457Y0125224D02*
X0028057Y0125224D01*
X0028057Y0126823D02*
X0027457Y0126823D01*
X0027457Y0128421D02*
X0028057Y0128421D01*
X0028057Y0130020D02*
X0027457Y0130020D01*
X0027378Y0131618D02*
X0028057Y0131618D01*
X0028704Y0133217D02*
X0026782Y0133217D01*
X0025214Y0134815D02*
X0030476Y0134815D01*
X0034839Y0134815D02*
X0040476Y0134815D01*
X0038704Y0133217D02*
X0036610Y0133217D01*
X0037257Y0131618D02*
X0038057Y0131618D01*
X0038057Y0130020D02*
X0037257Y0130020D01*
X0037257Y0128421D02*
X0038057Y0128421D01*
X0038057Y0126823D02*
X0037257Y0126823D01*
X0037257Y0125224D02*
X0038057Y0125224D01*
X0038140Y0123626D02*
X0037175Y0123626D01*
X0036450Y0122027D02*
X0038865Y0122027D01*
X0046450Y0122027D02*
X0067574Y0122027D01*
X0067221Y0123626D02*
X0047175Y0123626D01*
X0047257Y0125224D02*
X0065191Y0125224D01*
X0064529Y0126823D02*
X0047257Y0126823D01*
X0047257Y0128421D02*
X0064515Y0128421D01*
X0065083Y0130020D02*
X0047257Y0130020D01*
X0047257Y0131618D02*
X0066586Y0131618D01*
X0072703Y0120429D02*
X0125326Y0120429D01*
X0124590Y0118830D02*
X0073439Y0118830D01*
X0073515Y0117231D02*
X0124515Y0117231D01*
X0125022Y0115633D02*
X0073007Y0115633D01*
X0071660Y0114034D02*
X0126369Y0114034D01*
X0125735Y0110837D02*
X0072294Y0110837D01*
X0073270Y0109239D02*
X0124759Y0109239D01*
X0124515Y0107640D02*
X0073515Y0107640D01*
X0073177Y0106042D02*
X0124853Y0106042D01*
X0125960Y0104443D02*
X0072069Y0104443D01*
X0071885Y0101246D02*
X0126144Y0101246D01*
X0124929Y0099648D02*
X0073101Y0099648D01*
X0073515Y0098049D02*
X0124515Y0098049D01*
X0124683Y0096451D02*
X0073346Y0096451D01*
X0072478Y0094852D02*
X0125552Y0094852D01*
X0140205Y0072473D02*
X0056673Y0072473D01*
X0057259Y0070875D02*
X0065772Y0070875D01*
X0064775Y0069276D02*
X0057259Y0069276D01*
X0057259Y0067678D02*
X0064515Y0067678D01*
X0064837Y0066079D02*
X0057259Y0066079D01*
X0064959Y0019722D02*
X0020987Y0019722D01*
X0022969Y0018124D02*
X0064515Y0018124D01*
X0064652Y0016525D02*
X0024296Y0016525D01*
X0025219Y0014927D02*
X0065477Y0014927D01*
X0067938Y0013328D02*
X0025723Y0013328D01*
X0026103Y0011730D02*
X0066856Y0011730D01*
X0065129Y0010131D02*
X0026103Y0010131D01*
X0025968Y0008533D02*
X0064515Y0008533D01*
X0064515Y0006934D02*
X0032843Y0006934D01*
X0072900Y0010131D02*
X0124951Y0010131D01*
X0124380Y0008533D02*
X0073515Y0008533D01*
X0073515Y0006934D02*
X0124386Y0006934D01*
X0131538Y0011730D02*
X0170007Y0011730D01*
X0170007Y0010131D02*
X0133078Y0010131D01*
X0133650Y0008533D02*
X0170350Y0008533D01*
X0170810Y0006934D02*
X0133643Y0006934D01*
X0133207Y0026116D02*
X0185343Y0026116D01*
X0140555Y0061284D02*
X0131848Y0061284D01*
X0083328Y0144406D02*
X0082928Y0144406D01*
X0082928Y0146005D02*
X0083328Y0146005D01*
X0083328Y0147603D02*
X0082928Y0147603D01*
X0082928Y0149202D02*
X0083328Y0149202D01*
X0083328Y0152399D02*
X0082928Y0152399D01*
X0082928Y0153997D02*
X0083328Y0153997D01*
X0083328Y0155596D02*
X0082928Y0155596D01*
X0082928Y0157194D02*
X0083328Y0157194D01*
X0086499Y0157194D02*
X0090040Y0157194D01*
X0088902Y0155596D02*
X0087584Y0155596D01*
X0087928Y0153997D02*
X0088528Y0153997D01*
X0088528Y0152399D02*
X0087928Y0152399D01*
X0079757Y0157194D02*
X0076216Y0157194D01*
X0077354Y0155596D02*
X0078672Y0155596D01*
X0078328Y0153997D02*
X0077728Y0153997D01*
X0077728Y0152399D02*
X0078328Y0152399D01*
X0022476Y0152399D02*
X0021320Y0152399D01*
X0021320Y0153997D02*
X0022476Y0153997D01*
X0022476Y0155596D02*
X0021320Y0155596D01*
X0021320Y0157194D02*
X0022476Y0157194D01*
X0022476Y0158793D02*
X0021320Y0158793D01*
X0021320Y0160391D02*
X0022476Y0160391D01*
X0022476Y0161990D02*
X0021320Y0161990D01*
X0021320Y0163588D02*
X0022476Y0163588D01*
X0014272Y0163588D02*
X0011619Y0163588D01*
X0011619Y0161990D02*
X0012255Y0161990D01*
X0011955Y0153997D02*
X0011616Y0153997D01*
X0011616Y0152399D02*
X0013596Y0152399D01*
X0015038Y0171581D02*
X0011622Y0171581D01*
X0011622Y0173179D02*
X0012628Y0173179D01*
X0012013Y0181172D02*
X0011625Y0181172D01*
X0011625Y0182770D02*
X0013612Y0182770D01*
X0011626Y0184369D02*
X0170586Y0184369D01*
X0170586Y0185967D02*
X0011626Y0185967D01*
X0011627Y0187566D02*
X0170864Y0187566D01*
X0185115Y0174778D02*
X0185142Y0174778D01*
M02*
