G75*
%MOIN*%
%OFA0B0*%
%FSLAX25Y25*%
%IPPOS*%
%LPD*%
%AMOC8*
5,1,8,0,0,1.08239X$1,22.5*
%
%ADD10C,0.00000*%
%ADD11C,0.06000*%
%ADD12C,0.05800*%
%ADD13C,0.09370*%
%ADD14C,0.01600*%
D10*
X0006767Y0002139D02*
X0006829Y0193509D01*
X0189917Y0193413D01*
X0190175Y0002107D01*
X0006767Y0002139D01*
X0009099Y0010474D02*
X0009101Y0010630D01*
X0009107Y0010786D01*
X0009117Y0010941D01*
X0009131Y0011096D01*
X0009149Y0011251D01*
X0009171Y0011405D01*
X0009196Y0011559D01*
X0009226Y0011712D01*
X0009260Y0011864D01*
X0009297Y0012016D01*
X0009338Y0012166D01*
X0009383Y0012315D01*
X0009432Y0012463D01*
X0009485Y0012610D01*
X0009541Y0012755D01*
X0009601Y0012899D01*
X0009665Y0013041D01*
X0009733Y0013182D01*
X0009804Y0013320D01*
X0009878Y0013457D01*
X0009956Y0013592D01*
X0010037Y0013725D01*
X0010122Y0013856D01*
X0010210Y0013985D01*
X0010301Y0014111D01*
X0010396Y0014235D01*
X0010493Y0014356D01*
X0010594Y0014475D01*
X0010698Y0014592D01*
X0010804Y0014705D01*
X0010914Y0014816D01*
X0011026Y0014924D01*
X0011141Y0015029D01*
X0011259Y0015132D01*
X0011379Y0015231D01*
X0011502Y0015327D01*
X0011627Y0015420D01*
X0011754Y0015509D01*
X0011884Y0015596D01*
X0012016Y0015679D01*
X0012150Y0015758D01*
X0012286Y0015835D01*
X0012424Y0015907D01*
X0012563Y0015977D01*
X0012705Y0016042D01*
X0012848Y0016104D01*
X0012992Y0016162D01*
X0013138Y0016217D01*
X0013286Y0016268D01*
X0013434Y0016315D01*
X0013584Y0016358D01*
X0013735Y0016397D01*
X0013887Y0016433D01*
X0014039Y0016464D01*
X0014193Y0016492D01*
X0014347Y0016516D01*
X0014501Y0016536D01*
X0014656Y0016552D01*
X0014812Y0016564D01*
X0014967Y0016572D01*
X0015123Y0016576D01*
X0015279Y0016576D01*
X0015435Y0016572D01*
X0015590Y0016564D01*
X0015746Y0016552D01*
X0015901Y0016536D01*
X0016055Y0016516D01*
X0016209Y0016492D01*
X0016363Y0016464D01*
X0016515Y0016433D01*
X0016667Y0016397D01*
X0016818Y0016358D01*
X0016968Y0016315D01*
X0017116Y0016268D01*
X0017264Y0016217D01*
X0017410Y0016162D01*
X0017554Y0016104D01*
X0017697Y0016042D01*
X0017839Y0015977D01*
X0017978Y0015907D01*
X0018116Y0015835D01*
X0018252Y0015758D01*
X0018386Y0015679D01*
X0018518Y0015596D01*
X0018648Y0015509D01*
X0018775Y0015420D01*
X0018900Y0015327D01*
X0019023Y0015231D01*
X0019143Y0015132D01*
X0019261Y0015029D01*
X0019376Y0014924D01*
X0019488Y0014816D01*
X0019598Y0014705D01*
X0019704Y0014592D01*
X0019808Y0014475D01*
X0019909Y0014356D01*
X0020006Y0014235D01*
X0020101Y0014111D01*
X0020192Y0013985D01*
X0020280Y0013856D01*
X0020365Y0013725D01*
X0020446Y0013592D01*
X0020524Y0013457D01*
X0020598Y0013320D01*
X0020669Y0013182D01*
X0020737Y0013041D01*
X0020801Y0012899D01*
X0020861Y0012755D01*
X0020917Y0012610D01*
X0020970Y0012463D01*
X0021019Y0012315D01*
X0021064Y0012166D01*
X0021105Y0012016D01*
X0021142Y0011864D01*
X0021176Y0011712D01*
X0021206Y0011559D01*
X0021231Y0011405D01*
X0021253Y0011251D01*
X0021271Y0011096D01*
X0021285Y0010941D01*
X0021295Y0010786D01*
X0021301Y0010630D01*
X0021303Y0010474D01*
X0021301Y0010318D01*
X0021295Y0010162D01*
X0021285Y0010007D01*
X0021271Y0009852D01*
X0021253Y0009697D01*
X0021231Y0009543D01*
X0021206Y0009389D01*
X0021176Y0009236D01*
X0021142Y0009084D01*
X0021105Y0008932D01*
X0021064Y0008782D01*
X0021019Y0008633D01*
X0020970Y0008485D01*
X0020917Y0008338D01*
X0020861Y0008193D01*
X0020801Y0008049D01*
X0020737Y0007907D01*
X0020669Y0007766D01*
X0020598Y0007628D01*
X0020524Y0007491D01*
X0020446Y0007356D01*
X0020365Y0007223D01*
X0020280Y0007092D01*
X0020192Y0006963D01*
X0020101Y0006837D01*
X0020006Y0006713D01*
X0019909Y0006592D01*
X0019808Y0006473D01*
X0019704Y0006356D01*
X0019598Y0006243D01*
X0019488Y0006132D01*
X0019376Y0006024D01*
X0019261Y0005919D01*
X0019143Y0005816D01*
X0019023Y0005717D01*
X0018900Y0005621D01*
X0018775Y0005528D01*
X0018648Y0005439D01*
X0018518Y0005352D01*
X0018386Y0005269D01*
X0018252Y0005190D01*
X0018116Y0005113D01*
X0017978Y0005041D01*
X0017839Y0004971D01*
X0017697Y0004906D01*
X0017554Y0004844D01*
X0017410Y0004786D01*
X0017264Y0004731D01*
X0017116Y0004680D01*
X0016968Y0004633D01*
X0016818Y0004590D01*
X0016667Y0004551D01*
X0016515Y0004515D01*
X0016363Y0004484D01*
X0016209Y0004456D01*
X0016055Y0004432D01*
X0015901Y0004412D01*
X0015746Y0004396D01*
X0015590Y0004384D01*
X0015435Y0004376D01*
X0015279Y0004372D01*
X0015123Y0004372D01*
X0014967Y0004376D01*
X0014812Y0004384D01*
X0014656Y0004396D01*
X0014501Y0004412D01*
X0014347Y0004432D01*
X0014193Y0004456D01*
X0014039Y0004484D01*
X0013887Y0004515D01*
X0013735Y0004551D01*
X0013584Y0004590D01*
X0013434Y0004633D01*
X0013286Y0004680D01*
X0013138Y0004731D01*
X0012992Y0004786D01*
X0012848Y0004844D01*
X0012705Y0004906D01*
X0012563Y0004971D01*
X0012424Y0005041D01*
X0012286Y0005113D01*
X0012150Y0005190D01*
X0012016Y0005269D01*
X0011884Y0005352D01*
X0011754Y0005439D01*
X0011627Y0005528D01*
X0011502Y0005621D01*
X0011379Y0005717D01*
X0011259Y0005816D01*
X0011141Y0005919D01*
X0011026Y0006024D01*
X0010914Y0006132D01*
X0010804Y0006243D01*
X0010698Y0006356D01*
X0010594Y0006473D01*
X0010493Y0006592D01*
X0010396Y0006713D01*
X0010301Y0006837D01*
X0010210Y0006963D01*
X0010122Y0007092D01*
X0010037Y0007223D01*
X0009956Y0007356D01*
X0009878Y0007491D01*
X0009804Y0007628D01*
X0009733Y0007766D01*
X0009665Y0007907D01*
X0009601Y0008049D01*
X0009541Y0008193D01*
X0009485Y0008338D01*
X0009432Y0008485D01*
X0009383Y0008633D01*
X0009338Y0008782D01*
X0009297Y0008932D01*
X0009260Y0009084D01*
X0009226Y0009236D01*
X0009196Y0009389D01*
X0009171Y0009543D01*
X0009149Y0009697D01*
X0009131Y0009852D01*
X0009117Y0010007D01*
X0009107Y0010162D01*
X0009101Y0010318D01*
X0009099Y0010474D01*
X0041414Y0166952D02*
X0041416Y0167108D01*
X0041422Y0167264D01*
X0041432Y0167419D01*
X0041446Y0167574D01*
X0041464Y0167729D01*
X0041486Y0167883D01*
X0041511Y0168037D01*
X0041541Y0168190D01*
X0041575Y0168342D01*
X0041612Y0168494D01*
X0041653Y0168644D01*
X0041698Y0168793D01*
X0041747Y0168941D01*
X0041800Y0169088D01*
X0041856Y0169233D01*
X0041916Y0169377D01*
X0041980Y0169519D01*
X0042048Y0169660D01*
X0042119Y0169798D01*
X0042193Y0169935D01*
X0042271Y0170070D01*
X0042352Y0170203D01*
X0042437Y0170334D01*
X0042525Y0170463D01*
X0042616Y0170589D01*
X0042711Y0170713D01*
X0042808Y0170834D01*
X0042909Y0170953D01*
X0043013Y0171070D01*
X0043119Y0171183D01*
X0043229Y0171294D01*
X0043341Y0171402D01*
X0043456Y0171507D01*
X0043574Y0171610D01*
X0043694Y0171709D01*
X0043817Y0171805D01*
X0043942Y0171898D01*
X0044069Y0171987D01*
X0044199Y0172074D01*
X0044331Y0172157D01*
X0044465Y0172236D01*
X0044601Y0172313D01*
X0044739Y0172385D01*
X0044878Y0172455D01*
X0045020Y0172520D01*
X0045163Y0172582D01*
X0045307Y0172640D01*
X0045453Y0172695D01*
X0045601Y0172746D01*
X0045749Y0172793D01*
X0045899Y0172836D01*
X0046050Y0172875D01*
X0046202Y0172911D01*
X0046354Y0172942D01*
X0046508Y0172970D01*
X0046662Y0172994D01*
X0046816Y0173014D01*
X0046971Y0173030D01*
X0047127Y0173042D01*
X0047282Y0173050D01*
X0047438Y0173054D01*
X0047594Y0173054D01*
X0047750Y0173050D01*
X0047905Y0173042D01*
X0048061Y0173030D01*
X0048216Y0173014D01*
X0048370Y0172994D01*
X0048524Y0172970D01*
X0048678Y0172942D01*
X0048830Y0172911D01*
X0048982Y0172875D01*
X0049133Y0172836D01*
X0049283Y0172793D01*
X0049431Y0172746D01*
X0049579Y0172695D01*
X0049725Y0172640D01*
X0049869Y0172582D01*
X0050012Y0172520D01*
X0050154Y0172455D01*
X0050293Y0172385D01*
X0050431Y0172313D01*
X0050567Y0172236D01*
X0050701Y0172157D01*
X0050833Y0172074D01*
X0050963Y0171987D01*
X0051090Y0171898D01*
X0051215Y0171805D01*
X0051338Y0171709D01*
X0051458Y0171610D01*
X0051576Y0171507D01*
X0051691Y0171402D01*
X0051803Y0171294D01*
X0051913Y0171183D01*
X0052019Y0171070D01*
X0052123Y0170953D01*
X0052224Y0170834D01*
X0052321Y0170713D01*
X0052416Y0170589D01*
X0052507Y0170463D01*
X0052595Y0170334D01*
X0052680Y0170203D01*
X0052761Y0170070D01*
X0052839Y0169935D01*
X0052913Y0169798D01*
X0052984Y0169660D01*
X0053052Y0169519D01*
X0053116Y0169377D01*
X0053176Y0169233D01*
X0053232Y0169088D01*
X0053285Y0168941D01*
X0053334Y0168793D01*
X0053379Y0168644D01*
X0053420Y0168494D01*
X0053457Y0168342D01*
X0053491Y0168190D01*
X0053521Y0168037D01*
X0053546Y0167883D01*
X0053568Y0167729D01*
X0053586Y0167574D01*
X0053600Y0167419D01*
X0053610Y0167264D01*
X0053616Y0167108D01*
X0053618Y0166952D01*
X0053616Y0166796D01*
X0053610Y0166640D01*
X0053600Y0166485D01*
X0053586Y0166330D01*
X0053568Y0166175D01*
X0053546Y0166021D01*
X0053521Y0165867D01*
X0053491Y0165714D01*
X0053457Y0165562D01*
X0053420Y0165410D01*
X0053379Y0165260D01*
X0053334Y0165111D01*
X0053285Y0164963D01*
X0053232Y0164816D01*
X0053176Y0164671D01*
X0053116Y0164527D01*
X0053052Y0164385D01*
X0052984Y0164244D01*
X0052913Y0164106D01*
X0052839Y0163969D01*
X0052761Y0163834D01*
X0052680Y0163701D01*
X0052595Y0163570D01*
X0052507Y0163441D01*
X0052416Y0163315D01*
X0052321Y0163191D01*
X0052224Y0163070D01*
X0052123Y0162951D01*
X0052019Y0162834D01*
X0051913Y0162721D01*
X0051803Y0162610D01*
X0051691Y0162502D01*
X0051576Y0162397D01*
X0051458Y0162294D01*
X0051338Y0162195D01*
X0051215Y0162099D01*
X0051090Y0162006D01*
X0050963Y0161917D01*
X0050833Y0161830D01*
X0050701Y0161747D01*
X0050567Y0161668D01*
X0050431Y0161591D01*
X0050293Y0161519D01*
X0050154Y0161449D01*
X0050012Y0161384D01*
X0049869Y0161322D01*
X0049725Y0161264D01*
X0049579Y0161209D01*
X0049431Y0161158D01*
X0049283Y0161111D01*
X0049133Y0161068D01*
X0048982Y0161029D01*
X0048830Y0160993D01*
X0048678Y0160962D01*
X0048524Y0160934D01*
X0048370Y0160910D01*
X0048216Y0160890D01*
X0048061Y0160874D01*
X0047905Y0160862D01*
X0047750Y0160854D01*
X0047594Y0160850D01*
X0047438Y0160850D01*
X0047282Y0160854D01*
X0047127Y0160862D01*
X0046971Y0160874D01*
X0046816Y0160890D01*
X0046662Y0160910D01*
X0046508Y0160934D01*
X0046354Y0160962D01*
X0046202Y0160993D01*
X0046050Y0161029D01*
X0045899Y0161068D01*
X0045749Y0161111D01*
X0045601Y0161158D01*
X0045453Y0161209D01*
X0045307Y0161264D01*
X0045163Y0161322D01*
X0045020Y0161384D01*
X0044878Y0161449D01*
X0044739Y0161519D01*
X0044601Y0161591D01*
X0044465Y0161668D01*
X0044331Y0161747D01*
X0044199Y0161830D01*
X0044069Y0161917D01*
X0043942Y0162006D01*
X0043817Y0162099D01*
X0043694Y0162195D01*
X0043574Y0162294D01*
X0043456Y0162397D01*
X0043341Y0162502D01*
X0043229Y0162610D01*
X0043119Y0162721D01*
X0043013Y0162834D01*
X0042909Y0162951D01*
X0042808Y0163070D01*
X0042711Y0163191D01*
X0042616Y0163315D01*
X0042525Y0163441D01*
X0042437Y0163570D01*
X0042352Y0163701D01*
X0042271Y0163834D01*
X0042193Y0163969D01*
X0042119Y0164106D01*
X0042048Y0164244D01*
X0041980Y0164385D01*
X0041916Y0164527D01*
X0041856Y0164671D01*
X0041800Y0164816D01*
X0041747Y0164963D01*
X0041698Y0165111D01*
X0041653Y0165260D01*
X0041612Y0165410D01*
X0041575Y0165562D01*
X0041541Y0165714D01*
X0041511Y0165867D01*
X0041486Y0166021D01*
X0041464Y0166175D01*
X0041446Y0166330D01*
X0041432Y0166485D01*
X0041422Y0166640D01*
X0041416Y0166796D01*
X0041414Y0166952D01*
X0175386Y0185093D02*
X0175388Y0185249D01*
X0175394Y0185405D01*
X0175404Y0185560D01*
X0175418Y0185715D01*
X0175436Y0185870D01*
X0175458Y0186024D01*
X0175483Y0186178D01*
X0175513Y0186331D01*
X0175547Y0186483D01*
X0175584Y0186635D01*
X0175625Y0186785D01*
X0175670Y0186934D01*
X0175719Y0187082D01*
X0175772Y0187229D01*
X0175828Y0187374D01*
X0175888Y0187518D01*
X0175952Y0187660D01*
X0176020Y0187801D01*
X0176091Y0187939D01*
X0176165Y0188076D01*
X0176243Y0188211D01*
X0176324Y0188344D01*
X0176409Y0188475D01*
X0176497Y0188604D01*
X0176588Y0188730D01*
X0176683Y0188854D01*
X0176780Y0188975D01*
X0176881Y0189094D01*
X0176985Y0189211D01*
X0177091Y0189324D01*
X0177201Y0189435D01*
X0177313Y0189543D01*
X0177428Y0189648D01*
X0177546Y0189751D01*
X0177666Y0189850D01*
X0177789Y0189946D01*
X0177914Y0190039D01*
X0178041Y0190128D01*
X0178171Y0190215D01*
X0178303Y0190298D01*
X0178437Y0190377D01*
X0178573Y0190454D01*
X0178711Y0190526D01*
X0178850Y0190596D01*
X0178992Y0190661D01*
X0179135Y0190723D01*
X0179279Y0190781D01*
X0179425Y0190836D01*
X0179573Y0190887D01*
X0179721Y0190934D01*
X0179871Y0190977D01*
X0180022Y0191016D01*
X0180174Y0191052D01*
X0180326Y0191083D01*
X0180480Y0191111D01*
X0180634Y0191135D01*
X0180788Y0191155D01*
X0180943Y0191171D01*
X0181099Y0191183D01*
X0181254Y0191191D01*
X0181410Y0191195D01*
X0181566Y0191195D01*
X0181722Y0191191D01*
X0181877Y0191183D01*
X0182033Y0191171D01*
X0182188Y0191155D01*
X0182342Y0191135D01*
X0182496Y0191111D01*
X0182650Y0191083D01*
X0182802Y0191052D01*
X0182954Y0191016D01*
X0183105Y0190977D01*
X0183255Y0190934D01*
X0183403Y0190887D01*
X0183551Y0190836D01*
X0183697Y0190781D01*
X0183841Y0190723D01*
X0183984Y0190661D01*
X0184126Y0190596D01*
X0184265Y0190526D01*
X0184403Y0190454D01*
X0184539Y0190377D01*
X0184673Y0190298D01*
X0184805Y0190215D01*
X0184935Y0190128D01*
X0185062Y0190039D01*
X0185187Y0189946D01*
X0185310Y0189850D01*
X0185430Y0189751D01*
X0185548Y0189648D01*
X0185663Y0189543D01*
X0185775Y0189435D01*
X0185885Y0189324D01*
X0185991Y0189211D01*
X0186095Y0189094D01*
X0186196Y0188975D01*
X0186293Y0188854D01*
X0186388Y0188730D01*
X0186479Y0188604D01*
X0186567Y0188475D01*
X0186652Y0188344D01*
X0186733Y0188211D01*
X0186811Y0188076D01*
X0186885Y0187939D01*
X0186956Y0187801D01*
X0187024Y0187660D01*
X0187088Y0187518D01*
X0187148Y0187374D01*
X0187204Y0187229D01*
X0187257Y0187082D01*
X0187306Y0186934D01*
X0187351Y0186785D01*
X0187392Y0186635D01*
X0187429Y0186483D01*
X0187463Y0186331D01*
X0187493Y0186178D01*
X0187518Y0186024D01*
X0187540Y0185870D01*
X0187558Y0185715D01*
X0187572Y0185560D01*
X0187582Y0185405D01*
X0187588Y0185249D01*
X0187590Y0185093D01*
X0187588Y0184937D01*
X0187582Y0184781D01*
X0187572Y0184626D01*
X0187558Y0184471D01*
X0187540Y0184316D01*
X0187518Y0184162D01*
X0187493Y0184008D01*
X0187463Y0183855D01*
X0187429Y0183703D01*
X0187392Y0183551D01*
X0187351Y0183401D01*
X0187306Y0183252D01*
X0187257Y0183104D01*
X0187204Y0182957D01*
X0187148Y0182812D01*
X0187088Y0182668D01*
X0187024Y0182526D01*
X0186956Y0182385D01*
X0186885Y0182247D01*
X0186811Y0182110D01*
X0186733Y0181975D01*
X0186652Y0181842D01*
X0186567Y0181711D01*
X0186479Y0181582D01*
X0186388Y0181456D01*
X0186293Y0181332D01*
X0186196Y0181211D01*
X0186095Y0181092D01*
X0185991Y0180975D01*
X0185885Y0180862D01*
X0185775Y0180751D01*
X0185663Y0180643D01*
X0185548Y0180538D01*
X0185430Y0180435D01*
X0185310Y0180336D01*
X0185187Y0180240D01*
X0185062Y0180147D01*
X0184935Y0180058D01*
X0184805Y0179971D01*
X0184673Y0179888D01*
X0184539Y0179809D01*
X0184403Y0179732D01*
X0184265Y0179660D01*
X0184126Y0179590D01*
X0183984Y0179525D01*
X0183841Y0179463D01*
X0183697Y0179405D01*
X0183551Y0179350D01*
X0183403Y0179299D01*
X0183255Y0179252D01*
X0183105Y0179209D01*
X0182954Y0179170D01*
X0182802Y0179134D01*
X0182650Y0179103D01*
X0182496Y0179075D01*
X0182342Y0179051D01*
X0182188Y0179031D01*
X0182033Y0179015D01*
X0181877Y0179003D01*
X0181722Y0178995D01*
X0181566Y0178991D01*
X0181410Y0178991D01*
X0181254Y0178995D01*
X0181099Y0179003D01*
X0180943Y0179015D01*
X0180788Y0179031D01*
X0180634Y0179051D01*
X0180480Y0179075D01*
X0180326Y0179103D01*
X0180174Y0179134D01*
X0180022Y0179170D01*
X0179871Y0179209D01*
X0179721Y0179252D01*
X0179573Y0179299D01*
X0179425Y0179350D01*
X0179279Y0179405D01*
X0179135Y0179463D01*
X0178992Y0179525D01*
X0178850Y0179590D01*
X0178711Y0179660D01*
X0178573Y0179732D01*
X0178437Y0179809D01*
X0178303Y0179888D01*
X0178171Y0179971D01*
X0178041Y0180058D01*
X0177914Y0180147D01*
X0177789Y0180240D01*
X0177666Y0180336D01*
X0177546Y0180435D01*
X0177428Y0180538D01*
X0177313Y0180643D01*
X0177201Y0180751D01*
X0177091Y0180862D01*
X0176985Y0180975D01*
X0176881Y0181092D01*
X0176780Y0181211D01*
X0176683Y0181332D01*
X0176588Y0181456D01*
X0176497Y0181582D01*
X0176409Y0181711D01*
X0176324Y0181842D01*
X0176243Y0181975D01*
X0176165Y0182110D01*
X0176091Y0182247D01*
X0176020Y0182385D01*
X0175952Y0182526D01*
X0175888Y0182668D01*
X0175828Y0182812D01*
X0175772Y0182957D01*
X0175719Y0183104D01*
X0175670Y0183252D01*
X0175625Y0183401D01*
X0175584Y0183551D01*
X0175547Y0183703D01*
X0175513Y0183855D01*
X0175483Y0184008D01*
X0175458Y0184162D01*
X0175436Y0184316D01*
X0175418Y0184471D01*
X0175404Y0184626D01*
X0175394Y0184781D01*
X0175388Y0184937D01*
X0175386Y0185093D01*
X0174808Y0011246D02*
X0174810Y0011402D01*
X0174816Y0011558D01*
X0174826Y0011713D01*
X0174840Y0011868D01*
X0174858Y0012023D01*
X0174880Y0012177D01*
X0174905Y0012331D01*
X0174935Y0012484D01*
X0174969Y0012636D01*
X0175006Y0012788D01*
X0175047Y0012938D01*
X0175092Y0013087D01*
X0175141Y0013235D01*
X0175194Y0013382D01*
X0175250Y0013527D01*
X0175310Y0013671D01*
X0175374Y0013813D01*
X0175442Y0013954D01*
X0175513Y0014092D01*
X0175587Y0014229D01*
X0175665Y0014364D01*
X0175746Y0014497D01*
X0175831Y0014628D01*
X0175919Y0014757D01*
X0176010Y0014883D01*
X0176105Y0015007D01*
X0176202Y0015128D01*
X0176303Y0015247D01*
X0176407Y0015364D01*
X0176513Y0015477D01*
X0176623Y0015588D01*
X0176735Y0015696D01*
X0176850Y0015801D01*
X0176968Y0015904D01*
X0177088Y0016003D01*
X0177211Y0016099D01*
X0177336Y0016192D01*
X0177463Y0016281D01*
X0177593Y0016368D01*
X0177725Y0016451D01*
X0177859Y0016530D01*
X0177995Y0016607D01*
X0178133Y0016679D01*
X0178272Y0016749D01*
X0178414Y0016814D01*
X0178557Y0016876D01*
X0178701Y0016934D01*
X0178847Y0016989D01*
X0178995Y0017040D01*
X0179143Y0017087D01*
X0179293Y0017130D01*
X0179444Y0017169D01*
X0179596Y0017205D01*
X0179748Y0017236D01*
X0179902Y0017264D01*
X0180056Y0017288D01*
X0180210Y0017308D01*
X0180365Y0017324D01*
X0180521Y0017336D01*
X0180676Y0017344D01*
X0180832Y0017348D01*
X0180988Y0017348D01*
X0181144Y0017344D01*
X0181299Y0017336D01*
X0181455Y0017324D01*
X0181610Y0017308D01*
X0181764Y0017288D01*
X0181918Y0017264D01*
X0182072Y0017236D01*
X0182224Y0017205D01*
X0182376Y0017169D01*
X0182527Y0017130D01*
X0182677Y0017087D01*
X0182825Y0017040D01*
X0182973Y0016989D01*
X0183119Y0016934D01*
X0183263Y0016876D01*
X0183406Y0016814D01*
X0183548Y0016749D01*
X0183687Y0016679D01*
X0183825Y0016607D01*
X0183961Y0016530D01*
X0184095Y0016451D01*
X0184227Y0016368D01*
X0184357Y0016281D01*
X0184484Y0016192D01*
X0184609Y0016099D01*
X0184732Y0016003D01*
X0184852Y0015904D01*
X0184970Y0015801D01*
X0185085Y0015696D01*
X0185197Y0015588D01*
X0185307Y0015477D01*
X0185413Y0015364D01*
X0185517Y0015247D01*
X0185618Y0015128D01*
X0185715Y0015007D01*
X0185810Y0014883D01*
X0185901Y0014757D01*
X0185989Y0014628D01*
X0186074Y0014497D01*
X0186155Y0014364D01*
X0186233Y0014229D01*
X0186307Y0014092D01*
X0186378Y0013954D01*
X0186446Y0013813D01*
X0186510Y0013671D01*
X0186570Y0013527D01*
X0186626Y0013382D01*
X0186679Y0013235D01*
X0186728Y0013087D01*
X0186773Y0012938D01*
X0186814Y0012788D01*
X0186851Y0012636D01*
X0186885Y0012484D01*
X0186915Y0012331D01*
X0186940Y0012177D01*
X0186962Y0012023D01*
X0186980Y0011868D01*
X0186994Y0011713D01*
X0187004Y0011558D01*
X0187010Y0011402D01*
X0187012Y0011246D01*
X0187010Y0011090D01*
X0187004Y0010934D01*
X0186994Y0010779D01*
X0186980Y0010624D01*
X0186962Y0010469D01*
X0186940Y0010315D01*
X0186915Y0010161D01*
X0186885Y0010008D01*
X0186851Y0009856D01*
X0186814Y0009704D01*
X0186773Y0009554D01*
X0186728Y0009405D01*
X0186679Y0009257D01*
X0186626Y0009110D01*
X0186570Y0008965D01*
X0186510Y0008821D01*
X0186446Y0008679D01*
X0186378Y0008538D01*
X0186307Y0008400D01*
X0186233Y0008263D01*
X0186155Y0008128D01*
X0186074Y0007995D01*
X0185989Y0007864D01*
X0185901Y0007735D01*
X0185810Y0007609D01*
X0185715Y0007485D01*
X0185618Y0007364D01*
X0185517Y0007245D01*
X0185413Y0007128D01*
X0185307Y0007015D01*
X0185197Y0006904D01*
X0185085Y0006796D01*
X0184970Y0006691D01*
X0184852Y0006588D01*
X0184732Y0006489D01*
X0184609Y0006393D01*
X0184484Y0006300D01*
X0184357Y0006211D01*
X0184227Y0006124D01*
X0184095Y0006041D01*
X0183961Y0005962D01*
X0183825Y0005885D01*
X0183687Y0005813D01*
X0183548Y0005743D01*
X0183406Y0005678D01*
X0183263Y0005616D01*
X0183119Y0005558D01*
X0182973Y0005503D01*
X0182825Y0005452D01*
X0182677Y0005405D01*
X0182527Y0005362D01*
X0182376Y0005323D01*
X0182224Y0005287D01*
X0182072Y0005256D01*
X0181918Y0005228D01*
X0181764Y0005204D01*
X0181610Y0005184D01*
X0181455Y0005168D01*
X0181299Y0005156D01*
X0181144Y0005148D01*
X0180988Y0005144D01*
X0180832Y0005144D01*
X0180676Y0005148D01*
X0180521Y0005156D01*
X0180365Y0005168D01*
X0180210Y0005184D01*
X0180056Y0005204D01*
X0179902Y0005228D01*
X0179748Y0005256D01*
X0179596Y0005287D01*
X0179444Y0005323D01*
X0179293Y0005362D01*
X0179143Y0005405D01*
X0178995Y0005452D01*
X0178847Y0005503D01*
X0178701Y0005558D01*
X0178557Y0005616D01*
X0178414Y0005678D01*
X0178272Y0005743D01*
X0178133Y0005813D01*
X0177995Y0005885D01*
X0177859Y0005962D01*
X0177725Y0006041D01*
X0177593Y0006124D01*
X0177463Y0006211D01*
X0177336Y0006300D01*
X0177211Y0006393D01*
X0177088Y0006489D01*
X0176968Y0006588D01*
X0176850Y0006691D01*
X0176735Y0006796D01*
X0176623Y0006904D01*
X0176513Y0007015D01*
X0176407Y0007128D01*
X0176303Y0007245D01*
X0176202Y0007364D01*
X0176105Y0007485D01*
X0176010Y0007609D01*
X0175919Y0007735D01*
X0175831Y0007864D01*
X0175746Y0007995D01*
X0175665Y0008128D01*
X0175587Y0008263D01*
X0175513Y0008400D01*
X0175442Y0008538D01*
X0175374Y0008679D01*
X0175310Y0008821D01*
X0175250Y0008965D01*
X0175194Y0009110D01*
X0175141Y0009257D01*
X0175092Y0009405D01*
X0175047Y0009554D01*
X0175006Y0009704D01*
X0174969Y0009856D01*
X0174935Y0010008D01*
X0174905Y0010161D01*
X0174880Y0010315D01*
X0174858Y0010469D01*
X0174840Y0010624D01*
X0174826Y0010779D01*
X0174816Y0010934D01*
X0174810Y0011090D01*
X0174808Y0011246D01*
D11*
X0174195Y0034046D02*
X0174195Y0040046D01*
X0164195Y0040046D02*
X0164195Y0034046D01*
X0154195Y0034046D02*
X0154195Y0040046D01*
X0144195Y0040046D02*
X0144195Y0034046D01*
X0144214Y0064130D02*
X0144214Y0070130D01*
X0154214Y0070130D02*
X0154214Y0064130D01*
X0164214Y0064130D02*
X0164214Y0070130D01*
X0174214Y0070130D02*
X0174214Y0064130D01*
X0184214Y0064130D02*
X0184214Y0070130D01*
X0184167Y0092596D02*
X0184167Y0098596D01*
X0174167Y0098596D02*
X0174167Y0092596D01*
X0164167Y0092596D02*
X0164167Y0098596D01*
X0154167Y0098596D02*
X0154167Y0092596D01*
X0154263Y0124608D02*
X0154263Y0130608D01*
X0164263Y0130608D02*
X0164263Y0124608D01*
X0174263Y0124608D02*
X0174263Y0130608D01*
X0184263Y0130608D02*
X0184263Y0124608D01*
X0133128Y0147777D02*
X0133128Y0153777D01*
X0123128Y0153777D02*
X0123128Y0147777D01*
X0113128Y0147777D02*
X0113128Y0153777D01*
X0103128Y0153777D02*
X0103128Y0147777D01*
X0093128Y0147777D02*
X0093128Y0153777D01*
X0083128Y0153777D02*
X0083128Y0147777D01*
X0073128Y0147777D02*
X0073128Y0153777D01*
X0063128Y0153777D02*
X0063128Y0147777D01*
X0042657Y0130740D02*
X0042657Y0124740D01*
X0032657Y0124740D02*
X0032657Y0130740D01*
X0022657Y0130740D02*
X0022657Y0124740D01*
X0012657Y0124740D02*
X0012657Y0130740D01*
X0012427Y0099894D02*
X0012427Y0093894D01*
X0022427Y0093894D02*
X0022427Y0099894D01*
X0032427Y0099894D02*
X0032427Y0093894D01*
X0042427Y0093894D02*
X0042427Y0099894D01*
X0042659Y0070145D02*
X0042659Y0064145D01*
X0052659Y0064145D02*
X0052659Y0070145D01*
X0032659Y0070145D02*
X0032659Y0064145D01*
X0022659Y0064145D02*
X0022659Y0070145D01*
X0012659Y0070145D02*
X0012659Y0064145D01*
X0012639Y0040629D02*
X0012639Y0034629D01*
X0022639Y0034629D02*
X0022639Y0040629D01*
X0032639Y0040629D02*
X0032639Y0034629D01*
X0042639Y0034629D02*
X0042639Y0040629D01*
X0052639Y0040629D02*
X0052639Y0034629D01*
X0184195Y0034046D02*
X0184195Y0040046D01*
D12*
X0129015Y0037753D03*
X0129015Y0027753D03*
X0129015Y0017753D03*
X0129015Y0007753D03*
X0129015Y0047753D03*
X0129015Y0057753D03*
X0129015Y0067753D03*
X0129015Y0077753D03*
X0129015Y0087753D03*
X0129015Y0097753D03*
X0129015Y0107753D03*
X0129015Y0117753D03*
X0129015Y0127753D03*
X0129015Y0137753D03*
X0069015Y0137753D03*
X0069015Y0127753D03*
X0069015Y0117753D03*
X0069015Y0107753D03*
X0069015Y0097753D03*
X0069015Y0087753D03*
X0069015Y0077753D03*
X0069015Y0067753D03*
X0069015Y0057753D03*
X0069015Y0047753D03*
X0069015Y0037753D03*
X0069015Y0027753D03*
X0069015Y0017753D03*
X0069015Y0007753D03*
D13*
X0026583Y0157798D02*
X0017213Y0157798D01*
X0017213Y0177483D02*
X0026583Y0177483D01*
D14*
X0022476Y0177975D02*
X0173188Y0177975D01*
X0172764Y0178399D02*
X0174794Y0176369D01*
X0177280Y0174934D01*
X0180053Y0174191D01*
X0182924Y0174191D01*
X0185142Y0174785D01*
X0185195Y0135320D01*
X0184641Y0135408D01*
X0184463Y0135408D01*
X0184463Y0127808D01*
X0184063Y0127808D01*
X0184063Y0127408D01*
X0184463Y0127408D01*
X0184463Y0119808D01*
X0184641Y0119808D01*
X0185216Y0119899D01*
X0185238Y0103286D01*
X0184545Y0103396D01*
X0184367Y0103396D01*
X0184367Y0095796D01*
X0183967Y0095796D01*
X0183967Y0103396D01*
X0183789Y0103396D01*
X0183043Y0103278D01*
X0182324Y0103044D01*
X0181651Y0102701D01*
X0181040Y0102257D01*
X0180506Y0101723D01*
X0180062Y0101112D01*
X0179719Y0100438D01*
X0179485Y0099720D01*
X0179367Y0098974D01*
X0179367Y0095796D01*
X0183967Y0095796D01*
X0183967Y0095396D01*
X0179367Y0095396D01*
X0179367Y0092218D01*
X0179485Y0091472D01*
X0179719Y0090753D01*
X0180062Y0090080D01*
X0180506Y0089469D01*
X0181040Y0088935D01*
X0181651Y0088491D01*
X0182324Y0088147D01*
X0183043Y0087914D01*
X0183789Y0087796D01*
X0183967Y0087796D01*
X0183967Y0095396D01*
X0184367Y0095396D01*
X0184367Y0087796D01*
X0184545Y0087796D01*
X0185259Y0087909D01*
X0185277Y0074821D01*
X0184592Y0074930D01*
X0184414Y0074930D01*
X0184414Y0067330D01*
X0184014Y0067330D01*
X0184014Y0074930D01*
X0183836Y0074930D01*
X0183090Y0074812D01*
X0182371Y0074578D01*
X0181698Y0074235D01*
X0181087Y0073791D01*
X0180553Y0073257D01*
X0180108Y0072646D01*
X0179765Y0071973D01*
X0179532Y0071254D01*
X0179414Y0070508D01*
X0179414Y0067330D01*
X0184014Y0067330D01*
X0184014Y0066930D01*
X0184414Y0066930D01*
X0184414Y0059330D01*
X0184592Y0059330D01*
X0185298Y0059442D01*
X0185318Y0044728D01*
X0184573Y0044846D01*
X0184395Y0044846D01*
X0184395Y0037246D01*
X0183995Y0037246D01*
X0183995Y0036846D01*
X0179395Y0036846D01*
X0179395Y0033669D01*
X0179514Y0032922D01*
X0179747Y0032204D01*
X0180090Y0031531D01*
X0180534Y0030919D01*
X0181068Y0030385D01*
X0181680Y0029941D01*
X0182353Y0029598D01*
X0183071Y0029365D01*
X0183818Y0029246D01*
X0183995Y0029246D01*
X0183995Y0036846D01*
X0184395Y0036846D01*
X0184395Y0029246D01*
X0184573Y0029246D01*
X0185319Y0029365D01*
X0185338Y0029371D01*
X0185349Y0021272D01*
X0185118Y0021406D01*
X0182345Y0022149D01*
X0179474Y0022149D01*
X0176701Y0021406D01*
X0174215Y0019970D01*
X0172186Y0017941D01*
X0170750Y0015454D01*
X0170007Y0012682D01*
X0170007Y0009811D01*
X0170750Y0007038D01*
X0170824Y0006911D01*
X0133515Y0006917D01*
X0133515Y0008648D01*
X0132830Y0010302D01*
X0131564Y0011568D01*
X0129910Y0012253D01*
X0128120Y0012253D01*
X0126466Y0011568D01*
X0125200Y0010302D01*
X0124515Y0008648D01*
X0124515Y0006919D01*
X0073515Y0006927D01*
X0073515Y0008648D01*
X0072830Y0010302D01*
X0071564Y0011568D01*
X0069910Y0012253D01*
X0068120Y0012253D01*
X0066466Y0011568D01*
X0065200Y0010302D01*
X0064515Y0008648D01*
X0064515Y0006929D01*
X0025540Y0006935D01*
X0026103Y0009038D01*
X0026103Y0011909D01*
X0025360Y0014682D01*
X0023925Y0017168D01*
X0021895Y0019198D01*
X0019409Y0020633D01*
X0016636Y0021376D01*
X0013766Y0021376D01*
X0011573Y0020788D01*
X0011576Y0029938D01*
X0012262Y0029829D01*
X0012439Y0029829D01*
X0012439Y0037429D01*
X0012839Y0037429D01*
X0012839Y0029829D01*
X0013017Y0029829D01*
X0013763Y0029947D01*
X0014482Y0030181D01*
X0015155Y0030524D01*
X0015766Y0030968D01*
X0016301Y0031502D01*
X0016745Y0032113D01*
X0017088Y0032786D01*
X0017321Y0033505D01*
X0017439Y0034251D01*
X0017439Y0037429D01*
X0012840Y0037429D01*
X0012840Y0037829D01*
X0017439Y0037829D01*
X0017439Y0041007D01*
X0017321Y0041753D01*
X0017088Y0042471D01*
X0016745Y0043145D01*
X0016301Y0043756D01*
X0015766Y0044290D01*
X0015155Y0044734D01*
X0014482Y0045077D01*
X0013763Y0045311D01*
X0013017Y0045429D01*
X0012839Y0045429D01*
X0012839Y0037829D01*
X0012439Y0037829D01*
X0012439Y0045429D01*
X0012262Y0045429D01*
X0011581Y0045321D01*
X0011585Y0059455D01*
X0012281Y0059345D01*
X0012459Y0059345D01*
X0012459Y0066945D01*
X0012859Y0066945D01*
X0012859Y0067345D01*
X0017459Y0067345D01*
X0017459Y0070523D01*
X0017340Y0071269D01*
X0017107Y0071988D01*
X0016764Y0072661D01*
X0016320Y0073272D01*
X0015786Y0073806D01*
X0015174Y0074251D01*
X0014501Y0074594D01*
X0013783Y0074827D01*
X0013036Y0074945D01*
X0012859Y0074945D01*
X0012859Y0067345D01*
X0012459Y0067345D01*
X0012459Y0074945D01*
X0012281Y0074945D01*
X0011590Y0074836D01*
X0011595Y0089166D01*
X0012050Y0089094D01*
X0012227Y0089094D01*
X0012227Y0096694D01*
X0012627Y0096694D01*
X0012627Y0089094D01*
X0012805Y0089094D01*
X0013551Y0089213D01*
X0014270Y0089446D01*
X0014943Y0089789D01*
X0015554Y0090233D01*
X0016089Y0090767D01*
X0016533Y0091379D01*
X0016876Y0092052D01*
X0017109Y0092770D01*
X0017227Y0093517D01*
X0017227Y0096694D01*
X0012627Y0096694D01*
X0012627Y0097094D01*
X0017227Y0097094D01*
X0017227Y0100272D01*
X0017109Y0101018D01*
X0016876Y0101737D01*
X0016533Y0102410D01*
X0016089Y0103021D01*
X0015554Y0103556D01*
X0014943Y0104000D01*
X0014270Y0104343D01*
X0013551Y0104576D01*
X0012805Y0104694D01*
X0012627Y0104694D01*
X0012627Y0097095D01*
X0012227Y0097095D01*
X0012227Y0104694D01*
X0012050Y0104694D01*
X0011600Y0104623D01*
X0011605Y0120047D01*
X0012279Y0119940D01*
X0012457Y0119940D01*
X0012457Y0127540D01*
X0012857Y0127540D01*
X0012857Y0119940D01*
X0013035Y0119940D01*
X0013781Y0120058D01*
X0014500Y0120291D01*
X0015173Y0120634D01*
X0015784Y0121079D01*
X0016318Y0121613D01*
X0016763Y0122224D01*
X0017106Y0122897D01*
X0017339Y0123616D01*
X0017457Y0124362D01*
X0017457Y0127540D01*
X0012857Y0127540D01*
X0012857Y0127940D01*
X0012457Y0127940D01*
X0012457Y0135540D01*
X0012279Y0135540D01*
X0011610Y0135434D01*
X0011616Y0154885D01*
X0011884Y0154238D01*
X0013652Y0152470D01*
X0015962Y0151513D01*
X0027833Y0151513D01*
X0030143Y0152470D01*
X0031911Y0154238D01*
X0032868Y0156548D01*
X0032868Y0159048D01*
X0031911Y0161358D01*
X0030143Y0163126D01*
X0027833Y0164083D01*
X0015962Y0164083D01*
X0013652Y0163126D01*
X0011884Y0161358D01*
X0011618Y0160715D01*
X0011623Y0174195D01*
X0011809Y0173872D01*
X0012326Y0173198D01*
X0012928Y0172597D01*
X0013602Y0172079D01*
X0014338Y0171654D01*
X0015124Y0171329D01*
X0015945Y0171109D01*
X0016788Y0170998D01*
X0021320Y0170998D01*
X0021320Y0176905D01*
X0022476Y0176905D01*
X0022476Y0178061D01*
X0033048Y0178061D01*
X0032957Y0178751D01*
X0032737Y0179572D01*
X0032411Y0180357D01*
X0031986Y0181093D01*
X0031469Y0181768D01*
X0030868Y0182369D01*
X0030193Y0182887D01*
X0029457Y0183312D01*
X0028672Y0183637D01*
X0027851Y0183857D01*
X0027008Y0183968D01*
X0022476Y0183968D01*
X0022476Y0178061D01*
X0021320Y0178061D01*
X0021320Y0183968D01*
X0016788Y0183968D01*
X0015945Y0183857D01*
X0015124Y0183637D01*
X0014338Y0183312D01*
X0013602Y0182887D01*
X0012928Y0182369D01*
X0012326Y0181768D01*
X0011809Y0181093D01*
X0011625Y0180774D01*
X0011627Y0188706D01*
X0171147Y0188623D01*
X0170586Y0186528D01*
X0170586Y0183658D01*
X0171329Y0180885D01*
X0172764Y0178399D01*
X0172086Y0179573D02*
X0032736Y0179573D01*
X0031926Y0181172D02*
X0171252Y0181172D01*
X0170824Y0182770D02*
X0030345Y0182770D01*
X0033048Y0176905D02*
X0022476Y0176905D01*
X0022476Y0170998D01*
X0027008Y0170998D01*
X0027851Y0171109D01*
X0028672Y0171329D01*
X0029457Y0171654D01*
X0030193Y0172079D01*
X0030868Y0172597D01*
X0031469Y0173198D01*
X0031986Y0173872D01*
X0032411Y0174608D01*
X0032737Y0175394D01*
X0032957Y0176215D01*
X0033048Y0176905D01*
X0032978Y0176376D02*
X0042034Y0176376D01*
X0040822Y0175676D02*
X0038792Y0173647D01*
X0037356Y0171161D01*
X0036613Y0168388D01*
X0036613Y0165517D01*
X0037356Y0162744D01*
X0038792Y0160258D01*
X0040822Y0158228D01*
X0043308Y0156793D01*
X0046080Y0156050D01*
X0048951Y0156050D01*
X0051724Y0156793D01*
X0054210Y0158228D01*
X0056240Y0160258D01*
X0057675Y0162744D01*
X0058418Y0165517D01*
X0058418Y0168388D01*
X0057675Y0171161D01*
X0056240Y0173647D01*
X0054210Y0175676D01*
X0051724Y0177112D01*
X0048951Y0177855D01*
X0046080Y0177855D01*
X0043308Y0177112D01*
X0040822Y0175676D01*
X0039923Y0174778D02*
X0032482Y0174778D01*
X0031450Y0173179D02*
X0038522Y0173179D01*
X0037599Y0171581D02*
X0029280Y0171581D01*
X0022476Y0171581D02*
X0021320Y0171581D01*
X0021320Y0173179D02*
X0022476Y0173179D01*
X0022476Y0174778D02*
X0021320Y0174778D01*
X0021320Y0176376D02*
X0022476Y0176376D01*
X0022476Y0179573D02*
X0021320Y0179573D01*
X0021320Y0181172D02*
X0022476Y0181172D01*
X0022476Y0182770D02*
X0021320Y0182770D01*
X0013451Y0182770D02*
X0011625Y0182770D01*
X0011625Y0181172D02*
X0011869Y0181172D01*
X0011626Y0184369D02*
X0170586Y0184369D01*
X0170586Y0185967D02*
X0011626Y0185967D01*
X0011627Y0187566D02*
X0170864Y0187566D01*
X0174787Y0176376D02*
X0052998Y0176376D01*
X0055109Y0174778D02*
X0177861Y0174778D01*
X0185115Y0174778D02*
X0185142Y0174778D01*
X0185144Y0173179D02*
X0056510Y0173179D01*
X0057432Y0171581D02*
X0185146Y0171581D01*
X0185148Y0169982D02*
X0057991Y0169982D01*
X0058418Y0168384D02*
X0185150Y0168384D01*
X0185153Y0166785D02*
X0058418Y0166785D01*
X0058330Y0165187D02*
X0185155Y0165187D01*
X0185157Y0163588D02*
X0057901Y0163588D01*
X0057240Y0161990D02*
X0185159Y0161990D01*
X0185161Y0160391D02*
X0056317Y0160391D01*
X0054774Y0158793D02*
X0185163Y0158793D01*
X0185166Y0157194D02*
X0136216Y0157194D01*
X0135734Y0157677D02*
X0134043Y0158377D01*
X0132213Y0158377D01*
X0130522Y0157677D01*
X0129228Y0156383D01*
X0128528Y0154692D01*
X0128528Y0146862D01*
X0129228Y0145172D01*
X0130522Y0143878D01*
X0132213Y0143177D01*
X0134043Y0143177D01*
X0135734Y0143878D01*
X0137028Y0145172D01*
X0137728Y0146862D01*
X0137728Y0154692D01*
X0137028Y0156383D01*
X0135734Y0157677D01*
X0137354Y0155596D02*
X0185168Y0155596D01*
X0185170Y0153997D02*
X0137728Y0153997D01*
X0137728Y0152399D02*
X0185172Y0152399D01*
X0185174Y0150800D02*
X0137728Y0150800D01*
X0137728Y0149202D02*
X0185176Y0149202D01*
X0185179Y0147603D02*
X0137728Y0147603D01*
X0137373Y0146005D02*
X0185181Y0146005D01*
X0185183Y0144406D02*
X0136262Y0144406D01*
X0132830Y0140302D02*
X0132891Y0140153D01*
X0144595Y0140153D01*
X0145477Y0139788D01*
X0151207Y0134058D01*
X0151657Y0134508D01*
X0153348Y0135208D01*
X0155178Y0135208D01*
X0156869Y0134508D01*
X0158163Y0133214D01*
X0158863Y0131523D01*
X0158863Y0125602D01*
X0159663Y0126402D01*
X0159663Y0131523D01*
X0160363Y0133214D01*
X0161657Y0134508D01*
X0163348Y0135208D01*
X0165178Y0135208D01*
X0166869Y0134508D01*
X0168163Y0133214D01*
X0168863Y0131523D01*
X0168863Y0123693D01*
X0168163Y0122002D01*
X0166869Y0120708D01*
X0165178Y0120008D01*
X0163348Y0120008D01*
X0161657Y0120708D01*
X0161207Y0121158D01*
X0157271Y0117222D01*
X0156389Y0116857D01*
X0144065Y0116857D01*
X0143183Y0117222D01*
X0142508Y0117897D01*
X0135052Y0125353D01*
X0132891Y0125353D01*
X0132830Y0125204D01*
X0131564Y0123938D01*
X0129910Y0123253D01*
X0128120Y0123253D01*
X0126466Y0123938D01*
X0125200Y0125204D01*
X0124515Y0126858D01*
X0124515Y0128648D01*
X0125200Y0130302D01*
X0126466Y0131568D01*
X0128120Y0132253D01*
X0129910Y0132253D01*
X0131564Y0131568D01*
X0132830Y0130302D01*
X0132891Y0130153D01*
X0136524Y0130153D01*
X0137406Y0129788D01*
X0145537Y0121657D01*
X0150709Y0121657D01*
X0150363Y0122002D01*
X0149663Y0123693D01*
X0149663Y0128814D01*
X0143124Y0135353D01*
X0132891Y0135353D01*
X0132830Y0135204D01*
X0131564Y0133938D01*
X0129910Y0133253D01*
X0128120Y0133253D01*
X0126466Y0133938D01*
X0125200Y0135204D01*
X0124515Y0136858D01*
X0124515Y0138648D01*
X0125200Y0140302D01*
X0126466Y0141568D01*
X0128120Y0142253D01*
X0129910Y0142253D01*
X0131564Y0141568D01*
X0132830Y0140302D01*
X0131923Y0141209D02*
X0185187Y0141209D01*
X0185189Y0139611D02*
X0145654Y0139611D01*
X0147253Y0138012D02*
X0185191Y0138012D01*
X0185194Y0136414D02*
X0148851Y0136414D01*
X0150450Y0134815D02*
X0152399Y0134815D01*
X0156127Y0134815D02*
X0162399Y0134815D01*
X0160366Y0133217D02*
X0158160Y0133217D01*
X0158824Y0131618D02*
X0159702Y0131618D01*
X0159663Y0130020D02*
X0158863Y0130020D01*
X0158863Y0128421D02*
X0159663Y0128421D01*
X0159663Y0126823D02*
X0158863Y0126823D01*
X0154263Y0127608D02*
X0144118Y0137753D01*
X0129015Y0137753D01*
X0132441Y0134815D02*
X0143662Y0134815D01*
X0145260Y0133217D02*
X0105895Y0133217D01*
X0105895Y0134815D02*
X0125589Y0134815D01*
X0124699Y0136414D02*
X0105895Y0136414D01*
X0105895Y0138012D02*
X0124515Y0138012D01*
X0124913Y0139611D02*
X0105895Y0139611D01*
X0105895Y0141209D02*
X0126107Y0141209D01*
X0125734Y0143878D02*
X0124043Y0143177D01*
X0122213Y0143177D01*
X0120522Y0143878D01*
X0119228Y0145172D01*
X0118528Y0146862D01*
X0118528Y0154692D01*
X0119228Y0156383D01*
X0120522Y0157677D01*
X0122213Y0158377D01*
X0124043Y0158377D01*
X0125734Y0157677D01*
X0127028Y0156383D01*
X0127728Y0154692D01*
X0127728Y0146862D01*
X0127028Y0145172D01*
X0125734Y0143878D01*
X0126262Y0144406D02*
X0129994Y0144406D01*
X0128883Y0146005D02*
X0127373Y0146005D01*
X0127728Y0147603D02*
X0128528Y0147603D01*
X0128528Y0149202D02*
X0127728Y0149202D01*
X0127728Y0150800D02*
X0128528Y0150800D01*
X0128528Y0152399D02*
X0127728Y0152399D01*
X0127728Y0153997D02*
X0128528Y0153997D01*
X0128902Y0155596D02*
X0127354Y0155596D01*
X0126216Y0157194D02*
X0130040Y0157194D01*
X0120040Y0157194D02*
X0116216Y0157194D01*
X0115734Y0157677D02*
X0114043Y0158377D01*
X0112213Y0158377D01*
X0110522Y0157677D01*
X0109228Y0156383D01*
X0108528Y0154692D01*
X0108528Y0146862D01*
X0109228Y0145172D01*
X0110522Y0143878D01*
X0112213Y0143177D01*
X0114043Y0143177D01*
X0115734Y0143878D01*
X0117028Y0145172D01*
X0117728Y0146862D01*
X0117728Y0154692D01*
X0117028Y0156383D01*
X0115734Y0157677D01*
X0117354Y0155596D02*
X0118902Y0155596D01*
X0118528Y0153997D02*
X0117728Y0153997D01*
X0117728Y0152399D02*
X0118528Y0152399D01*
X0118528Y0150800D02*
X0117728Y0150800D01*
X0117728Y0149202D02*
X0118528Y0149202D01*
X0118528Y0147603D02*
X0117728Y0147603D01*
X0117373Y0146005D02*
X0118883Y0146005D01*
X0119994Y0144406D02*
X0116262Y0144406D01*
X0109994Y0144406D02*
X0106262Y0144406D01*
X0105895Y0144038D02*
X0107028Y0145172D01*
X0107728Y0146862D01*
X0107728Y0154692D01*
X0107028Y0156383D01*
X0105734Y0157677D01*
X0104043Y0158377D01*
X0102213Y0158377D01*
X0100522Y0157677D01*
X0099228Y0156383D01*
X0098528Y0154692D01*
X0098528Y0146862D01*
X0099228Y0145172D01*
X0100522Y0143878D01*
X0101095Y0143641D01*
X0101095Y0119083D01*
X0095772Y0113761D01*
X0095772Y0143916D01*
X0097028Y0145172D01*
X0097728Y0146862D01*
X0097728Y0154692D01*
X0097028Y0156383D01*
X0095734Y0157677D01*
X0094043Y0158377D01*
X0092213Y0158377D01*
X0090522Y0157677D01*
X0089228Y0156383D01*
X0088528Y0154692D01*
X0088528Y0146862D01*
X0089228Y0145172D01*
X0090522Y0143878D01*
X0090972Y0143691D01*
X0090972Y0114299D01*
X0073503Y0096830D01*
X0073515Y0096858D01*
X0073515Y0098648D01*
X0072830Y0100302D01*
X0071564Y0101568D01*
X0069910Y0102253D01*
X0068120Y0102253D01*
X0066466Y0101568D01*
X0065200Y0100302D01*
X0065110Y0100085D01*
X0064479Y0099824D01*
X0067970Y0103315D01*
X0068120Y0103253D01*
X0069910Y0103253D01*
X0071564Y0103938D01*
X0072830Y0105204D01*
X0073515Y0106858D01*
X0073515Y0108648D01*
X0072830Y0110302D01*
X0071564Y0111568D01*
X0069910Y0112253D01*
X0068120Y0112253D01*
X0066466Y0111568D01*
X0065200Y0110302D01*
X0064515Y0108648D01*
X0064515Y0106858D01*
X0064576Y0106709D01*
X0057162Y0099294D01*
X0047027Y0099294D01*
X0047027Y0100809D01*
X0046327Y0102500D01*
X0045033Y0103794D01*
X0043342Y0104494D01*
X0041512Y0104494D01*
X0039822Y0103794D01*
X0038528Y0102500D01*
X0037827Y0100809D01*
X0037827Y0094889D01*
X0037027Y0095689D01*
X0037027Y0100809D01*
X0036327Y0102500D01*
X0035033Y0103794D01*
X0033342Y0104494D01*
X0031512Y0104494D01*
X0029822Y0103794D01*
X0028528Y0102500D01*
X0027827Y0100809D01*
X0027827Y0092979D01*
X0028528Y0091289D01*
X0029822Y0089995D01*
X0031512Y0089294D01*
X0033342Y0089294D01*
X0035033Y0089995D01*
X0035483Y0090445D01*
X0040831Y0085097D01*
X0041713Y0084732D01*
X0055608Y0084732D01*
X0056490Y0085097D01*
X0057165Y0085772D01*
X0060458Y0089064D01*
X0060323Y0088739D01*
X0060323Y0082433D01*
X0060688Y0081551D01*
X0061363Y0080875D01*
X0064515Y0077724D01*
X0064515Y0076858D01*
X0065200Y0075204D01*
X0066466Y0073938D01*
X0068120Y0073253D01*
X0069910Y0073253D01*
X0071564Y0073938D01*
X0072830Y0075204D01*
X0073515Y0076858D01*
X0073515Y0078648D01*
X0072830Y0080302D01*
X0071564Y0081568D01*
X0069910Y0082253D01*
X0068120Y0082253D01*
X0067168Y0081859D01*
X0065123Y0083904D01*
X0065123Y0085390D01*
X0065200Y0085204D01*
X0066466Y0083938D01*
X0068120Y0083253D01*
X0069910Y0083253D01*
X0071564Y0083938D01*
X0072830Y0085204D01*
X0072891Y0085353D01*
X0073636Y0085353D01*
X0074518Y0085719D01*
X0104854Y0116055D01*
X0105529Y0116730D01*
X0105895Y0117612D01*
X0105895Y0144038D01*
X0105895Y0142808D02*
X0185185Y0142808D01*
X0184063Y0135408D02*
X0183885Y0135408D01*
X0183139Y0135290D01*
X0182420Y0135056D01*
X0181747Y0134713D01*
X0181136Y0134269D01*
X0180602Y0133735D01*
X0180158Y0133124D01*
X0179815Y0132451D01*
X0179581Y0131732D01*
X0179463Y0130986D01*
X0179463Y0127808D01*
X0184063Y0127808D01*
X0184063Y0135408D01*
X0184063Y0134815D02*
X0184463Y0134815D01*
X0184463Y0133217D02*
X0184063Y0133217D01*
X0184063Y0131618D02*
X0184463Y0131618D01*
X0184463Y0130020D02*
X0184063Y0130020D01*
X0184063Y0128421D02*
X0184463Y0128421D01*
X0184063Y0127408D02*
X0179463Y0127408D01*
X0179463Y0124230D01*
X0179581Y0123484D01*
X0179815Y0122766D01*
X0180158Y0122092D01*
X0180602Y0121481D01*
X0181136Y0120947D01*
X0181747Y0120503D01*
X0182420Y0120160D01*
X0183139Y0119926D01*
X0183885Y0119808D01*
X0184063Y0119808D01*
X0184063Y0127408D01*
X0184063Y0126823D02*
X0184463Y0126823D01*
X0184463Y0125224D02*
X0184063Y0125224D01*
X0184063Y0123626D02*
X0184463Y0123626D01*
X0184463Y0122027D02*
X0184063Y0122027D01*
X0184063Y0120429D02*
X0184463Y0120429D01*
X0185217Y0118830D02*
X0158879Y0118830D01*
X0160477Y0120429D02*
X0162333Y0120429D01*
X0166193Y0120429D02*
X0172333Y0120429D01*
X0171657Y0120708D02*
X0173348Y0120008D01*
X0175178Y0120008D01*
X0176869Y0120708D01*
X0178163Y0122002D01*
X0178863Y0123693D01*
X0178863Y0131523D01*
X0178163Y0133214D01*
X0176869Y0134508D01*
X0175178Y0135208D01*
X0173348Y0135208D01*
X0171657Y0134508D01*
X0170363Y0133214D01*
X0169663Y0131523D01*
X0169663Y0123693D01*
X0170363Y0122002D01*
X0171657Y0120708D01*
X0170353Y0122027D02*
X0168173Y0122027D01*
X0168835Y0123626D02*
X0169691Y0123626D01*
X0169663Y0125224D02*
X0168863Y0125224D01*
X0168863Y0126823D02*
X0169663Y0126823D01*
X0169663Y0128421D02*
X0168863Y0128421D01*
X0168863Y0130020D02*
X0169663Y0130020D01*
X0169702Y0131618D02*
X0168824Y0131618D01*
X0168160Y0133217D02*
X0170366Y0133217D01*
X0172399Y0134815D02*
X0166127Y0134815D01*
X0164263Y0127608D02*
X0155912Y0119257D01*
X0144543Y0119257D01*
X0136046Y0127753D01*
X0129015Y0127753D01*
X0132838Y0125224D02*
X0135181Y0125224D01*
X0136780Y0123626D02*
X0130809Y0123626D01*
X0130456Y0122027D02*
X0138378Y0122027D01*
X0139977Y0120429D02*
X0132703Y0120429D01*
X0132830Y0120302D02*
X0132975Y0119951D01*
X0133369Y0119788D01*
X0151111Y0102046D01*
X0151561Y0102496D01*
X0153252Y0103196D01*
X0155082Y0103196D01*
X0156773Y0102496D01*
X0158067Y0101202D01*
X0158767Y0099511D01*
X0158767Y0091681D01*
X0158067Y0089990D01*
X0156773Y0088696D01*
X0155082Y0087996D01*
X0153252Y0087996D01*
X0151561Y0088696D01*
X0150267Y0089990D01*
X0149567Y0091681D01*
X0149567Y0096802D01*
X0131997Y0114372D01*
X0131564Y0113938D01*
X0129910Y0113253D01*
X0128120Y0113253D01*
X0126466Y0113938D01*
X0125200Y0115204D01*
X0124515Y0116858D01*
X0124515Y0118648D01*
X0125200Y0120302D01*
X0126466Y0121568D01*
X0128120Y0122253D01*
X0129910Y0122253D01*
X0131564Y0121568D01*
X0132830Y0120302D01*
X0134327Y0118830D02*
X0141575Y0118830D01*
X0143174Y0117231D02*
X0135925Y0117231D01*
X0137524Y0115633D02*
X0185222Y0115633D01*
X0185220Y0117231D02*
X0157280Y0117231D01*
X0150353Y0122027D02*
X0145166Y0122027D01*
X0143568Y0123626D02*
X0149691Y0123626D01*
X0149663Y0125224D02*
X0141969Y0125224D01*
X0140371Y0126823D02*
X0149663Y0126823D01*
X0149663Y0128421D02*
X0138772Y0128421D01*
X0136846Y0130020D02*
X0148457Y0130020D01*
X0146859Y0131618D02*
X0131443Y0131618D01*
X0126586Y0131618D02*
X0105895Y0131618D01*
X0105895Y0130020D02*
X0125083Y0130020D01*
X0124515Y0128421D02*
X0105895Y0128421D01*
X0105895Y0126823D02*
X0124529Y0126823D01*
X0125191Y0125224D02*
X0105895Y0125224D01*
X0105895Y0123626D02*
X0127221Y0123626D01*
X0127574Y0122027D02*
X0105895Y0122027D01*
X0105895Y0120429D02*
X0125326Y0120429D01*
X0124590Y0118830D02*
X0105895Y0118830D01*
X0105737Y0117231D02*
X0124515Y0117231D01*
X0125022Y0115633D02*
X0104432Y0115633D01*
X0102834Y0114034D02*
X0126369Y0114034D01*
X0126466Y0111568D02*
X0125200Y0110302D01*
X0124515Y0108648D01*
X0124515Y0106858D01*
X0125200Y0105204D01*
X0126466Y0103938D01*
X0128120Y0103253D01*
X0129910Y0103253D01*
X0130059Y0103315D01*
X0152003Y0081370D01*
X0152885Y0081005D01*
X0160175Y0081005D01*
X0161057Y0081370D01*
X0161732Y0082046D01*
X0166202Y0086515D01*
X0166567Y0087397D01*
X0166567Y0088611D01*
X0166773Y0088696D01*
X0168067Y0089990D01*
X0168767Y0091681D01*
X0168767Y0099511D01*
X0168067Y0101202D01*
X0166773Y0102496D01*
X0165082Y0103196D01*
X0163252Y0103196D01*
X0161561Y0102496D01*
X0160267Y0101202D01*
X0159567Y0099511D01*
X0159567Y0091681D01*
X0160267Y0089990D01*
X0161561Y0088696D01*
X0161585Y0088686D01*
X0158704Y0085805D01*
X0154357Y0085805D01*
X0133453Y0106709D01*
X0133515Y0106858D01*
X0133515Y0108648D01*
X0132830Y0110302D01*
X0131564Y0111568D01*
X0129910Y0112253D01*
X0128120Y0112253D01*
X0126466Y0111568D01*
X0125735Y0110837D02*
X0099637Y0110837D01*
X0098038Y0109239D02*
X0124759Y0109239D01*
X0124515Y0107640D02*
X0096440Y0107640D01*
X0094841Y0106042D02*
X0124853Y0106042D01*
X0125960Y0104443D02*
X0093243Y0104443D01*
X0091644Y0102845D02*
X0130529Y0102845D01*
X0129910Y0102253D02*
X0128120Y0102253D01*
X0126466Y0101568D01*
X0125200Y0100302D01*
X0124515Y0098648D01*
X0124515Y0096858D01*
X0125200Y0095204D01*
X0126466Y0093938D01*
X0128120Y0093253D01*
X0129910Y0093253D01*
X0130059Y0093315D01*
X0141814Y0081560D01*
X0141814Y0074115D01*
X0141608Y0074030D01*
X0140314Y0072736D01*
X0139614Y0071045D01*
X0139614Y0064009D01*
X0137743Y0065880D01*
X0137743Y0068350D01*
X0137377Y0069233D01*
X0136702Y0069908D01*
X0132118Y0074492D01*
X0132830Y0075204D01*
X0133515Y0076858D01*
X0133515Y0078648D01*
X0132830Y0080302D01*
X0131564Y0081568D01*
X0129910Y0082253D01*
X0128120Y0082253D01*
X0126466Y0081568D01*
X0125200Y0080302D01*
X0124515Y0078648D01*
X0124515Y0076858D01*
X0125200Y0075204D01*
X0126466Y0073938D01*
X0126615Y0073877D01*
X0126615Y0073724D01*
X0126980Y0072842D01*
X0127730Y0072092D01*
X0126466Y0071568D01*
X0125200Y0070302D01*
X0124515Y0068648D01*
X0124515Y0066858D01*
X0125200Y0065204D01*
X0126466Y0063938D01*
X0127016Y0063710D01*
X0128473Y0062253D01*
X0128120Y0062253D01*
X0126466Y0061568D01*
X0125200Y0060302D01*
X0124515Y0058648D01*
X0124515Y0056858D01*
X0125200Y0055204D01*
X0126466Y0053938D01*
X0128120Y0053253D01*
X0129910Y0053253D01*
X0129920Y0053258D01*
X0135317Y0047861D01*
X0135992Y0047186D01*
X0136121Y0047132D01*
X0133515Y0047132D01*
X0133515Y0048648D01*
X0132830Y0050302D01*
X0131564Y0051568D01*
X0129910Y0052253D01*
X0128120Y0052253D01*
X0126466Y0051568D01*
X0125200Y0050302D01*
X0124515Y0048648D01*
X0124515Y0046858D01*
X0125200Y0045204D01*
X0126466Y0043938D01*
X0128120Y0043253D01*
X0129910Y0043253D01*
X0130059Y0043315D01*
X0130676Y0042698D01*
X0131558Y0042332D01*
X0140163Y0042332D01*
X0139595Y0040961D01*
X0139595Y0040153D01*
X0132891Y0040153D01*
X0132830Y0040302D01*
X0131564Y0041568D01*
X0129910Y0042253D01*
X0128120Y0042253D01*
X0126466Y0041568D01*
X0125200Y0040302D01*
X0124515Y0038648D01*
X0124515Y0036858D01*
X0125200Y0035204D01*
X0126466Y0033938D01*
X0128120Y0033253D01*
X0129910Y0033253D01*
X0131564Y0033938D01*
X0132830Y0035204D01*
X0132891Y0035353D01*
X0139595Y0035353D01*
X0139595Y0033131D01*
X0140296Y0031441D01*
X0141590Y0030147D01*
X0143280Y0029446D01*
X0145110Y0029446D01*
X0146801Y0030147D01*
X0148095Y0031441D01*
X0148795Y0033131D01*
X0148795Y0038995D01*
X0149595Y0038195D01*
X0149595Y0033131D01*
X0150296Y0031441D01*
X0151590Y0030147D01*
X0153280Y0029446D01*
X0155110Y0029446D01*
X0156801Y0030147D01*
X0158095Y0031441D01*
X0158795Y0033131D01*
X0158795Y0039052D01*
X0159595Y0038252D01*
X0159595Y0033131D01*
X0160296Y0031441D01*
X0161590Y0030147D01*
X0163280Y0029446D01*
X0165110Y0029446D01*
X0166801Y0030147D01*
X0168095Y0031441D01*
X0168795Y0033131D01*
X0168795Y0040961D01*
X0168095Y0042652D01*
X0166801Y0043946D01*
X0165110Y0044646D01*
X0163280Y0044646D01*
X0161590Y0043946D01*
X0161140Y0043496D01*
X0153381Y0051255D01*
X0152498Y0051621D01*
X0138345Y0051621D01*
X0133395Y0056570D01*
X0133515Y0056858D01*
X0133515Y0057212D01*
X0137413Y0053314D01*
X0138088Y0052639D01*
X0138970Y0052273D01*
X0152234Y0052273D01*
X0153117Y0052639D01*
X0161158Y0060680D01*
X0161608Y0060230D01*
X0163299Y0059530D01*
X0165129Y0059530D01*
X0166819Y0060230D01*
X0168113Y0061524D01*
X0168814Y0063215D01*
X0168814Y0071045D01*
X0168113Y0072736D01*
X0166819Y0074030D01*
X0165129Y0074730D01*
X0163299Y0074730D01*
X0161608Y0074030D01*
X0160314Y0072736D01*
X0159614Y0071045D01*
X0159614Y0065924D01*
X0158814Y0065124D01*
X0158814Y0071045D01*
X0158113Y0072736D01*
X0156819Y0074030D01*
X0155129Y0074730D01*
X0153299Y0074730D01*
X0151608Y0074030D01*
X0150314Y0072736D01*
X0149614Y0071045D01*
X0149614Y0065924D01*
X0148814Y0065124D01*
X0148814Y0071045D01*
X0148113Y0072736D01*
X0146819Y0074030D01*
X0146614Y0074115D01*
X0146614Y0083031D01*
X0146248Y0083914D01*
X0133453Y0096709D01*
X0133515Y0096858D01*
X0133515Y0098648D01*
X0132830Y0100302D01*
X0131564Y0101568D01*
X0129910Y0102253D01*
X0131885Y0101246D02*
X0132127Y0101246D01*
X0133101Y0099648D02*
X0133726Y0099648D01*
X0133515Y0098049D02*
X0135324Y0098049D01*
X0136923Y0096451D02*
X0133711Y0096451D01*
X0135310Y0094852D02*
X0138521Y0094852D01*
X0140120Y0093254D02*
X0136908Y0093254D01*
X0138507Y0091655D02*
X0141718Y0091655D01*
X0143317Y0090057D02*
X0140105Y0090057D01*
X0141704Y0088458D02*
X0144915Y0088458D01*
X0146514Y0086860D02*
X0143302Y0086860D01*
X0144901Y0085261D02*
X0148112Y0085261D01*
X0149711Y0083663D02*
X0146352Y0083663D01*
X0146614Y0082064D02*
X0151309Y0082064D01*
X0153363Y0083405D02*
X0129015Y0107753D01*
X0129338Y0107753D01*
X0132294Y0110837D02*
X0135531Y0110837D01*
X0137130Y0109239D02*
X0133270Y0109239D01*
X0133515Y0107640D02*
X0138728Y0107640D01*
X0140327Y0106042D02*
X0134120Y0106042D01*
X0135719Y0104443D02*
X0141925Y0104443D01*
X0143524Y0102845D02*
X0137317Y0102845D01*
X0138916Y0101246D02*
X0145122Y0101246D01*
X0146721Y0099648D02*
X0140514Y0099648D01*
X0142113Y0098049D02*
X0148319Y0098049D01*
X0149567Y0096451D02*
X0143711Y0096451D01*
X0145310Y0094852D02*
X0149567Y0094852D01*
X0149567Y0093254D02*
X0146908Y0093254D01*
X0148507Y0091655D02*
X0149578Y0091655D01*
X0150105Y0090057D02*
X0150240Y0090057D01*
X0151704Y0088458D02*
X0152136Y0088458D01*
X0153302Y0086860D02*
X0159758Y0086860D01*
X0161357Y0088458D02*
X0156198Y0088458D01*
X0158094Y0090057D02*
X0160240Y0090057D01*
X0159578Y0091655D02*
X0158756Y0091655D01*
X0158767Y0093254D02*
X0159567Y0093254D01*
X0159567Y0094852D02*
X0158767Y0094852D01*
X0158767Y0096451D02*
X0159567Y0096451D01*
X0159567Y0098049D02*
X0158767Y0098049D01*
X0158710Y0099648D02*
X0159624Y0099648D01*
X0160312Y0101246D02*
X0158022Y0101246D01*
X0155929Y0102845D02*
X0162405Y0102845D01*
X0165929Y0102845D02*
X0172405Y0102845D01*
X0171561Y0102496D02*
X0170267Y0101202D01*
X0169567Y0099511D01*
X0169567Y0091681D01*
X0170267Y0089990D01*
X0171561Y0088696D01*
X0173252Y0087996D01*
X0175082Y0087996D01*
X0176773Y0088696D01*
X0178067Y0089990D01*
X0178767Y0091681D01*
X0178767Y0099511D01*
X0178067Y0101202D01*
X0176773Y0102496D01*
X0175082Y0103196D01*
X0173252Y0103196D01*
X0171561Y0102496D01*
X0170312Y0101246D02*
X0168022Y0101246D01*
X0168710Y0099648D02*
X0169624Y0099648D01*
X0169567Y0098049D02*
X0168767Y0098049D01*
X0168767Y0096451D02*
X0169567Y0096451D01*
X0169567Y0094852D02*
X0168767Y0094852D01*
X0168767Y0093254D02*
X0169567Y0093254D01*
X0169578Y0091655D02*
X0168756Y0091655D01*
X0168094Y0090057D02*
X0170240Y0090057D01*
X0172136Y0088458D02*
X0166567Y0088458D01*
X0166345Y0086860D02*
X0185261Y0086860D01*
X0185263Y0085261D02*
X0164948Y0085261D01*
X0163350Y0083663D02*
X0185265Y0083663D01*
X0185267Y0082064D02*
X0161751Y0082064D01*
X0159698Y0083405D02*
X0164167Y0087874D01*
X0164167Y0095596D01*
X0154167Y0095596D02*
X0132010Y0117753D01*
X0129015Y0117753D01*
X0131660Y0114034D02*
X0132334Y0114034D01*
X0133933Y0112436D02*
X0101235Y0112436D01*
X0097644Y0115633D02*
X0095772Y0115633D01*
X0095772Y0117231D02*
X0099243Y0117231D01*
X0100841Y0118830D02*
X0095772Y0118830D01*
X0095772Y0120429D02*
X0101095Y0120429D01*
X0101095Y0122027D02*
X0095772Y0122027D01*
X0095772Y0123626D02*
X0101095Y0123626D01*
X0101095Y0125224D02*
X0095772Y0125224D01*
X0095772Y0126823D02*
X0101095Y0126823D01*
X0101095Y0128421D02*
X0095772Y0128421D01*
X0095772Y0130020D02*
X0101095Y0130020D01*
X0101095Y0131618D02*
X0095772Y0131618D01*
X0095772Y0133217D02*
X0101095Y0133217D01*
X0101095Y0134815D02*
X0095772Y0134815D01*
X0095772Y0136414D02*
X0101095Y0136414D01*
X0101095Y0138012D02*
X0095772Y0138012D01*
X0095772Y0139611D02*
X0101095Y0139611D01*
X0101095Y0141209D02*
X0095772Y0141209D01*
X0095772Y0142808D02*
X0101095Y0142808D01*
X0099994Y0144406D02*
X0096262Y0144406D01*
X0097373Y0146005D02*
X0098883Y0146005D01*
X0098528Y0147603D02*
X0097728Y0147603D01*
X0097728Y0149202D02*
X0098528Y0149202D01*
X0098528Y0150800D02*
X0097728Y0150800D01*
X0097728Y0152399D02*
X0098528Y0152399D01*
X0098528Y0153997D02*
X0097728Y0153997D01*
X0097354Y0155596D02*
X0098902Y0155596D01*
X0100040Y0157194D02*
X0096216Y0157194D01*
X0090040Y0157194D02*
X0086216Y0157194D01*
X0085734Y0157677D02*
X0084043Y0158377D01*
X0082213Y0158377D01*
X0080522Y0157677D01*
X0079228Y0156383D01*
X0078528Y0154692D01*
X0078528Y0146862D01*
X0079228Y0145172D01*
X0080522Y0143878D01*
X0082213Y0143177D01*
X0084043Y0143177D01*
X0085734Y0143878D01*
X0087028Y0145172D01*
X0087728Y0146862D01*
X0087728Y0154692D01*
X0087028Y0156383D01*
X0085734Y0157677D01*
X0087354Y0155596D02*
X0088902Y0155596D01*
X0088528Y0153997D02*
X0087728Y0153997D01*
X0087728Y0152399D02*
X0088528Y0152399D01*
X0088528Y0150800D02*
X0087728Y0150800D01*
X0087728Y0149202D02*
X0088528Y0149202D01*
X0088528Y0147603D02*
X0087728Y0147603D01*
X0087373Y0146005D02*
X0088883Y0146005D01*
X0089994Y0144406D02*
X0086262Y0144406D01*
X0090972Y0142808D02*
X0011612Y0142808D01*
X0011613Y0144406D02*
X0059711Y0144406D01*
X0059467Y0144650D02*
X0060001Y0144116D01*
X0060612Y0143672D01*
X0061286Y0143329D01*
X0062004Y0143096D01*
X0062750Y0142977D01*
X0062928Y0142977D01*
X0062928Y0150577D01*
X0063328Y0150577D01*
X0063328Y0142977D01*
X0063506Y0142977D01*
X0064252Y0143096D01*
X0064971Y0143329D01*
X0065644Y0143672D01*
X0066255Y0144116D01*
X0066789Y0144650D01*
X0067233Y0145262D01*
X0067576Y0145935D01*
X0067810Y0146653D01*
X0067928Y0147400D01*
X0067928Y0150577D01*
X0063328Y0150577D01*
X0063328Y0150977D01*
X0067928Y0150977D01*
X0067928Y0154155D01*
X0067810Y0154901D01*
X0067576Y0155620D01*
X0067233Y0156293D01*
X0066789Y0156904D01*
X0066255Y0157439D01*
X0065644Y0157883D01*
X0064971Y0158226D01*
X0064252Y0158459D01*
X0063506Y0158577D01*
X0063328Y0158577D01*
X0063328Y0150977D01*
X0062928Y0150977D01*
X0062928Y0150577D01*
X0058328Y0150577D01*
X0058328Y0147400D01*
X0058446Y0146653D01*
X0058680Y0145935D01*
X0059023Y0145262D01*
X0059467Y0144650D01*
X0058657Y0146005D02*
X0011613Y0146005D01*
X0011614Y0147603D02*
X0058328Y0147603D01*
X0058328Y0149202D02*
X0011614Y0149202D01*
X0011615Y0150800D02*
X0062928Y0150800D01*
X0062928Y0150977D02*
X0058328Y0150977D01*
X0058328Y0154155D01*
X0058446Y0154901D01*
X0058680Y0155620D01*
X0059023Y0156293D01*
X0059467Y0156904D01*
X0060001Y0157439D01*
X0060612Y0157883D01*
X0061286Y0158226D01*
X0062004Y0158459D01*
X0062750Y0158577D01*
X0062928Y0158577D01*
X0062928Y0150977D01*
X0063328Y0150800D02*
X0068528Y0150800D01*
X0068528Y0149202D02*
X0067928Y0149202D01*
X0067928Y0147603D02*
X0068528Y0147603D01*
X0068528Y0146862D02*
X0069228Y0145172D01*
X0070522Y0143878D01*
X0072213Y0143177D01*
X0074043Y0143177D01*
X0075734Y0143878D01*
X0077028Y0145172D01*
X0077728Y0146862D01*
X0077728Y0154692D01*
X0077028Y0156383D01*
X0075734Y0157677D01*
X0074043Y0158377D01*
X0072213Y0158377D01*
X0070522Y0157677D01*
X0069228Y0156383D01*
X0068528Y0154692D01*
X0068528Y0146862D01*
X0068883Y0146005D02*
X0067599Y0146005D01*
X0066545Y0144406D02*
X0069994Y0144406D01*
X0069910Y0142253D02*
X0068120Y0142253D01*
X0066466Y0141568D01*
X0065200Y0140302D01*
X0064515Y0138648D01*
X0064515Y0136858D01*
X0065200Y0135204D01*
X0066466Y0133938D01*
X0068120Y0133253D01*
X0069910Y0133253D01*
X0071564Y0133938D01*
X0072830Y0135204D01*
X0073515Y0136858D01*
X0073515Y0138648D01*
X0072830Y0140302D01*
X0071564Y0141568D01*
X0069910Y0142253D01*
X0071923Y0141209D02*
X0090972Y0141209D01*
X0090972Y0139611D02*
X0073116Y0139611D01*
X0073515Y0138012D02*
X0090972Y0138012D01*
X0090972Y0136414D02*
X0073331Y0136414D01*
X0072441Y0134815D02*
X0090972Y0134815D01*
X0090972Y0133217D02*
X0046610Y0133217D01*
X0046557Y0133345D02*
X0045263Y0134639D01*
X0043572Y0135340D01*
X0041742Y0135340D01*
X0040052Y0134639D01*
X0038758Y0133345D01*
X0038057Y0131655D01*
X0038057Y0125734D01*
X0037257Y0126534D01*
X0037257Y0131655D01*
X0036557Y0133345D01*
X0035263Y0134639D01*
X0033572Y0135340D01*
X0031742Y0135340D01*
X0030052Y0134639D01*
X0028758Y0133345D01*
X0028057Y0131655D01*
X0028057Y0123825D01*
X0028758Y0122134D01*
X0030052Y0120840D01*
X0031742Y0120140D01*
X0033572Y0120140D01*
X0035263Y0120840D01*
X0035713Y0121290D01*
X0041284Y0115719D01*
X0042166Y0115353D01*
X0065138Y0115353D01*
X0065200Y0115204D01*
X0066466Y0113938D01*
X0068120Y0113253D01*
X0069910Y0113253D01*
X0071564Y0113938D01*
X0072830Y0115204D01*
X0073515Y0116858D01*
X0073515Y0118648D01*
X0072830Y0120302D01*
X0071564Y0121568D01*
X0069910Y0122253D01*
X0068120Y0122253D01*
X0066466Y0121568D01*
X0065200Y0120302D01*
X0065138Y0120153D01*
X0043638Y0120153D01*
X0043628Y0120163D01*
X0045263Y0120840D01*
X0046557Y0122134D01*
X0047257Y0123825D01*
X0047257Y0125340D01*
X0065144Y0125340D01*
X0065200Y0125204D01*
X0066466Y0123938D01*
X0068120Y0123253D01*
X0069910Y0123253D01*
X0071564Y0123938D01*
X0072830Y0125204D01*
X0073515Y0126858D01*
X0073515Y0128648D01*
X0072830Y0130302D01*
X0071564Y0131568D01*
X0069910Y0132253D01*
X0068120Y0132253D01*
X0066466Y0131568D01*
X0065200Y0130302D01*
X0065132Y0130140D01*
X0047257Y0130140D01*
X0047257Y0131655D01*
X0046557Y0133345D01*
X0047257Y0131618D02*
X0066586Y0131618D01*
X0065589Y0134815D02*
X0044839Y0134815D01*
X0040476Y0134815D02*
X0034839Y0134815D01*
X0036610Y0133217D02*
X0038704Y0133217D01*
X0038057Y0131618D02*
X0037257Y0131618D01*
X0037257Y0130020D02*
X0038057Y0130020D01*
X0038057Y0128421D02*
X0037257Y0128421D01*
X0037257Y0126823D02*
X0038057Y0126823D01*
X0042657Y0127740D02*
X0069001Y0127740D01*
X0069015Y0127753D01*
X0070809Y0123626D02*
X0090972Y0123626D01*
X0090972Y0125224D02*
X0072838Y0125224D01*
X0073500Y0126823D02*
X0090972Y0126823D01*
X0090972Y0128421D02*
X0073515Y0128421D01*
X0072947Y0130020D02*
X0090972Y0130020D01*
X0090972Y0131618D02*
X0071443Y0131618D01*
X0064699Y0136414D02*
X0011610Y0136414D01*
X0012857Y0135540D02*
X0012857Y0127940D01*
X0017457Y0127940D01*
X0017457Y0131118D01*
X0017339Y0131864D01*
X0017106Y0132582D01*
X0016763Y0133256D01*
X0016318Y0133867D01*
X0015784Y0134401D01*
X0015173Y0134845D01*
X0014500Y0135188D01*
X0013781Y0135422D01*
X0013035Y0135540D01*
X0012857Y0135540D01*
X0012857Y0134815D02*
X0012457Y0134815D01*
X0012457Y0133217D02*
X0012857Y0133217D01*
X0012857Y0131618D02*
X0012457Y0131618D01*
X0012457Y0130020D02*
X0012857Y0130020D01*
X0012857Y0128421D02*
X0012457Y0128421D01*
X0012457Y0126823D02*
X0012857Y0126823D01*
X0012857Y0125224D02*
X0012457Y0125224D01*
X0012457Y0123626D02*
X0012857Y0123626D01*
X0012857Y0122027D02*
X0012457Y0122027D01*
X0012457Y0120429D02*
X0012857Y0120429D01*
X0014769Y0120429D02*
X0021045Y0120429D01*
X0021742Y0120140D02*
X0020052Y0120840D01*
X0018758Y0122134D01*
X0018057Y0123825D01*
X0018057Y0131655D01*
X0018758Y0133345D01*
X0020052Y0134639D01*
X0021742Y0135340D01*
X0023572Y0135340D01*
X0025263Y0134639D01*
X0026557Y0133345D01*
X0027257Y0131655D01*
X0027257Y0123825D01*
X0026557Y0122134D01*
X0025263Y0120840D01*
X0023572Y0120140D01*
X0021742Y0120140D01*
X0024269Y0120429D02*
X0031045Y0120429D01*
X0034269Y0120429D02*
X0036574Y0120429D01*
X0038173Y0118830D02*
X0011605Y0118830D01*
X0011604Y0117231D02*
X0039771Y0117231D01*
X0041491Y0115633D02*
X0011604Y0115633D01*
X0011603Y0114034D02*
X0066369Y0114034D01*
X0065735Y0110837D02*
X0011602Y0110837D01*
X0011602Y0109239D02*
X0064759Y0109239D01*
X0064515Y0107640D02*
X0011601Y0107640D01*
X0011600Y0106042D02*
X0063909Y0106042D01*
X0062311Y0104443D02*
X0043466Y0104443D01*
X0041389Y0104443D02*
X0033466Y0104443D01*
X0031389Y0104443D02*
X0023466Y0104443D01*
X0023342Y0104494D02*
X0021512Y0104494D01*
X0019822Y0103794D01*
X0018528Y0102500D01*
X0017827Y0100809D01*
X0017827Y0092979D01*
X0018528Y0091289D01*
X0019822Y0089995D01*
X0021512Y0089294D01*
X0023342Y0089294D01*
X0025033Y0089995D01*
X0026327Y0091289D01*
X0027027Y0092979D01*
X0027027Y0100809D01*
X0026327Y0102500D01*
X0025033Y0103794D01*
X0023342Y0104494D01*
X0021389Y0104443D02*
X0013960Y0104443D01*
X0012627Y0104443D02*
X0012227Y0104443D01*
X0012227Y0102845D02*
X0012627Y0102845D01*
X0012627Y0101246D02*
X0012227Y0101246D01*
X0012227Y0099648D02*
X0012627Y0099648D01*
X0012627Y0098049D02*
X0012227Y0098049D01*
X0012227Y0096451D02*
X0012627Y0096451D01*
X0012627Y0094852D02*
X0012227Y0094852D01*
X0012227Y0093254D02*
X0012627Y0093254D01*
X0012627Y0091655D02*
X0012227Y0091655D01*
X0012227Y0090057D02*
X0012627Y0090057D01*
X0011595Y0088458D02*
X0037469Y0088458D01*
X0035871Y0090057D02*
X0035095Y0090057D01*
X0039068Y0086860D02*
X0011594Y0086860D01*
X0011594Y0085261D02*
X0040666Y0085261D01*
X0042190Y0087132D02*
X0032427Y0096894D01*
X0027827Y0096451D02*
X0027027Y0096451D01*
X0027027Y0098049D02*
X0027827Y0098049D01*
X0027827Y0099648D02*
X0027027Y0099648D01*
X0026846Y0101246D02*
X0028008Y0101246D01*
X0028872Y0102845D02*
X0025982Y0102845D01*
X0018872Y0102845D02*
X0016217Y0102845D01*
X0017035Y0101246D02*
X0018008Y0101246D01*
X0017827Y0099648D02*
X0017227Y0099648D01*
X0017227Y0098049D02*
X0017827Y0098049D01*
X0017827Y0096451D02*
X0017227Y0096451D01*
X0017227Y0094852D02*
X0017827Y0094852D01*
X0017827Y0093254D02*
X0017186Y0093254D01*
X0016674Y0091655D02*
X0018376Y0091655D01*
X0019760Y0090057D02*
X0015311Y0090057D01*
X0011593Y0083663D02*
X0060323Y0083663D01*
X0060323Y0085261D02*
X0056654Y0085261D01*
X0057165Y0085772D02*
X0057165Y0085772D01*
X0058253Y0086860D02*
X0060323Y0086860D01*
X0060323Y0088458D02*
X0059851Y0088458D01*
X0062723Y0088261D02*
X0067222Y0092760D01*
X0072827Y0092760D01*
X0093372Y0113305D01*
X0093372Y0150533D01*
X0093128Y0150777D01*
X0103128Y0150777D02*
X0103495Y0150411D01*
X0103495Y0118089D01*
X0073159Y0087753D01*
X0069015Y0087753D01*
X0070898Y0083663D02*
X0127131Y0083663D01*
X0126466Y0083938D02*
X0128120Y0083253D01*
X0129910Y0083253D01*
X0131564Y0083938D01*
X0132830Y0085204D01*
X0133515Y0086858D01*
X0133515Y0088648D01*
X0132830Y0090302D01*
X0131564Y0091568D01*
X0129910Y0092253D01*
X0128120Y0092253D01*
X0126466Y0091568D01*
X0125200Y0090302D01*
X0124515Y0088648D01*
X0124515Y0086858D01*
X0125200Y0085204D01*
X0126466Y0083938D01*
X0125176Y0085261D02*
X0072853Y0085261D01*
X0070366Y0082064D02*
X0127663Y0082064D01*
X0130366Y0082064D02*
X0141309Y0082064D01*
X0141814Y0080466D02*
X0132666Y0080466D01*
X0133424Y0078867D02*
X0141814Y0078867D01*
X0141814Y0077269D02*
X0133515Y0077269D01*
X0133023Y0075670D02*
X0141814Y0075670D01*
X0141709Y0074072D02*
X0132538Y0074072D01*
X0134137Y0072473D02*
X0140205Y0072473D01*
X0139614Y0070875D02*
X0135735Y0070875D01*
X0137334Y0069276D02*
X0139614Y0069276D01*
X0139614Y0067678D02*
X0137743Y0067678D01*
X0137743Y0066079D02*
X0139614Y0066079D01*
X0139614Y0064481D02*
X0139142Y0064481D01*
X0135343Y0064886D02*
X0140727Y0059502D01*
X0146585Y0059502D01*
X0154214Y0067130D01*
X0158814Y0067678D02*
X0159614Y0067678D01*
X0159614Y0069276D02*
X0158814Y0069276D01*
X0158814Y0070875D02*
X0159614Y0070875D01*
X0160205Y0072473D02*
X0158222Y0072473D01*
X0156718Y0074072D02*
X0161709Y0074072D01*
X0166718Y0074072D02*
X0171709Y0074072D01*
X0171608Y0074030D02*
X0170314Y0072736D01*
X0169614Y0071045D01*
X0169614Y0063215D01*
X0170314Y0061524D01*
X0171608Y0060230D01*
X0173299Y0059530D01*
X0175129Y0059530D01*
X0176819Y0060230D01*
X0178113Y0061524D01*
X0178814Y0063215D01*
X0178814Y0071045D01*
X0178113Y0072736D01*
X0176819Y0074030D01*
X0175129Y0074730D01*
X0173299Y0074730D01*
X0171608Y0074030D01*
X0170205Y0072473D02*
X0168222Y0072473D01*
X0168814Y0070875D02*
X0169614Y0070875D01*
X0169614Y0069276D02*
X0168814Y0069276D01*
X0168814Y0067678D02*
X0169614Y0067678D01*
X0169614Y0066079D02*
X0168814Y0066079D01*
X0168814Y0064481D02*
X0169614Y0064481D01*
X0169752Y0062882D02*
X0168676Y0062882D01*
X0167873Y0061284D02*
X0170555Y0061284D01*
X0172924Y0059685D02*
X0165503Y0059685D01*
X0162924Y0059685D02*
X0160163Y0059685D01*
X0158564Y0058087D02*
X0185300Y0058087D01*
X0185302Y0056488D02*
X0156966Y0056488D01*
X0155367Y0054890D02*
X0185304Y0054890D01*
X0185306Y0053291D02*
X0153769Y0053291D01*
X0151757Y0054673D02*
X0164214Y0067130D01*
X0159614Y0066079D02*
X0158814Y0066079D01*
X0151709Y0074072D02*
X0146718Y0074072D01*
X0146614Y0075670D02*
X0185276Y0075670D01*
X0185274Y0077269D02*
X0146614Y0077269D01*
X0146614Y0078867D02*
X0185271Y0078867D01*
X0185269Y0080466D02*
X0146614Y0080466D01*
X0144214Y0082554D02*
X0129015Y0097753D01*
X0125552Y0094852D02*
X0083652Y0094852D01*
X0082053Y0093254D02*
X0128118Y0093254D01*
X0129911Y0093254D02*
X0130120Y0093254D01*
X0131353Y0091655D02*
X0131718Y0091655D01*
X0132931Y0090057D02*
X0133317Y0090057D01*
X0133515Y0088458D02*
X0134915Y0088458D01*
X0133515Y0086860D02*
X0136514Y0086860D01*
X0138112Y0085261D02*
X0132853Y0085261D01*
X0130898Y0083663D02*
X0139711Y0083663D01*
X0144214Y0082554D02*
X0144214Y0067130D01*
X0148814Y0067678D02*
X0149614Y0067678D01*
X0149614Y0069276D02*
X0148814Y0069276D01*
X0148814Y0070875D02*
X0149614Y0070875D01*
X0150205Y0072473D02*
X0148222Y0072473D01*
X0148814Y0066079D02*
X0149614Y0066079D01*
X0151757Y0054673D02*
X0139447Y0054673D01*
X0129015Y0065106D01*
X0129015Y0067753D01*
X0125772Y0070875D02*
X0072257Y0070875D01*
X0072830Y0070302D02*
X0071564Y0071568D01*
X0069910Y0072253D01*
X0068120Y0072253D01*
X0067970Y0072191D01*
X0061021Y0079141D01*
X0060139Y0079506D01*
X0047257Y0079506D01*
X0046375Y0079141D01*
X0045700Y0078465D01*
X0041979Y0074745D01*
X0041744Y0074745D01*
X0040053Y0074045D01*
X0038759Y0072751D01*
X0038059Y0071060D01*
X0038059Y0065139D01*
X0037259Y0065939D01*
X0037259Y0071060D01*
X0036558Y0072751D01*
X0035264Y0074045D01*
X0033574Y0074745D01*
X0031744Y0074745D01*
X0030053Y0074045D01*
X0028759Y0072751D01*
X0028059Y0071060D01*
X0028059Y0063230D01*
X0028759Y0061540D01*
X0030053Y0060246D01*
X0031744Y0059545D01*
X0033574Y0059545D01*
X0035264Y0060246D01*
X0035714Y0060695D01*
X0040691Y0055719D01*
X0041573Y0055353D01*
X0065138Y0055353D01*
X0065200Y0055204D01*
X0066466Y0053938D01*
X0068120Y0053253D01*
X0069910Y0053253D01*
X0071564Y0053938D01*
X0072830Y0055204D01*
X0073515Y0056858D01*
X0073515Y0058648D01*
X0072830Y0060302D01*
X0072792Y0060339D01*
X0093034Y0060339D01*
X0124576Y0028797D01*
X0124515Y0028648D01*
X0124515Y0026858D01*
X0125200Y0025204D01*
X0126466Y0023938D01*
X0128120Y0023253D01*
X0129910Y0023253D01*
X0131564Y0023938D01*
X0132830Y0025204D01*
X0133515Y0026858D01*
X0133515Y0028648D01*
X0132830Y0030302D01*
X0131564Y0031568D01*
X0129910Y0032253D01*
X0128120Y0032253D01*
X0127970Y0032191D01*
X0095388Y0064774D01*
X0094506Y0065139D01*
X0072765Y0065139D01*
X0072830Y0065204D01*
X0073515Y0066858D01*
X0073515Y0068648D01*
X0072830Y0070302D01*
X0073255Y0069276D02*
X0124775Y0069276D01*
X0124515Y0067678D02*
X0073515Y0067678D01*
X0073192Y0066079D02*
X0124837Y0066079D01*
X0125923Y0064481D02*
X0095681Y0064481D01*
X0097280Y0062882D02*
X0127844Y0062882D01*
X0126181Y0061284D02*
X0098878Y0061284D01*
X0100477Y0059685D02*
X0124944Y0059685D01*
X0124515Y0058087D02*
X0102075Y0058087D01*
X0103674Y0056488D02*
X0124668Y0056488D01*
X0125514Y0054890D02*
X0105272Y0054890D01*
X0106871Y0053291D02*
X0128028Y0053291D01*
X0126766Y0051693D02*
X0108469Y0051693D01*
X0110068Y0050094D02*
X0125113Y0050094D01*
X0124515Y0048495D02*
X0111666Y0048495D01*
X0113265Y0046897D02*
X0124515Y0046897D01*
X0125161Y0045298D02*
X0114863Y0045298D01*
X0116462Y0043700D02*
X0127041Y0043700D01*
X0127753Y0042101D02*
X0118060Y0042101D01*
X0119659Y0040503D02*
X0125400Y0040503D01*
X0124621Y0038904D02*
X0121258Y0038904D01*
X0122856Y0037306D02*
X0124515Y0037306D01*
X0124455Y0035707D02*
X0124991Y0035707D01*
X0126053Y0034109D02*
X0126295Y0034109D01*
X0127652Y0032510D02*
X0139853Y0032510D01*
X0139595Y0034109D02*
X0131734Y0034109D01*
X0132220Y0030912D02*
X0140825Y0030912D01*
X0147566Y0030912D02*
X0150825Y0030912D01*
X0149853Y0032510D02*
X0148538Y0032510D01*
X0148795Y0034109D02*
X0149595Y0034109D01*
X0149595Y0035707D02*
X0148795Y0035707D01*
X0148795Y0037306D02*
X0149595Y0037306D01*
X0148886Y0038904D02*
X0148795Y0038904D01*
X0144195Y0037046D02*
X0143489Y0037753D01*
X0129015Y0037753D01*
X0132629Y0040503D02*
X0139595Y0040503D01*
X0140068Y0042101D02*
X0130276Y0042101D01*
X0132035Y0044732D02*
X0129015Y0047753D01*
X0132035Y0044732D02*
X0146452Y0044732D01*
X0154138Y0037046D01*
X0154195Y0037046D01*
X0158795Y0037306D02*
X0159595Y0037306D01*
X0159595Y0035707D02*
X0158795Y0035707D01*
X0158795Y0034109D02*
X0159595Y0034109D01*
X0159853Y0032510D02*
X0158538Y0032510D01*
X0157566Y0030912D02*
X0160825Y0030912D01*
X0164195Y0037046D02*
X0152021Y0049221D01*
X0137351Y0049221D01*
X0129015Y0057557D01*
X0129015Y0057753D01*
X0133478Y0056488D02*
X0134238Y0056488D01*
X0135076Y0054890D02*
X0135837Y0054890D01*
X0136675Y0053291D02*
X0137435Y0053291D01*
X0138273Y0051693D02*
X0185308Y0051693D01*
X0185310Y0050094D02*
X0154542Y0050094D01*
X0156140Y0048495D02*
X0185312Y0048495D01*
X0185315Y0046897D02*
X0157739Y0046897D01*
X0159337Y0045298D02*
X0185317Y0045298D01*
X0183995Y0044846D02*
X0183818Y0044846D01*
X0183071Y0044728D01*
X0182353Y0044495D01*
X0181680Y0044152D01*
X0181068Y0043708D01*
X0180534Y0043173D01*
X0180090Y0042562D01*
X0179747Y0041889D01*
X0179514Y0041170D01*
X0179395Y0040424D01*
X0179395Y0037246D01*
X0183995Y0037246D01*
X0183995Y0044846D01*
X0183995Y0043700D02*
X0184395Y0043700D01*
X0184395Y0042101D02*
X0183995Y0042101D01*
X0183995Y0040503D02*
X0184395Y0040503D01*
X0184395Y0038904D02*
X0183995Y0038904D01*
X0183995Y0037306D02*
X0184395Y0037306D01*
X0184395Y0035707D02*
X0183995Y0035707D01*
X0183995Y0034109D02*
X0184395Y0034109D01*
X0184395Y0032510D02*
X0183995Y0032510D01*
X0183995Y0030912D02*
X0184395Y0030912D01*
X0184395Y0029313D02*
X0183995Y0029313D01*
X0183395Y0029313D02*
X0133239Y0029313D01*
X0133515Y0027715D02*
X0185341Y0027715D01*
X0185338Y0029313D02*
X0184996Y0029313D01*
X0185343Y0026116D02*
X0133207Y0026116D01*
X0132143Y0024518D02*
X0185345Y0024518D01*
X0185347Y0022919D02*
X0127243Y0022919D01*
X0127970Y0022191D02*
X0115166Y0034996D01*
X0114284Y0035361D01*
X0072895Y0035361D01*
X0073515Y0036858D01*
X0073515Y0038648D01*
X0072830Y0040302D01*
X0071564Y0041568D01*
X0069910Y0042253D01*
X0068120Y0042253D01*
X0068013Y0042209D01*
X0063189Y0047033D01*
X0062513Y0047708D01*
X0061658Y0048063D01*
X0064515Y0048063D01*
X0064515Y0046858D01*
X0065200Y0045204D01*
X0066466Y0043938D01*
X0068120Y0043253D01*
X0069910Y0043253D01*
X0071564Y0043938D01*
X0072830Y0045204D01*
X0073515Y0046858D01*
X0073515Y0048648D01*
X0072830Y0050302D01*
X0071564Y0051568D01*
X0069910Y0052253D01*
X0068120Y0052253D01*
X0067866Y0052148D01*
X0067517Y0052497D01*
X0066635Y0052863D01*
X0044996Y0052863D01*
X0044114Y0052497D01*
X0035695Y0044079D01*
X0035245Y0044529D01*
X0033554Y0045229D01*
X0031724Y0045229D01*
X0030034Y0044529D01*
X0028740Y0043235D01*
X0028039Y0041544D01*
X0028039Y0033714D01*
X0028740Y0032023D01*
X0030034Y0030729D01*
X0031724Y0030029D01*
X0033554Y0030029D01*
X0035245Y0030729D01*
X0036539Y0032023D01*
X0037239Y0033714D01*
X0037239Y0038835D01*
X0038039Y0039635D01*
X0038039Y0033714D01*
X0038740Y0032023D01*
X0040034Y0030729D01*
X0041724Y0030029D01*
X0043554Y0030029D01*
X0045245Y0030729D01*
X0046539Y0032023D01*
X0047239Y0033714D01*
X0047239Y0038835D01*
X0048039Y0039635D01*
X0048039Y0033714D01*
X0048740Y0032023D01*
X0050034Y0030729D01*
X0051724Y0030029D01*
X0053554Y0030029D01*
X0055245Y0030729D01*
X0056539Y0032023D01*
X0057239Y0033714D01*
X0057239Y0035229D01*
X0061382Y0035229D01*
X0065009Y0031602D01*
X0065684Y0030927D01*
X0065783Y0030886D01*
X0065200Y0030302D01*
X0064515Y0028648D01*
X0064515Y0026858D01*
X0065200Y0025204D01*
X0066466Y0023938D01*
X0068120Y0023253D01*
X0069910Y0023253D01*
X0071564Y0023938D01*
X0072830Y0025204D01*
X0073515Y0026858D01*
X0073515Y0028648D01*
X0072830Y0030302D01*
X0072570Y0030561D01*
X0112812Y0030561D01*
X0124576Y0018797D01*
X0124515Y0018648D01*
X0124515Y0016858D01*
X0125200Y0015204D01*
X0126466Y0013938D01*
X0128120Y0013253D01*
X0129910Y0013253D01*
X0131564Y0013938D01*
X0132830Y0015204D01*
X0133515Y0016858D01*
X0133515Y0018648D01*
X0132830Y0020302D01*
X0131564Y0021568D01*
X0129910Y0022253D01*
X0128120Y0022253D01*
X0127970Y0022191D01*
X0125886Y0024518D02*
X0125644Y0024518D01*
X0124822Y0026116D02*
X0124046Y0026116D01*
X0124515Y0027715D02*
X0122447Y0027715D01*
X0120849Y0029313D02*
X0124060Y0029313D01*
X0122462Y0030912D02*
X0119250Y0030912D01*
X0117652Y0032510D02*
X0120863Y0032510D01*
X0119265Y0034109D02*
X0116053Y0034109D01*
X0117666Y0035707D02*
X0073038Y0035707D01*
X0073515Y0037306D02*
X0116068Y0037306D01*
X0114469Y0038904D02*
X0073409Y0038904D01*
X0072629Y0040503D02*
X0112871Y0040503D01*
X0111272Y0042101D02*
X0070276Y0042101D01*
X0070988Y0043700D02*
X0109674Y0043700D01*
X0108075Y0045298D02*
X0072869Y0045298D01*
X0073515Y0046897D02*
X0106477Y0046897D01*
X0104878Y0048495D02*
X0073515Y0048495D01*
X0072916Y0050094D02*
X0103280Y0050094D01*
X0101681Y0051693D02*
X0071263Y0051693D01*
X0070001Y0053291D02*
X0100083Y0053291D01*
X0098484Y0054890D02*
X0072515Y0054890D01*
X0073361Y0056488D02*
X0096886Y0056488D01*
X0095287Y0058087D02*
X0073515Y0058087D01*
X0073085Y0059685D02*
X0093689Y0059685D01*
X0094028Y0062739D02*
X0129015Y0027753D01*
X0131811Y0021321D02*
X0176554Y0021321D01*
X0173967Y0019722D02*
X0133070Y0019722D01*
X0133515Y0018124D02*
X0172369Y0018124D01*
X0171368Y0016525D02*
X0133377Y0016525D01*
X0132552Y0014927D02*
X0170609Y0014927D01*
X0170180Y0013328D02*
X0130091Y0013328D01*
X0131173Y0011730D02*
X0170007Y0011730D01*
X0170007Y0010131D02*
X0132900Y0010131D01*
X0133515Y0008533D02*
X0170350Y0008533D01*
X0170810Y0006934D02*
X0133515Y0006934D01*
X0127938Y0013328D02*
X0070091Y0013328D01*
X0069910Y0013253D02*
X0071564Y0013938D01*
X0072830Y0015204D01*
X0073515Y0016858D01*
X0073515Y0018648D01*
X0072830Y0020302D01*
X0071564Y0021568D01*
X0069910Y0022253D01*
X0068120Y0022253D01*
X0066466Y0021568D01*
X0065200Y0020302D01*
X0064515Y0018648D01*
X0064515Y0016858D01*
X0065200Y0015204D01*
X0066466Y0013938D01*
X0068120Y0013253D01*
X0069910Y0013253D01*
X0067938Y0013328D02*
X0025723Y0013328D01*
X0026103Y0011730D02*
X0066856Y0011730D01*
X0065129Y0010131D02*
X0026103Y0010131D01*
X0025968Y0008533D02*
X0064515Y0008533D01*
X0064515Y0006934D02*
X0032843Y0006934D01*
X0025219Y0014927D02*
X0065477Y0014927D01*
X0064652Y0016525D02*
X0024296Y0016525D01*
X0022969Y0018124D02*
X0064515Y0018124D01*
X0064959Y0019722D02*
X0020987Y0019722D01*
X0016843Y0021321D02*
X0066218Y0021321D01*
X0065886Y0024518D02*
X0011574Y0024518D01*
X0011575Y0026116D02*
X0064822Y0026116D01*
X0064515Y0027715D02*
X0011575Y0027715D01*
X0011576Y0029313D02*
X0064790Y0029313D01*
X0065720Y0030912D02*
X0055428Y0030912D01*
X0056741Y0032510D02*
X0064101Y0032510D01*
X0062502Y0034109D02*
X0057239Y0034109D01*
X0052639Y0037629D02*
X0062376Y0037629D01*
X0067044Y0032961D01*
X0113806Y0032961D01*
X0129015Y0017753D01*
X0125477Y0014927D02*
X0072552Y0014927D01*
X0073377Y0016525D02*
X0124652Y0016525D01*
X0124515Y0018124D02*
X0073515Y0018124D01*
X0073070Y0019722D02*
X0123651Y0019722D01*
X0122053Y0021321D02*
X0071811Y0021321D01*
X0072143Y0024518D02*
X0118856Y0024518D01*
X0117257Y0026116D02*
X0073207Y0026116D01*
X0073515Y0027715D02*
X0115659Y0027715D01*
X0114060Y0029313D02*
X0073239Y0029313D01*
X0069015Y0037753D02*
X0069015Y0037813D01*
X0061154Y0045674D01*
X0050684Y0045674D01*
X0042639Y0037629D01*
X0047239Y0037306D02*
X0048039Y0037306D01*
X0048039Y0038904D02*
X0047309Y0038904D01*
X0047239Y0035707D02*
X0048039Y0035707D01*
X0048039Y0034109D02*
X0047239Y0034109D01*
X0046741Y0032510D02*
X0048538Y0032510D01*
X0049851Y0030912D02*
X0045428Y0030912D01*
X0039851Y0030912D02*
X0035428Y0030912D01*
X0036741Y0032510D02*
X0038538Y0032510D01*
X0038039Y0034109D02*
X0037239Y0034109D01*
X0037239Y0035707D02*
X0038039Y0035707D01*
X0038039Y0037306D02*
X0037239Y0037306D01*
X0037309Y0038904D02*
X0038039Y0038904D01*
X0032639Y0037629D02*
X0045473Y0050463D01*
X0066158Y0050463D01*
X0068867Y0047753D01*
X0069015Y0047753D01*
X0067041Y0043700D02*
X0066522Y0043700D01*
X0065161Y0045298D02*
X0064923Y0045298D01*
X0064515Y0046897D02*
X0063325Y0046897D01*
X0068028Y0053291D02*
X0011583Y0053291D01*
X0011583Y0051693D02*
X0043309Y0051693D01*
X0041711Y0050094D02*
X0011582Y0050094D01*
X0011582Y0048495D02*
X0040112Y0048495D01*
X0038514Y0046897D02*
X0011581Y0046897D01*
X0012439Y0045298D02*
X0012839Y0045298D01*
X0013801Y0045298D02*
X0036915Y0045298D01*
X0029205Y0043700D02*
X0026074Y0043700D01*
X0026539Y0043235D02*
X0025245Y0044529D01*
X0023554Y0045229D01*
X0021724Y0045229D01*
X0020034Y0044529D01*
X0018740Y0043235D01*
X0018039Y0041544D01*
X0018039Y0033714D01*
X0018740Y0032023D01*
X0020034Y0030729D01*
X0021724Y0030029D01*
X0023554Y0030029D01*
X0025245Y0030729D01*
X0026539Y0032023D01*
X0027239Y0033714D01*
X0027239Y0041544D01*
X0026539Y0043235D01*
X0027009Y0042101D02*
X0028270Y0042101D01*
X0028039Y0040503D02*
X0027239Y0040503D01*
X0027239Y0038904D02*
X0028039Y0038904D01*
X0028039Y0037306D02*
X0027239Y0037306D01*
X0027239Y0035707D02*
X0028039Y0035707D01*
X0028039Y0034109D02*
X0027239Y0034109D01*
X0026741Y0032510D02*
X0028538Y0032510D01*
X0029851Y0030912D02*
X0025428Y0030912D01*
X0019851Y0030912D02*
X0015690Y0030912D01*
X0016947Y0032510D02*
X0018538Y0032510D01*
X0018039Y0034109D02*
X0017417Y0034109D01*
X0017439Y0035707D02*
X0018039Y0035707D01*
X0018039Y0037306D02*
X0017439Y0037306D01*
X0017439Y0038904D02*
X0018039Y0038904D01*
X0018039Y0040503D02*
X0017439Y0040503D01*
X0017208Y0042101D02*
X0018270Y0042101D01*
X0019205Y0043700D02*
X0016341Y0043700D01*
X0012839Y0043700D02*
X0012439Y0043700D01*
X0012439Y0042101D02*
X0012839Y0042101D01*
X0012839Y0040503D02*
X0012439Y0040503D01*
X0012439Y0038904D02*
X0012839Y0038904D01*
X0012839Y0037306D02*
X0012439Y0037306D01*
X0012439Y0035707D02*
X0012839Y0035707D01*
X0012839Y0034109D02*
X0012439Y0034109D01*
X0012439Y0032510D02*
X0012839Y0032510D01*
X0012839Y0030912D02*
X0012439Y0030912D01*
X0011574Y0022919D02*
X0120454Y0022919D01*
X0126856Y0011730D02*
X0071173Y0011730D01*
X0072900Y0010131D02*
X0125129Y0010131D01*
X0124515Y0008533D02*
X0073515Y0008533D01*
X0073515Y0006934D02*
X0124515Y0006934D01*
X0158795Y0038904D02*
X0158943Y0038904D01*
X0160936Y0043700D02*
X0161344Y0043700D01*
X0167047Y0043700D02*
X0171344Y0043700D01*
X0171590Y0043946D02*
X0170296Y0042652D01*
X0169595Y0040961D01*
X0169595Y0033131D01*
X0170296Y0031441D01*
X0171590Y0030147D01*
X0173280Y0029446D01*
X0175110Y0029446D01*
X0176801Y0030147D01*
X0178095Y0031441D01*
X0178795Y0033131D01*
X0178795Y0040961D01*
X0178095Y0042652D01*
X0176801Y0043946D01*
X0175110Y0044646D01*
X0173280Y0044646D01*
X0171590Y0043946D01*
X0170068Y0042101D02*
X0168323Y0042101D01*
X0168795Y0040503D02*
X0169595Y0040503D01*
X0169595Y0038904D02*
X0168795Y0038904D01*
X0168795Y0037306D02*
X0169595Y0037306D01*
X0169595Y0035707D02*
X0168795Y0035707D01*
X0168795Y0034109D02*
X0169595Y0034109D01*
X0169853Y0032510D02*
X0168538Y0032510D01*
X0167566Y0030912D02*
X0170825Y0030912D01*
X0177566Y0030912D02*
X0180542Y0030912D01*
X0179647Y0032510D02*
X0178538Y0032510D01*
X0178795Y0034109D02*
X0179395Y0034109D01*
X0179395Y0035707D02*
X0178795Y0035707D01*
X0178795Y0037306D02*
X0179395Y0037306D01*
X0179395Y0038904D02*
X0178795Y0038904D01*
X0178795Y0040503D02*
X0179408Y0040503D01*
X0179855Y0042101D02*
X0178323Y0042101D01*
X0177047Y0043700D02*
X0181061Y0043700D01*
X0183836Y0059330D02*
X0184014Y0059330D01*
X0184014Y0066930D01*
X0179414Y0066930D01*
X0179414Y0063752D01*
X0179532Y0063006D01*
X0179765Y0062287D01*
X0180108Y0061614D01*
X0180553Y0061003D01*
X0181087Y0060469D01*
X0181698Y0060025D01*
X0182371Y0059682D01*
X0183090Y0059448D01*
X0183836Y0059330D01*
X0184014Y0059685D02*
X0184414Y0059685D01*
X0184414Y0061284D02*
X0184014Y0061284D01*
X0184014Y0062882D02*
X0184414Y0062882D01*
X0184414Y0064481D02*
X0184014Y0064481D01*
X0184014Y0066079D02*
X0184414Y0066079D01*
X0184414Y0067678D02*
X0184014Y0067678D01*
X0184014Y0069276D02*
X0184414Y0069276D01*
X0184414Y0070875D02*
X0184014Y0070875D01*
X0184014Y0072473D02*
X0184414Y0072473D01*
X0184414Y0074072D02*
X0184014Y0074072D01*
X0181473Y0074072D02*
X0176718Y0074072D01*
X0178222Y0072473D02*
X0180020Y0072473D01*
X0179472Y0070875D02*
X0178814Y0070875D01*
X0178814Y0069276D02*
X0179414Y0069276D01*
X0179414Y0067678D02*
X0178814Y0067678D01*
X0178814Y0066079D02*
X0179414Y0066079D01*
X0179414Y0064481D02*
X0178814Y0064481D01*
X0178676Y0062882D02*
X0179572Y0062882D01*
X0180349Y0061284D02*
X0177873Y0061284D01*
X0175503Y0059685D02*
X0182365Y0059685D01*
X0159698Y0083405D02*
X0153363Y0083405D01*
X0135343Y0067873D02*
X0135343Y0064886D01*
X0135343Y0067873D02*
X0129015Y0074201D01*
X0129015Y0077753D01*
X0125363Y0080466D02*
X0072666Y0080466D01*
X0073424Y0078867D02*
X0124605Y0078867D01*
X0124515Y0077269D02*
X0073515Y0077269D01*
X0073023Y0075670D02*
X0125007Y0075670D01*
X0126332Y0074072D02*
X0071697Y0074072D01*
X0067689Y0072473D02*
X0127349Y0072473D01*
X0124515Y0086860D02*
X0075659Y0086860D01*
X0077258Y0088458D02*
X0124515Y0088458D01*
X0125098Y0090057D02*
X0078856Y0090057D01*
X0080455Y0091655D02*
X0126676Y0091655D01*
X0124683Y0096451D02*
X0085250Y0096451D01*
X0086849Y0098049D02*
X0124515Y0098049D01*
X0124929Y0099648D02*
X0088447Y0099648D01*
X0090046Y0101246D02*
X0126144Y0101246D01*
X0139122Y0114034D02*
X0185224Y0114034D01*
X0185226Y0112436D02*
X0140721Y0112436D01*
X0142320Y0110837D02*
X0185228Y0110837D01*
X0185230Y0109239D02*
X0143918Y0109239D01*
X0145517Y0107640D02*
X0185233Y0107640D01*
X0185235Y0106042D02*
X0147115Y0106042D01*
X0148714Y0104443D02*
X0185237Y0104443D01*
X0184367Y0102845D02*
X0183967Y0102845D01*
X0183967Y0101246D02*
X0184367Y0101246D01*
X0184367Y0099648D02*
X0183967Y0099648D01*
X0183967Y0098049D02*
X0184367Y0098049D01*
X0184367Y0096451D02*
X0183967Y0096451D01*
X0183967Y0094852D02*
X0184367Y0094852D01*
X0184367Y0093254D02*
X0183967Y0093254D01*
X0183967Y0091655D02*
X0184367Y0091655D01*
X0184367Y0090057D02*
X0183967Y0090057D01*
X0183967Y0088458D02*
X0184367Y0088458D01*
X0181715Y0088458D02*
X0176198Y0088458D01*
X0178094Y0090057D02*
X0180079Y0090057D01*
X0179456Y0091655D02*
X0178756Y0091655D01*
X0178767Y0093254D02*
X0179367Y0093254D01*
X0179367Y0094852D02*
X0178767Y0094852D01*
X0178767Y0096451D02*
X0179367Y0096451D01*
X0179367Y0098049D02*
X0178767Y0098049D01*
X0178710Y0099648D02*
X0179474Y0099648D01*
X0180160Y0101246D02*
X0178022Y0101246D01*
X0175929Y0102845D02*
X0181933Y0102845D01*
X0181893Y0120429D02*
X0176193Y0120429D01*
X0178173Y0122027D02*
X0180205Y0122027D01*
X0179559Y0123626D02*
X0178835Y0123626D01*
X0178863Y0125224D02*
X0179463Y0125224D01*
X0179463Y0126823D02*
X0178863Y0126823D01*
X0178863Y0128421D02*
X0179463Y0128421D01*
X0179463Y0130020D02*
X0178863Y0130020D01*
X0178824Y0131618D02*
X0179563Y0131618D01*
X0180225Y0133217D02*
X0178160Y0133217D01*
X0176127Y0134815D02*
X0181947Y0134815D01*
X0152405Y0102845D02*
X0150312Y0102845D01*
X0108883Y0146005D02*
X0107373Y0146005D01*
X0107728Y0147603D02*
X0108528Y0147603D01*
X0108528Y0149202D02*
X0107728Y0149202D01*
X0107728Y0150800D02*
X0108528Y0150800D01*
X0108528Y0152399D02*
X0107728Y0152399D01*
X0107728Y0153997D02*
X0108528Y0153997D01*
X0108902Y0155596D02*
X0107354Y0155596D01*
X0106216Y0157194D02*
X0110040Y0157194D01*
X0080040Y0157194D02*
X0076216Y0157194D01*
X0077354Y0155596D02*
X0078902Y0155596D01*
X0078528Y0153997D02*
X0077728Y0153997D01*
X0077728Y0152399D02*
X0078528Y0152399D01*
X0078528Y0150800D02*
X0077728Y0150800D01*
X0077728Y0149202D02*
X0078528Y0149202D01*
X0078528Y0147603D02*
X0077728Y0147603D01*
X0077373Y0146005D02*
X0078883Y0146005D01*
X0079994Y0144406D02*
X0076262Y0144406D01*
X0066107Y0141209D02*
X0011612Y0141209D01*
X0011611Y0139611D02*
X0064913Y0139611D01*
X0064515Y0138012D02*
X0011611Y0138012D01*
X0015214Y0134815D02*
X0020476Y0134815D01*
X0018704Y0133217D02*
X0016782Y0133217D01*
X0017378Y0131618D02*
X0018057Y0131618D01*
X0018057Y0130020D02*
X0017457Y0130020D01*
X0017457Y0128421D02*
X0018057Y0128421D01*
X0018057Y0126823D02*
X0017457Y0126823D01*
X0017457Y0125224D02*
X0018057Y0125224D01*
X0018140Y0123626D02*
X0017341Y0123626D01*
X0016619Y0122027D02*
X0018865Y0122027D01*
X0026450Y0122027D02*
X0028865Y0122027D01*
X0028140Y0123626D02*
X0027175Y0123626D01*
X0027257Y0125224D02*
X0028057Y0125224D01*
X0028057Y0126823D02*
X0027257Y0126823D01*
X0027257Y0128421D02*
X0028057Y0128421D01*
X0028057Y0130020D02*
X0027257Y0130020D01*
X0027257Y0131618D02*
X0028057Y0131618D01*
X0028704Y0133217D02*
X0026610Y0133217D01*
X0024839Y0134815D02*
X0030476Y0134815D01*
X0032657Y0127740D02*
X0042644Y0117753D01*
X0069015Y0117753D01*
X0070456Y0122027D02*
X0090972Y0122027D01*
X0090972Y0120429D02*
X0072703Y0120429D01*
X0073439Y0118830D02*
X0090972Y0118830D01*
X0090972Y0117231D02*
X0073515Y0117231D01*
X0073007Y0115633D02*
X0090972Y0115633D01*
X0090707Y0114034D02*
X0071660Y0114034D01*
X0072294Y0110837D02*
X0087510Y0110837D01*
X0085912Y0109239D02*
X0073270Y0109239D01*
X0073515Y0107640D02*
X0084313Y0107640D01*
X0082715Y0106042D02*
X0073177Y0106042D01*
X0072069Y0104443D02*
X0081116Y0104443D01*
X0079518Y0102845D02*
X0067500Y0102845D01*
X0066144Y0101246D02*
X0065902Y0101246D01*
X0065752Y0097753D02*
X0055131Y0087132D01*
X0042190Y0087132D01*
X0046101Y0078867D02*
X0011592Y0078867D01*
X0011591Y0077269D02*
X0044503Y0077269D01*
X0042904Y0075670D02*
X0011591Y0075670D01*
X0012459Y0074072D02*
X0012859Y0074072D01*
X0012859Y0072473D02*
X0012459Y0072473D01*
X0012459Y0070875D02*
X0012859Y0070875D01*
X0012859Y0069276D02*
X0012459Y0069276D01*
X0012459Y0067678D02*
X0012859Y0067678D01*
X0012859Y0066945D02*
X0017459Y0066945D01*
X0017459Y0063767D01*
X0017340Y0063021D01*
X0017107Y0062303D01*
X0016764Y0061629D01*
X0016320Y0061018D01*
X0015786Y0060484D01*
X0015174Y0060040D01*
X0014501Y0059697D01*
X0013783Y0059463D01*
X0013036Y0059345D01*
X0012859Y0059345D01*
X0012859Y0066945D01*
X0012859Y0066079D02*
X0012459Y0066079D01*
X0012459Y0064481D02*
X0012859Y0064481D01*
X0012859Y0062882D02*
X0012459Y0062882D01*
X0012459Y0061284D02*
X0012859Y0061284D01*
X0012859Y0059685D02*
X0012459Y0059685D01*
X0011585Y0058087D02*
X0038323Y0058087D01*
X0036725Y0059685D02*
X0033911Y0059685D01*
X0031406Y0059685D02*
X0023911Y0059685D01*
X0023574Y0059545D02*
X0025264Y0060246D01*
X0026558Y0061540D01*
X0027259Y0063230D01*
X0027259Y0071060D01*
X0026558Y0072751D01*
X0025264Y0074045D01*
X0023574Y0074745D01*
X0021744Y0074745D01*
X0020053Y0074045D01*
X0018759Y0072751D01*
X0018059Y0071060D01*
X0018059Y0063230D01*
X0018759Y0061540D01*
X0020053Y0060246D01*
X0021744Y0059545D01*
X0023574Y0059545D01*
X0021406Y0059685D02*
X0014465Y0059685D01*
X0016513Y0061284D02*
X0019015Y0061284D01*
X0018203Y0062882D02*
X0017295Y0062882D01*
X0017459Y0064481D02*
X0018059Y0064481D01*
X0018059Y0066079D02*
X0017459Y0066079D01*
X0017459Y0067678D02*
X0018059Y0067678D01*
X0018059Y0069276D02*
X0017459Y0069276D01*
X0017403Y0070875D02*
X0018059Y0070875D01*
X0018644Y0072473D02*
X0016860Y0072473D01*
X0015420Y0074072D02*
X0020118Y0074072D01*
X0025200Y0074072D02*
X0030118Y0074072D01*
X0028644Y0072473D02*
X0026673Y0072473D01*
X0027259Y0070875D02*
X0028059Y0070875D01*
X0028059Y0069276D02*
X0027259Y0069276D01*
X0027259Y0067678D02*
X0028059Y0067678D01*
X0028059Y0066079D02*
X0027259Y0066079D01*
X0027259Y0064481D02*
X0028059Y0064481D01*
X0028203Y0062882D02*
X0027114Y0062882D01*
X0026302Y0061284D02*
X0029015Y0061284D01*
X0032659Y0067145D02*
X0042051Y0057753D01*
X0069015Y0057753D01*
X0065514Y0054890D02*
X0011584Y0054890D01*
X0011584Y0056488D02*
X0039922Y0056488D01*
X0038059Y0066079D02*
X0037259Y0066079D01*
X0037259Y0067678D02*
X0038059Y0067678D01*
X0038059Y0069276D02*
X0037259Y0069276D01*
X0037259Y0070875D02*
X0038059Y0070875D01*
X0038644Y0072473D02*
X0036673Y0072473D01*
X0035200Y0074072D02*
X0040118Y0074072D01*
X0042659Y0072030D02*
X0047734Y0077106D01*
X0059662Y0077106D01*
X0069015Y0067753D01*
X0067305Y0062739D02*
X0094028Y0062739D01*
X0069015Y0077753D02*
X0067880Y0077753D01*
X0062723Y0082910D01*
X0062723Y0088261D01*
X0065123Y0085261D02*
X0065176Y0085261D01*
X0065364Y0083663D02*
X0067131Y0083663D01*
X0066963Y0082064D02*
X0067663Y0082064D01*
X0063371Y0078867D02*
X0061295Y0078867D01*
X0061773Y0080466D02*
X0011592Y0080466D01*
X0011593Y0082064D02*
X0060475Y0082064D01*
X0062893Y0077269D02*
X0064515Y0077269D01*
X0064492Y0075670D02*
X0065007Y0075670D01*
X0066090Y0074072D02*
X0066332Y0074072D01*
X0062899Y0067145D02*
X0067305Y0062739D01*
X0062899Y0067145D02*
X0052659Y0067145D01*
X0042659Y0067145D02*
X0042659Y0072030D01*
X0029760Y0090057D02*
X0025095Y0090057D01*
X0026479Y0091655D02*
X0028376Y0091655D01*
X0027827Y0093254D02*
X0027027Y0093254D01*
X0027027Y0094852D02*
X0027827Y0094852D01*
X0035982Y0102845D02*
X0038872Y0102845D01*
X0038008Y0101246D02*
X0036846Y0101246D01*
X0037027Y0099648D02*
X0037827Y0099648D01*
X0037827Y0098049D02*
X0037027Y0098049D01*
X0037027Y0096451D02*
X0037827Y0096451D01*
X0042427Y0096894D02*
X0058156Y0096894D01*
X0069015Y0107753D01*
X0071885Y0101246D02*
X0077919Y0101246D01*
X0076321Y0099648D02*
X0073101Y0099648D01*
X0073515Y0098049D02*
X0074722Y0098049D01*
X0069015Y0097753D02*
X0065752Y0097753D01*
X0060712Y0102845D02*
X0045982Y0102845D01*
X0046846Y0101246D02*
X0059114Y0101246D01*
X0057515Y0099648D02*
X0047027Y0099648D01*
X0044269Y0120429D02*
X0065326Y0120429D01*
X0067574Y0122027D02*
X0046450Y0122027D01*
X0047175Y0123626D02*
X0067221Y0123626D01*
X0065191Y0125224D02*
X0047257Y0125224D01*
X0062928Y0144406D02*
X0063328Y0144406D01*
X0063328Y0146005D02*
X0062928Y0146005D01*
X0062928Y0147603D02*
X0063328Y0147603D01*
X0063328Y0149202D02*
X0062928Y0149202D01*
X0062928Y0152399D02*
X0063328Y0152399D01*
X0063328Y0153997D02*
X0062928Y0153997D01*
X0062928Y0155596D02*
X0063328Y0155596D01*
X0063328Y0157194D02*
X0062928Y0157194D01*
X0059757Y0157194D02*
X0052419Y0157194D01*
X0058672Y0155596D02*
X0032473Y0155596D01*
X0032868Y0157194D02*
X0042613Y0157194D01*
X0040257Y0158793D02*
X0032868Y0158793D01*
X0032311Y0160391D02*
X0038715Y0160391D01*
X0037792Y0161990D02*
X0031279Y0161990D01*
X0029027Y0163588D02*
X0037130Y0163588D01*
X0036702Y0165187D02*
X0011620Y0165187D01*
X0011620Y0166785D02*
X0036613Y0166785D01*
X0036613Y0168384D02*
X0011621Y0168384D01*
X0011621Y0169982D02*
X0037041Y0169982D01*
X0031671Y0153997D02*
X0058328Y0153997D01*
X0058328Y0152399D02*
X0029972Y0152399D01*
X0013823Y0152399D02*
X0011616Y0152399D01*
X0011616Y0153997D02*
X0012125Y0153997D01*
X0012516Y0161990D02*
X0011619Y0161990D01*
X0011619Y0163588D02*
X0014769Y0163588D01*
X0014515Y0171581D02*
X0011622Y0171581D01*
X0011622Y0173179D02*
X0012345Y0173179D01*
X0066499Y0157194D02*
X0070040Y0157194D01*
X0068902Y0155596D02*
X0067584Y0155596D01*
X0067928Y0153997D02*
X0068528Y0153997D01*
X0068528Y0152399D02*
X0067928Y0152399D01*
X0095772Y0114034D02*
X0096046Y0114034D01*
X0089109Y0112436D02*
X0011603Y0112436D01*
X0011573Y0021321D02*
X0013560Y0021321D01*
X0131263Y0051693D02*
X0131485Y0051693D01*
X0132916Y0050094D02*
X0133084Y0050094D01*
X0133515Y0048495D02*
X0134682Y0048495D01*
X0135317Y0047861D02*
X0135317Y0047861D01*
X0185265Y0021321D02*
X0185349Y0021321D01*
M02*
