%
M48
M72
T01C0.03800
T02C0.04000
T03C0.05512
T04C0.12205
%
T01
X69015Y137753
X69015Y127753
X69015Y117753
X69015Y107753
X69015Y97753
X69015Y87753
X69015Y77753
X69015Y67753
X69015Y57753
X69015Y47753
X69015Y37753
X69015Y27753
X69015Y17753
X69015Y7753
X129015Y7753
X129015Y17753
X129015Y27753
X129015Y37753
X129015Y47753
X129015Y57753
X129015Y67753
X129015Y77753
X129015Y87753
X129015Y97753
X129015Y107753
X129015Y117753
X129015Y127753
X129015Y137753
T02
X12639Y37629
X22639Y37629
X32639Y37629
X42639Y37629
X52639Y37629
X52659Y67145
X42659Y67145
X32659Y67145
X22659Y67145
X12659Y67145
X12427Y96894
X22427Y96894
X32427Y96894
X42427Y96894
X42657Y127740
X32657Y127740
X22657Y127740
X12657Y127740
X63128Y150777
X73128Y150777
X83128Y150777
X93128Y150777
X103128Y150777
X113128Y150777
X123128Y150777
X133128Y150777
X154263Y127608
X164263Y127608
X174263Y127608
X184263Y127608
X184167Y95596
X174167Y95596
X164167Y95596
X154167Y95596
X154214Y67130
X164214Y67130
X174214Y67130
X184214Y67130
X184195Y37046
X174195Y37046
X164195Y37046
X154195Y37046
X144195Y37046
X144214Y67130
T03
X21898Y177483
X21898Y157798
T04
X15201Y10474
X47516Y166952
X181488Y185093
X180910Y11246
M30
